<svg width="82" height="17" fill="none" xmlns="http://www.w3.org/2000/svg"><path fill-rule="evenodd" clip-rule="evenodd" d="M14.7.84v15.08h-2.32V4.016L14.66.84h.04zm-7.42 13.9v-3.62L.02.84H0v15.08h2.26V7.84l4.98 6.9h.04zm10.511-6.08c0-1.333.334-2.567 1-3.7a7.598 7.598 0 012.7-2.74 7.202 7.202 0 013.74-1.02c1.334 0 2.567.34 3.7 1.02a7.707 7.707 0 012.74 2.74 7.13 7.13 0 011.02 3.7c0 1.347-.34 2.586-1.02 3.72a7.44 7.44 0 01-2.72 2.7 7.274 7.274 0 01-3.72 1 7.426 7.426 0 01-3.74-.98 7.487 7.487 0 01-2.7-2.7c-.666-1.133-1-2.38-1-3.74zm2.4 0c0 .947.227 1.813.68 2.6a5.181 5.181 0 001.84 1.88c.787.466 1.647.7 2.58.7.92 0 1.76-.227 2.52-.68a5.075 5.075 0 001.8-1.88c.454-.8.68-1.673.68-2.62 0-.947-.226-1.82-.68-2.62a5.136 5.136 0 00-1.84-1.9 4.825 4.825 0 00-2.54-.7 4.86 4.86 0 00-2.56.7 5.189 5.189 0 00-1.82 1.9c-.44.8-.66 1.673-.66 2.62zm17.95 5.02V1.36H35.8v14.56h9.52v-2.24h-7.18zM50.738 1.36v12.32h17.198v2.24H48.398V1.36h2.34zm9.598 8.36h6.52V7.48h-6.52V3.6h7.32V1.36h-9.66v8.36h2.34zM80.82 1.36V3.6H73.5v3.88h6.52v2.24H73.5v3.96h7.6v2.24h-9.94V1.36h9.66z" fill="#000"/></svg>