<svg width="70" height="70" fill="none" xmlns="http://www.w3.org/2000/svg"><path d="M65.1 31.631l-1.813-7.25c.496-.106.867-.545.867-1.072v-1.17a4.609 4.609 0 00-4.603-4.602h-8.257v-2.412a2.268 2.268 0 00-2.265-2.265H6.941a2.268 2.268 0 00-2.265 2.265V35a1.096 1.096 0 102.192 0V15.125c0-.04.033-.073.073-.073H49.03c.04 0 .073.033.073.073V35a1.096 1.096 0 002.192 0v-1.242H64.23a3.587 3.587 0 013.405 2.484h-3.408c-.605 0-1.096.49-1.096 1.096v2.338a3.438 3.438 0 003.434 3.434h1.243v4.823h-2.866c-.942-2.718-3.526-4.676-6.56-4.676-3.035 0-5.619 1.958-6.56 4.676h-.528v-8.257a1.096 1.096 0 00-2.192 0v8.257h-22.74c-.942-2.719-3.526-4.677-6.56-4.677-3.035 0-5.62 1.958-6.56 4.677h-6.3a.073.073 0 01-.074-.073v-2.412h4.75a1.096 1.096 0 000-2.192H1.096a1.096 1.096 0 100 2.192h3.58v2.412a2.268 2.268 0 002.266 2.265h5.92l-.002.073a6.95 6.95 0 006.942 6.941 6.95 6.95 0 006.941-6.941l-.002-.073h24.701l-.002.073a6.95 6.95 0 006.942 6.941 6.95 6.95 0 006.941-6.941l-.002-.073h3.583c.605 0 1.096-.49 1.096-1.096V37.338a5.781 5.781 0 00-4.9-5.707zM51.294 19.73h8.257a2.414 2.414 0 012.411 2.41v.074H51.294v-2.485zm0 11.837v-7.161h9.74l1.79 7.16h-11.53zM19.802 54.948a4.755 4.755 0 01-4.75-4.75c0-2.619 2.13-4.75 4.75-4.75a4.756 4.756 0 014.75 4.75c0 2.62-2.131 4.75-4.75 4.75zm38.58 0a4.755 4.755 0 01-4.75-4.75c0-2.619 2.131-4.75 4.75-4.75s4.75 2.131 4.75 4.75c0 2.62-2.131 4.75-4.75 4.75zm9.426-14.03h-1.242a1.244 1.244 0 01-1.243-1.242v-1.242h2.485v2.484z" fill="#000"/><path d="M19.802 47.933a2.268 2.268 0 00-2.265 2.265 2.268 2.268 0 002.265 2.265 2.268 2.268 0 002.265-2.265 2.268 2.268 0 00-2.265-2.265zm38.58 0a2.268 2.268 0 00-2.265 2.265 2.268 2.268 0 002.265 2.265 2.268 2.268 0 002.265-2.265 2.268 2.268 0 00-2.265-2.265zm-12.86-4.676H29.154a1.096 1.096 0 000 2.192h16.368a1.096 1.096 0 000-2.192zM17.463 38.58H3.434a1.096 1.096 0 100 2.193h14.03a1.096 1.096 0 000-2.192zm20.65-14.877a1.096 1.096 0 00-1.55 0l-9.747 9.747-5.07-5.07a1.096 1.096 0 00-1.55 1.55l5.845 5.845a1.092 1.092 0 001.55 0l10.522-10.522a1.096 1.096 0 000-1.55z" fill="#000"/></svg>