<svg width="70" height="70" fill="none" xmlns="http://www.w3.org/2000/svg"><g clip-path="url(#clip0)" fill="#000"><path d="M65.588 6.152h-6.582a1.038 1.038 0 000 2.075h6.582a2.34 2.34 0 012.337 2.337v15.833a2.34 2.34 0 01-2.337 2.337H41.332c-.275 0-.54.11-.734.304l-5.975 5.974v-5.24c0-.573-.464-1.038-1.037-1.038h-1.975a2.34 2.34 0 01-2.337-2.337V10.564a2.34 2.34 0 012.337-2.337h23.937a1.038 1.038 0 000-2.075H31.611a4.417 4.417 0 00-4.412 4.412v15.833a4.417 4.417 0 004.412 4.412h.938v6.707a1.037 1.037 0 001.771.734l7.441-7.441h23.827A4.417 4.417 0 0070 26.397V10.564a4.417 4.417 0 00-4.412-4.412z"/><path d="M37.5 19.458c1.23-.841 2.76-1.89 2.76-3.682 0-.85-.344-1.575-.995-2.096-.575-.46-1.369-.725-2.177-.725-1.492 0-3.078.918-3.078 2.617 0 .75.316 1.115.965 1.115.733 0 1.128-.407 1.128-.79 0-.634.364-.998.998-.998.748 0 1.012.509 1.012.944 0 .806-.95 1.504-1.956 2.242-1.135.833-2.31 1.695-2.31 2.823v1.314c0 .407.556.668.939.668h4.821c.348 0 .654-.445.654-.953 0-.492-.306-.924-.654-.924h-3.531v-.105c0-.475.66-.926 1.424-1.45zM46 22.89c.737 0 1.073-.346 1.073-.668v-1.418h.565c.337 0 .668-.492.668-.993 0-.682-.346-.992-.668-.992h-.565v-.93c0-.302-.281-.654-1.074-.654-.792 0-1.073.351-1.073.653v.931h-1.12l2.385-4.783a.683.683 0 00.07-.265c0-.221-.142-.433-.4-.597a1.378 1.378 0 00-.674-.219.97.97 0 00-.895.551l-3.129 6.134a.88.88 0 00-.11.415c0 .448.29.749.722.749h3.151v1.418c0 .322.336.667 1.073.667zm8.096-10.141l-4.754 9.763a.621.621 0 00-.07.265c0 .355.312.736.776.736.273 0 .53-.144.625-.349L55.44 13.4a.604.604 0 00.056-.265c0-.44-.422-.735-.816-.735-.267 0-.48.127-.584.349zm3.631 3.641c.59 0 1.088-.306 1.088-.668v-.89h2.39v.925l-3.33 5.766a.71.71 0 00-.097.36c0 .64.716 1.087 1.358 1.087.306 0 .506-.095.611-.293l3.17-6.067c.101-.192.434-.851.434-1.295v-1.693c0-.29-.454-.667-.938-.667h-4.807c-.474 0-.939.33-.939.667v2.1c0 .368.476.667 1.06.667zM42.898 42.169a2.838 2.838 0 00-2.02-.837c-.764 0-1.481.297-2.02.837l-6.341 6.34c-2.526-1.32-4.722-2.577-7.177-4.647a1.038 1.038 0 00-1.337 1.586c2.835 2.39 5.302 3.739 8.233 5.254.401.207.89.131 1.21-.188l3.411-3.411L48.104 58.35c-3.633 3.118-8.777 4.204-14.618 3.055-6.57-1.291-13.52-5.336-19.573-11.389C7.86 43.963 3.815 37.011 2.523 30.443 1.375 24.6 2.46 19.456 5.578 15.823l11.248 11.248-3.412 3.412c-.32.32-.395.81-.188 1.21 2.066 3.994 3.733 6.925 7.908 11.101a1.038 1.038 0 001.467-1.467c-3.743-3.743-5.311-6.335-7.182-9.914l6.341-6.342c.54-.54.837-1.257.837-2.02 0-.764-.297-1.481-.837-2.02l-10.17-10.17a2.838 2.838 0 00-2.02-.838 2.84 2.84 0 00-2.02.837l-2.734 2.734C.656 17.755-.882 23.881.487 30.842c1.37 6.97 5.617 14.3 11.959 20.641 6.34 6.341 13.67 10.588 20.64 11.958 1.659.326 3.27.487 4.818.487 4.95 0 9.26-1.647 12.43-4.816l2.732-2.734c.54-.54.837-1.257.837-2.02 0-.763-.297-1.48-.837-2.02l-10.168-10.17zM9.017 12.329a.778.778 0 01.553-.23.77.77 0 01.553.23l10.17 10.17a.778.778 0 010 1.107l-2 1.999L7.018 14.328l2-2zM51.6 54.91l-2 2-11.276-11.275 2-2a.777.777 0 01.554-.23c.209 0 .405.082.553.23L51.6 53.804a.784.784 0 010 1.107z"/></g><defs><clipPath id="clip0"><path fill="#fff" d="M0 0h70v70H0z"/></clipPath></defs></svg>