<svg width="70" height="70" fill="none" xmlns="http://www.w3.org/2000/svg"><g clip-path="url(#clip0)" fill="#000"><path d="M49.98 48.636H29.884a1.026 1.026 0 100 2.051H49.98c3.958 0 7.179-3.22 7.179-7.18v-15.4c0-3.959-3.22-7.18-7.18-7.18h-5.823l-13.234-6.755a2.691 2.691 0 00-3.617 1.172l-2.85 5.584h-3.797a2.396 2.396 0 00-2.393 2.393v24.973a2.396 2.396 0 002.393 2.393h4.714a1.026 1.026 0 100-2.051h-4.714a.342.342 0 01-.342-.342V23.32c0-.189.153-.342.342-.342h29.321c2.828 0 5.129 2.3 5.129 5.128v3.335h-8.17a4.75 4.75 0 00-4.745 4.744v1.367a4.75 4.75 0 004.745 4.745h8.17v1.21c0 2.827-2.3 5.128-5.128 5.128zm-20.848-32.36A.638.638 0 0129.99 16l9.655 4.929H26.758l2.374-4.651zm17.806 23.971a2.697 2.697 0 01-2.693-2.693v-1.367a2.697 2.697 0 012.693-2.694h8.17v6.754h-8.17z"/><path d="M67.531 22.516a32.586 32.586 0 00-7.045-10.598 33.477 33.477 0 00-2.344-2.146 1.026 1.026 0 00-1.312 1.577c.76.632 1.5 1.31 2.2 2.014 5.752 5.79 8.92 13.475 8.92 21.637 0 8.202-3.194 15.913-8.994 21.713-5.8 5.8-13.51 8.994-21.713 8.994-6.48 0-12.65-1.983-17.88-5.74l1.212-1.575c4.878 3.488 10.631 5.328 16.668 5.328 7.673 0 14.891-3 20.325-8.446C63 49.827 65.98 42.6 65.962 34.927 65.922 19.17 53.072 6.32 37.315 6.28h-.075a28.353 28.353 0 00-13.025 3.128 29.042 29.042 0 00-9.968 8.405 1.026 1.026 0 001.642 1.23C20.916 12.332 28.895 8.33 37.243 8.33h.066c14.631.037 26.564 11.97 26.6 26.601.019 7.125-2.75 13.835-7.796 18.893-5.045 5.058-11.748 7.844-18.872 7.844-5.757 0-11.233-1.802-15.839-5.21a1.57 1.57 0 00-2.166.306l-1.805 2.348a1.55 1.55 0 00-.31 1.168c.06.42.28.79.62 1.043 5.669 4.21 12.412 6.434 19.5 6.434 8.75 0 16.976-3.408 23.163-9.595C66.593 51.976 70 43.75 70 35c0-4.31-.83-8.51-2.469-12.484z"/><path d="M13.421 30.043a1.42 1.42 0 00-.875-.656 1.42 1.42 0 00-1.083.155l-.372.22a26.396 26.396 0 012.351-6.785 1.025 1.025 0 10-1.829-.928 28.445 28.445 0 00-2.893 9.588 1.026 1.026 0 001.541 1.002l1.712-1.015 1.013 1.709-5.855 3.47-4.823-4.375 1.334-1.471 1.377 1.248a1.026 1.026 0 001.708-.647c.772-6.966 3.816-13.284 8.802-18.27 5.772-5.773 13.445-8.967 21.606-8.994h.105c5.615 0 11.089 1.514 15.837 4.383a1.026 1.026 0 101.06-1.756C49.07 3.859 43.23 2.242 37.24 2.242h-.112a32.59 32.59 0 00-12.476 2.513 32.605 32.605 0 00-10.574 7.082C9.228 16.687 6.1 22.72 4.962 29.384l-.402-.364a1.427 1.427 0 00-2.02.098L.372 31.51a1.42 1.42 0 00-.37 1.03c.02.381.185.733.468.989l5.55 5.035a1.558 1.558 0 001.848.187l6.7-3.971c.678-.402.903-1.28.501-1.959l-1.647-2.778zm34.224 8.544a1.73 1.73 0 100-3.46 1.73 1.73 0 000 3.46z"/></g><defs><clipPath id="clip0"><path fill="#fff" d="M0 0h70v70H0z"/></clipPath></defs></svg>