<svg width="188" height="106" fill="none" xmlns="http://www.w3.org/2000/svg"><path d="M94.928 4.168c-.935 0-.935 1.48 0 1.48s.935-1.48 0-1.48zm5.454.545c-.935 0-.935 1.48 0 1.48 1.012 0 1.012-1.48 0-1.48zm4.674 1.714c-.935 0-.935 1.48 0 1.48s.935-1.48 0-1.48zm3.661 2.182c-.935 0-.935 1.48 0 1.48s.935-1.48 0-1.48zm3.818 3.35c-.935 0-.935 1.48 0 1.48 1.012-.078 1.012-1.48 0-1.48zm2.57 3.427c-.934 0-.934 1.48 0 1.48 1.013 0 1.013-1.48 0-1.48zm2.026 3.74c-.935 0-.935 1.48 0 1.48 1.013 0 1.013-1.48 0-1.48zm1.714 4.207c-.935 0-.935 1.48 0 1.48s.935-1.48 0-1.48zm.311 3.895c-.934 0-.934 1.48 0 1.48 1.013 0 1.013-1.48 0-1.48zm-.545 4.362c-.935 0-.935 1.48 0 1.48 1.013 0 1.013-1.48 0-1.48zm-.701 3.896c-.935 0-.935 1.48 0 1.48s.935-1.48 0-1.48zM91.189 3.857c-.935 0-.935 1.48 0 1.48.935-.078.935-1.48 0-1.48zm-3.818 1.246c-.934 0-.934 1.48 0 1.48.935 0 .935-1.48 0-1.48zm-3.895 1.87c-.934 0-.934 1.48 0 1.48.935 0 .935-1.48 0-1.48zm-3.895 2.181c-.935 0-.935 1.48 0 1.48 1.013 0 1.013-1.48 0-1.48zm-2.882 2.805c-.935 0-.935 1.48 0 1.48.934-.078.934-1.48 0-1.48zm-2.259 3.427c-.935 0-.935 1.48 0 1.48.934 0 .934-1.48 0-1.48zm-1.637 3.506c-.934 0-.934 1.48 0 1.48.935 0 .935-1.48 0-1.48zm-1.48 4.051c-.935 0-.935 1.48 0 1.48s.935-1.48 0-1.48zm-.701 3.506c-.935 0-.935 1.48 0 1.48s.935-1.48 0-1.48zm.312 4.83c-.935 0-.935 1.48 0 1.48 1.013 0 1.013-1.48 0-1.48zm.779 4.051c-.935 0-.935 1.48 0 1.48s.935-1.48 0-1.48zm1.48 3.116c-.935 0-.935 1.48 0 1.48s.935-1.48 0-1.48zm1.636 3.116c-.935 0-.935 1.48 0 1.48s.935-1.48 0-1.48zm2.181 2.961c-.935 0-.935 1.48 0 1.48 1.013 0 1.013-1.48 0-1.48zm2.96 2.727c-.934 0-.934 1.48 0 1.48.936 0 .936-1.48 0-1.48zm3.506 2.025c-.934 0-.934 1.48 0 1.48.935 0 .935-1.48 0-1.48zm3.506 1.635c-.935 0-.935 1.48 0 1.48s.935-1.48 0-1.48zm4.596.936c-.934 0-.934 1.48 0 1.48.935 0 .935-1.48 0-1.48zm4.597 0c-.935 0-.935 1.48 0 1.48s.935-1.48 0-1.48zm4.051-.546c-.935 0-.935 1.48 0 1.48s.935-1.48 0-1.48zm4.83-1.48c-.935 0-.935 1.48 0 1.48s.935-1.48 0-1.48zm3.116-2.181c-.935 0-.935 1.48 0 1.48s.935-1.48 0-1.48zm3.817-2.961c-.935 0-.935 1.48 0 1.48s1.013-1.48 0-1.48zm3.506-4.207c-.935 0-.935 1.48 0 1.48s.935-1.48 0-1.48zm71.594 51.651c-2.805-3.116-8.102-3.662-11.919-4.44-2.415-.468-4.908-.624-7.168-1.559-1.791-.7-3.505-1.48-5.453-1.791.078-.702.078-1.403.078-1.792 0-1.169.312-2.493.623-3.818.156-.545.312-1.09.39-1.636v-.078c.389-1.87 1.013-5.063-10.206-9.582-11.452-4.674-49.858-11.374-82.344-7.634-30.928 3.583-42.614 9.582-44.717 12.542-.39.546-.546 1.09-.39 1.558.234 1.013.857 1.948 1.402 2.727 1.013 1.48 1.948 2.96 1.091 5.297a1.47 1.47 0 00-.156.624c-.935.155-1.792.545-2.804.623-1.325.156-2.571.234-3.818.467-2.57.546-5.297 1.636-7.634 2.883-4.597 2.415-10.05 3.817-13.711 7.79-.312.312 0 1.013.467.857 2.493-.779 6.077-.39 8.647-.233 1.247.077 2.571.077 3.818.077.857 0 3.272-.155 2.181 1.169-1.169 1.402-3.506 1.792-4.908 3.038-1.792 1.558-2.727 3.662-4.363 5.376-.311.311 0 1.012.468.857 8.336-3.272 17.372-5.376 26.331-5.765 1.87-.078 3.818.078 5.687-.078.935-.078 2.026-.312 2.415-1.325.078-.155.078-.311.078-.467.234-.312.234-.935.078-1.48 0-.234.078-.39 0-.701-.156-1.403-.935-2.805-1.402-4.13-.312-1.09-.857-3.427-.312-4.752 13.478-5.764 36.85-7.245 54.066-7.79 24.54-.857 42.769 4.129 53.364 8.258 0 .078 0 .078.078.156.312 1.402.935 2.57.935 4.129 0 1.791-.467 3.194-1.169 4.83-.389.935-.233 1.402.312 1.558.935 1.246 2.883 1.168 4.285 1.09 3.038-.077 6.076-.233 9.115-.155 3.505 0 6.388 1.48 9.582 2.726 1.558.546 3.116 1.013 4.674 1.558 1.636.546 4.285.857 5.687 1.948.39.312 1.091-.078.779-.623-1.091-1.714-1.558-3.818-2.649-5.531-.467-.702-1.168-1.403-1.791-1.948-.702-.623-2.727-1.792-2.805-2.805-.078-.545-.078 0 .467 0h1.559c1.012 0 2.025.078 2.96-.078 2.571-.311 5.064-.7 7.635-.934.545-.156.779-.624.467-1.013zm-148.33 6.31c-.311.156-1.791 0-2.181.078-3.038.156-6.154.234-9.193.545-6.544.702-13.01 2.338-19.242 4.675.467-.701.935-1.403 1.48-2.104 1.169-1.558 2.571-2.415 4.285-3.35.935-.467 4.129-1.713 3.272-3.272-.857-1.636-4.752-.857-5.999-.934-2.726-.078-5.998-.624-8.803-.234 3.35-2.805 7.79-4.13 11.686-6.077 2.259-1.168 4.674-2.181 7.167-2.882 1.48-.39 2.882-.545 4.362-.623.935-.078 1.792-.468 2.727-.624-.156 3.428 1.792 8.726 2.026 9.193 0 .078.078.156.155.156 0 .078 0 .234.078.234.234.623.701.934 1.247 1.09.312.156.701.312 1.168.39.546.078 1.091.156 1.714.234.078 0 .078 0 .156.077 1.169.468 2.337.857 3.506 1.403.467.233 1.168.311 1.48.779.078.078.156.311.234.545-.39.156-.78.39-1.325.701zm1.325-3.583c0 .233.233.779 0 1.012-.156-.078-.234-.156-.39-.156-.311-.233-.701-.467-.779-.545-.545-.311-1.09-.779-1.714-.935-.779-.233-6.31-.233-5.297-1.87 0-.077.078-.077.078-.155.078-.078.156-.234.311-.312.701-.857 1.714-2.103 2.883-2.882a33.83 33.83 0 013.35-1.792c-.078.857 0 1.792.077 2.415.156 1.792 1.247 3.35 1.48 5.22zm53.598-17.062c-17.14.546-40.355 2.026-54.066 7.713-.233-.078-.467-.078-.623.156 0 .078-.078.078-.078.156-1.558.7-3.038 1.402-4.285 2.259-1.324.857-2.337 2.103-3.116 3.038-.156.234-.39.546-.623.701-.623-1.636-2.415-7.323-1.558-9.582 1.013-2.804-.156-4.596-1.169-6.154-.545-.78-1.012-1.558-1.246-2.493-.078-.234.078-.546.234-.78.467-.623 2.648-3.038 11.841-5.92 8.18-2.57 19.242-4.752 32.097-6.232 6.621-.78 13.4-1.091 20.255-1.091 26.487 0 52.507 4.986 61.622 8.647 10.439 4.285 9.894 6.934 9.582 8.492v.078c-.078.545-.234 1.013-.389 1.636-.312 1.324-.702 2.726-.702 4.05 0 .468 0 1.17-.077 1.948 0 .078-.078.156 0 .312-.156 1.792-.702 3.895-2.104 4.986-.389.312-1.013.779-1.402 1.09h-.234c-3.272-1.87-26.176-14.256-63.96-13.01zm53.987 18.775c-.077-.233.857-1.87.935-2.103.234-.701.39-1.324.39-2.103.078-1.013.078-1.948-.156-2.96-.156-.702-.39-1.325-.623-1.948 5.297 2.103 8.413 3.895 9.27 4.362v.078a.665.665 0 000 .546c-.155 2.025-2.96 2.259-4.674 2.882-.467.156-4.908 1.948-5.142 1.246zm32.954-3.973c-2.571.468-4.908.078-7.401.234-.234 0-.545.234-.467.468.155 1.87 2.493 3.194 3.739 4.362 1.636 1.558 2.259 3.584 3.116 5.531-1.636-.701-3.739-1.012-5.297-1.558-3.117-1.013-6.077-2.415-9.193-3.428-2.493-.856-5.142-.7-7.79-.467-1.714.156-3.428 0-5.064 0-.935 0-2.415.234-3.428-.156 2.571-.467 5.375-1.48 7.79-2.493.468-.233.857-.467 1.169-.779.078 0 .234-.078.312-.156.233-.311.389-.545.623-.857.234-.311.545-.467.701-.779.078-.078.078-.233.156-.39.156-.233.311-.466.389-.7.078-.234.234-.39.312-.624l.156-.155c.156-.156.156-.234.156-.39.077-.156.155-.311.233-.39 1.091-1.246 1.558-2.96 1.714-4.518 2.104.39 3.973 1.325 5.921 2.026 1.792.623 3.739.7 5.609 1.09 3.506.702 8.647 1.169 11.608 3.662a50.877 50.877 0 00-5.064.467z" fill="#000"/><path d="M34.319 82.306c-.857.156-1.714.545-2.493.857-.935.234-1.87.312-2.26-.156-.077-.078-.077-.078-.077-.156.155-.545.233-1.013.311-1.48.078-.156.156-.311.234-.39.156-.155.39-.311.623-.467a7.05 7.05 0 00.623-.39 8.114 8.114 0 002.182-.545c.156-.078-.078-.39-.156-.39-.234-.077-.467-.077-.701-.077h-.468c-.545.078-1.012.078-1.558.078-.311-.078-.545-.234-.779-.468v-.233c.234-.39.546-.624 1.013-.857 1.09-.156 2.26-.702 2.805-1.013.155-.078-.156-.39-.234-.39-.78-.233-1.87.468-2.57.857-.702.156-1.715.156-1.793-.311.39-.624.701-1.09 1.247-1.558.779-.546 1.792-1.013 2.57-1.558v-.078c.078 0 .156-.078.234-.078.156-.078-.156-.39-.311-.39-.234 0-.468.078-.78.234-.623.156-1.168.545-1.635.779-.156.078-.312.078-.468.078-.623.078-1.246 0-1.87 0 .546-.39 1.17-.623 1.792-.78.156-.077-.078-.467-.233-.389-1.013.234-2.182.156-2.96-.467-.079-.078-.235 0-.157.078.156.545.312 1.09.546 1.558h-.078c-.078 0-.078.078-.078.078v.078c0 .078.156.233.234.311l.078.078c.311.624.623 1.247.857 1.87.233.701.545 1.324.934 1.948.312.623.468 1.168.468 1.713-.234.312-.468.624-.623 1.013 0 .078.155.312.233.39-.078.39-.078.7 0 1.012l-.233 1.403v.078a8.8 8.8 0 000 2.025c.155 1.09.467 2.571 1.09 3.506.078.078.234.234.312.156v-.078c.078.078.078.078.156.078 0 .467-.156 1.012-.156 1.324 0 .156.39.467.39.234v-.312c0-.156.077-.311.077-.467.234-.857.701-1.558 1.325-2.182.7-.233 1.324-.623 1.636-1.012.078-.078 0-.156-.078-.234.078-.078.156-.078.233-.156.078 0 .078-.078.156-.078.156-.078-.078-.467-.233-.39-.156.079-.39.156-.546.234h-.078s-.078 0-.078.078c-.078.078-.233.078-.311.156-.468 0-.935.234-1.402.39-.546.155-1.169.233-1.636.39-.078-.313.077-.624.311-.936.312-.311.78-.623 1.169-.935.857-.155 1.791-.623 2.259-.934.156-.078-.156-.39-.312-.39-.934.078-2.025.39-2.882 1.013-.39.078-.701 0-.935-.546.468-.934 1.48-1.168 2.415-1.558.234-.155.545-.233.78-.39.7-.155 1.401-.467 2.025-.7.311.156 0-.234-.156-.156zm-5.687-4.986a.608.608 0 00.311.312c-.078.078-.155.155-.155.311-.078-.233-.234-.467-.312-.7.078 0 .156.077.156.077zm-1.558-3.74c.078 0 .078 0 .155.079h-.077c0-.078 0-.078-.078-.078 0 .078-.078.078-.078.078-.156 0-.078.155 0 .233v.078c.078.078.078.156.078.234 0 0 0-.078-.078-.078-.078-.156-.078-.234-.156-.39-.156-.389-.078-.467.234-.155zm2.96 15.27s-.078 0 0 0c-.156 0-.156.156-.078.312v.311a15.268 15.268 0 01-.467-1.09c.155.233.311.389.545.467zm-.623-2.96c-.078 0-.078 0-.078.077-.078.156-.156.312-.156.546 0-.312 0-.624-.078-.935 0 .078.078.078.078.156.078.078.156.156.234.156zm17.372-19.009c-.311.156-.623.312-.934.39-1.013.389-2.104.623-3.194.856a15.63 15.63 0 00-1.792.546c-.546.156-.935.467-1.48.7-.078 0 0 .079.078.157-.078.078-.234.078-.312.156-.156.077.234.389.312.311 1.168-.623 2.415-.935 3.739-1.246 1.09-.312 2.025-.702 2.96-1.091.312-.156.623-.234.935-.39.156-.155-.234-.467-.312-.389zm95.355 0c-1.013-.545-1.947-.935-3.116-1.169-1.87-.39-4.051-.467-5.921-.155h-.155c-.078 0-.156 0-.312.078 0 0 .156.39.312.39.077 0 .233 0 .311-.079 1.091.312 2.493.078 3.584.156.233 0 .545.078.779.078.389.156.857.39 1.246.467 1.091.234 2.104.234 3.116.546.234.078.546.156.857.156.546.311 1.091.7 1.636 1.09.546-.623-1.246-1.246-2.337-1.558zm-4.596-1.09c.389 0 .701.077 1.091.155 0 .078.077.078.077.156-.389-.078-.779-.234-1.168-.312zm19.086 21.267c-.155-.39-.701-.623-1.168-.701-.623-.156-1.091-.701-1.714-.701-.156 0-.234.078-.156.156 0 .078-.078.078 0 .155.468.468 1.013.546 1.636.702.468.155.701.7 1.247.545.155 0 .233-.078.155-.156z" fill="#000"/><path d="M163.25 76.307c-.233-.156-.545-.156-.779-.311-.545-.234-.857-.546-1.324-.857-.234-.156-.623.078-.312.311.779.624 1.87 1.558 1.558 2.493-.467-.078-1.012-.156-1.402-.39-.156-.077-.234-.155-.389-.31h-.078c-.234-.157-.468.155-.312.31.156.079.234.234.39.312l.701.702c.311.389.389.623.467 1.012v.234c-.935-.078-1.87-.39-2.727-.623-.779-.234-1.636-.701-2.492-.701-.234 0-.312.233-.078.39.857.544 1.947.7 2.804 1.168.935.39 1.636 1.013 2.259 1.714v.078c-.467.467-1.012.623-1.636.623-.077-.078-.233-.078-.311-.156-.857-.312-2.026-.935-3.038-.78-.234.079-.156.313 0 .39 1.012.39 1.791.78 2.882.857h.234c.389.156.857.39 1.168.624.156.155.234.311.39.39 0 .155.078.389.078.544.078 1.013 0 2.182-1.558 1.948-.468-.078-1.013-.312-1.481-.545a8.028 8.028 0 00-1.636-.857c-.233-.078-.545.234-.233.39.467.233.935.545 1.402.778.935.624 1.636 1.403 2.259 2.337v.156c-.389.546-.857.857-1.246.935-.156-.078-.312-.156-.468-.311-.078-.078-.311-.078-.389 0-.156-.078-.312-.234-.468-.312-.155-.156-.545 0-.389.234.467.623.935 1.246 1.246 1.87.078.155.468.155.468-.079 0-.233-.078-.39-.156-.545h.156a.168.168 0 00.156-.156c0 .234 1.012-.156 1.168-.311.156-.078.156-.156.078-.312.156-.234.234-.467.234-.779.078 0 .156-.156.156-.234 0-.156-.078-.311-.156-.467.078.078.311.078.389 0 .156-.234.156-.468.156-.701.078-.156.078-.312.156-.546 0-.078 0-.155-.078-.155.701-.468.779-1.558.701-2.571.078-.078.078-.156 0-.234l-.078-.078v-.156c.078 0 .078-.078.078-.155-.078-.312-.078-.546-.389-.78.233-.077.389-.233.545-.311.623-.623.623-1.87.779-2.727.156-1.013.312-1.636.156-2.57.156-.079.311-.157.311-.39.234-.234.156-.312.078-.39zm-1.246 4.908v-.233c.078 0 .078-.078.078-.156 0-.156 0-.312.078-.468.078 0 .155-.078.233-.078-.155.312-.233.624-.389.935zm.467-1.402h-.156c.078-.234.078-.468-.077-.701 0-.078 0-.156-.078-.234.078 0 .155 0 .233-.078.078-.078.156-.233.312-.311-.078.467-.156.857-.234 1.324z" fill="#000"/><path d="M159.043 89.707c-.467-.078-.701-.312-1.09-.545-.468-.234-.779-.624-1.091-1.013-.234-.234-.234.078-.078.234.312.39.623.857 1.091 1.168.467.234.857.623 1.402.701.078-.156-.078-.545-.234-.545z" fill="#000"/><path d="M159.433 89.24c-.468-.156-.935-.39-1.402-.624-.468-.156-.702-.39-1.091-.623-.234-.156-.312.156-.156.312.545.623 1.169 1.09 1.714 1.636.234.233.39-.078.234-.312l-.623-.623c.545.156.934.467 1.48.623.156.156 0-.312-.156-.39zm-.156 1.168c.234-.156-.156-.467-.389-.311-.156.077-.312.233-.468.389-.078 0-.078 0-.156.078-.155.078-.311.078-.545.078h-1.168c-.156 0-.156.156-.078.234.545.623 2.025.545 2.648 0 .078-.078.078-.234-.078-.312 0 0 0-.078-.077-.078.233 0 .311-.078.311-.078zm-4.908-.234l-.233-.233c.233-.078-.234-.312-.312-.312 0-.078-.156-.156-.312-.156-.623 0-1.246.312-1.792.468-.389.078-.856.078-1.246.078-.234 0-.39 0-.545.078-.156.077 0 .233.078.233.545.234 1.402.156 2.025.078.39-.078.779-.156 1.091-.234.078 0 .156 0 .233-.078.078 0 .546-.077.624 0 0 .234.545.234.389.078z" fill="#000"/><path d="M156.94 91.11c-.078 0-.156-.079-.234-.079 0-.078-.078-.078-.155-.078h-.546.078c.156-.078.078-.233 0-.311.078-.156-.078-.312-.312-.234-.779.39-1.48.857-2.259 1.09-.701.234-1.558.624-2.259.702-.234 0-.389.39-.078.39 1.091 0 2.181-.312 3.272-.546.779-.156 1.636-.234 2.337-.545a.168.168 0 00.156-.156v-.156c.078 0 0 0 0-.078zm.935 1.012s-.234-.234-.39-.234l.156-.156s-.389-.311-.467-.233c-.935 1.09-2.104 1.402-3.428 1.87-.545.155-1.013.311-1.558.467-.156 0-.312.078-.468.156-.077 0-.467.155-.701.233-.233.078-.389.078-.623.156 0 0 .312.234.39.234.233-.078.467-.078.701-.156h.078a7.038 7.038 0 001.714-.467c.467-.156.934-.234 1.402-.39 1.013-.234 2.181-.467 3.116-1.013l-.156-.155c0-.078.156-.156.234-.312zm-5.765-3.194s-.078 0 0 0a.59.59 0 00-.312-.078h-.078c.078-.078.078-.078 0-.156-.389-.234-.623 0-.934.078-.312.156-.857.078-1.091.39-.078.078 0 .233.078.233.701.312 1.87.312 2.493-.155 0-.156-.078-.234-.156-.312z" fill="#000"/><path d="M155.07 90.252c-.233 0-.389.078-.623.078.078-.078.156-.156.234-.156.156-.078-.234-.39-.39-.311-.545.311-.857.7-1.48.934-.779.312-1.636.468-2.415.702-.234.078.234.311.312.311.779 0 1.48-.156 2.181-.467.701-.234 1.324-.701 2.026-.78.077.079.389.234.389.079v-.156c.156-.156-.156-.234-.234-.234zM39.616 94.615c-.311 0-1.48.234-1.714-.078-.155-.234.078-.623.312-.779.156 0 .234-.078.39-.156h.077c.078-.078.078-.078.078-.156.156-.078-.233-.233-.311-.233-.078 0-.156.078-.234.078-.39.155-.857.155-1.246.311-.857.234-1.637.468-2.493.545-.234 0-.39-.077-.468-.233.078-.078.156-.078.234-.156.467-.467 1.013-.78 1.636-1.013.311-.078.701-.234.935-.39.39-.155.857-.233 1.168-.467.234-.156-.233-.233-.39-.233-.389.155-.856.39-1.402.545-.233.078-.389.078-.545.156-.078 0-.156.078-.233.156-1.247.39-2.493.623-3.428.077-.078-.078-.39-.078-.39.078v.156c0 .156.312.234.468.156.078.078.233.078.39.156h-.235c-.155 0-.39.078-.233.233.078.078.078.078.156.078.077.078.155.078.389.156h.156c.39.156.623.39.857.468.156.155.39.233.7.311 0 .078.079.078.157.078.545.078 1.09.234 1.636.234.39 0 .623-.156.934-.312h.234v.156c.156.312.546.39 1.013.467v.156c0 .078 0 .078.078.078.311.156.545.312.857.39.156.078.545-.078.234-.234-1.169-.467 0-.39.545-.468.156-.077-.078-.311-.312-.311zm-2.493-3.895c-.779 0-1.558.233-2.337.311-.779.078-1.558-.156-2.259.078-.078 0-.078.078 0 .078.078.078.078.156.078.234-.39 0-.623.078-.545.39 0 0 0 .077.078.077h-.468c-.156 0 .234.234.312.234.7 0 1.48-.156 2.181-.234h.156c.39-.078.701-.156 1.09-.233.624-.156 1.636-.234 2.104-.624.078-.156-.312-.311-.39-.311zm.702-1.558a4.892 4.892 0 01-1.48.233h-.157c-.155 0-.389 0-.545.078-.39 0-.857 0-1.246-.078-.078 0-.39 0-.39.156 0 .078.078.156.078.156-.156 0-.234.078-.39.156-.077.078-.077.156-.077.156h-.078c-.156-.078-.546.155-.234.233 1.558.312 3.194-.39 4.674-.857.312-.078.078-.311-.155-.233zM14.998 98.9a8.724 8.724 0 00-1.791.467 44.4 44.4 0 00-1.325.234c-.623.156-1.324.311-1.87.779-.077.078-.077.233.079.233-.546.312-1.091.624-1.48 1.091-.234.234.233.468.389.312.935-.779 2.025-1.247 3.194-1.714.467-.156.935-.39 1.48-.623.546-.078 1.09-.156 1.636-.39.156-.156-.078-.39-.312-.39zm-.078-7.246c-.077 0-.233 0-.311.078h-.078c-.935.546-1.87 1.247-2.882 1.792-.546.156-1.091.312-1.636.39-.078 0-.468.233-.234.233h.467c-.078.078-.155.156-.155.234 0 .156.467 0 .467-.156 0 0 .234-.078.467-.233l-.077.077c-.156.156.155.156.233.078l.468-.233c-.078.078-.156.155-.156.233-.078.156.39 0 .467-.078l.156-.155c.078.078.39-.078.39-.078.078-.078.233-.156.311-.234-.078.156-.156.312-.156.467h.078c.468.156 1.169.156 1.714.156.156 0 .546-.233.234-.233-.234 0-.623.078-.857 0-.467-.156-.623-.156-.39-.624.078-.155.156-.311.312-.39.39-.233.857-.467 1.169-.778.078-.078.078-.078 0-.078.078-.078.155-.156.311-.234h.078c.156-.312-.311-.312-.39-.234z" fill="#000"/><path d="M13.05 93.68c0-.156-.077-.234-.077-.39 0-.155-.467-.155-.467 0 0 .156 0 .234-.078.39v.156l-.078.078c-.078.156.39.156.467.078.078-.078.156-.156.234-.312 0 .078 0 .078 0 0zm7.713-.078a23.31 23.31 0 01-2.493.623c0-.078-.077-.078-.077-.078-.78 0-1.792-.155-2.493.156-.078 0 .155.39.233.468.39.078.857 0 1.325.078-.156 0-.312.078-.468.078 0 0 0 .077.078.155-.078 0-.233.078-.311.156-.078 0 .155.468.233.468.156 0 .39-.078.546-.078-.624.39-1.247.779-1.792 1.324-.078.078.156.468.234.468.545-.39 1.246-.78 1.791-1.247 1.169-.701 2.415-1.324 3.584-1.87-.156-.311-.312-.7-.39-.7zm-9.893 7.946c-.156.078-.39.156-.546.234h-.078l.468-.234c.156-.078-.078 0-.156 0-.312.078-.623.234-.935.39-.078 0-.156.078-.234.078.312-.312.546-.701.935-.935h-.233l.233-.234h-.078c-.078 0-.311.078-.39.156-.233.234-.544.467-.778.779L9 101.86c-.234.156-.467.312-.545.623h.155c.156 0 .234-.078.312-.156H9a1.632 1.632 0 00-.468.312h.078c-.077.078-.155.078-.233.156 0 0-.078.078 0 .078.233 0 .39-.078.545-.156-.156.156-.39.234-.545.389-.312.234-.78.468-.935.857 0 0 .39-.078.467-.155.39-.312.701-.624 1.091-.935.156-.078.312-.234.39-.312.233-.156.389-.312.623-.389.078-.078.311-.156.39-.234.155-.078.389-.156.467-.234.155-.234 0-.156 0-.156zm24.929-6.855h-.234c-.233 0-.467 0-.7.078.155-.156 0-.39-.235-.312-.7.156-1.246.623-1.947.78-.857.233-1.792.31-2.649.466-.311.078-.156.39.078.39h.078a31.387 31.387 0 003.661-.467c.546-.078 1.636-.156 2.104-.468.156-.233 0-.467-.156-.467zm3.194 1.247c-.312-.079-.623-.079-.935-.079-.078-.078-.078-.078-.156-.078h-.39c.157-.078.235-.078.39-.155.312-.078.078-.468-.233-.39-1.091.39-2.104.935-3.194 1.246-.857.234-1.948.312-2.727.702-.234.155.078.39.234.311 1.246 0 2.493-.39 3.661-.623 1.169-.234 2.26-.39 3.428-.623.234 0 .078-.312-.078-.312zm-3.506.622c.312-.155.624-.233.935-.39-.078 0-.078.079-.156.157s-.078.078-.078.156c-.233 0-.467 0-.7.077z" fill="#000"/><path d="M39.149 95.94c-.857-.234-1.792.077-2.727.155-.078-.078-.078-.078-.156-.078-.233 0-.467.078-.779.078-.233 0-.156.39.078.468h.546c.078.078.311.155.311 0 .312 0 .701-.078 1.013-.078.39-.078 1.947-.234 1.714.467-.078.234.312.468.39.234.233-.546.233-1.09-.39-1.247z" fill="#000"/><path d="M40.63 97.731c0-.078-.079-.078-.079-.156-.078-.078-.156-.156-.234-.156h-.311c-.078 0-.078 0-.156-.077.078-.078.078-.078.078-.156.078 0 .078-.078.078-.156v-.078c0-.078 0-.078-.078-.078-.078-.156-.234-.311-.39-.467-.39-.312-.779-.234-1.246-.234-.234 0-.234.234 0 .312.078 0 .078.078.156.078.078.078.233 0 .233 0 .234 0 .468 0 .624.155h-.156c-.39.156-.701.468-1.013.701-.234.078-.467.234-.701.39-.234.078-.39.078-.623.156-.234.078-.078.311.078.39.078.077.155.077.233.077h.156c.468 0 .935-.078 1.325-.156.545 0 1.246.078 1.791-.155h.156c.078-.234.078-.312.078-.39zM29.1 86.746c-.079-.077-.079-.077 0 0-.079-.077-.079-.077 0 0 0-.077-.079-.155-.235-.155.078-.078.156-.078.156-.156.078-.078-.155-.234-.311-.234l.078-.078c.078-.078-.312-.233-.312-.233h-.078c-.078 0-.078 0-.078.077-.39.39-.935.624-1.324.857-.312.156-.545.312-.857.468-.234.078-.39.078-.623.233-.078.078.233.234.311.234.546.078 1.169-.156 1.714-.311.312-.078.623-.234 1.013-.312.234-.078.467-.078.623-.156 0-.234-.078-.234-.078-.234zm.623 2.649h-.39c0-.078-.078-.156-.156-.233l.234-.468c.078-.234-.39-.467-.468-.234-.155.546-.7 1.091-1.168 1.403-.468.311-1.013.39-1.48.7-.156.157 0 .312.155.39.624.078 1.247-.233 1.87-.467.468-.156 1.325-.39 1.636-.78.156-.155-.078-.31-.233-.31zm1.48 3.35c0-.078-.234-.234-.312-.234h-.078c-.078-.078-.156-.077-.156-.077h-.311c.078-.078.155-.156.233-.156.156 0 .312-.078.078-.234l-.078-.078a.237.237 0 00-.311 0c-.78.545-1.48.857-2.415 1.09-.312.079-.701.079-.935.312-.156.156.234.312.312.312l1.636-.234a7.52 7.52 0 001.246-.39c.156 0 .312 0 .467-.077.234.156.468.156.78.156.233 0 .077-.312-.156-.39zm134.229-2.259c-.546-.156-1.091-.156-1.714-.078h-.39c-.311 0-2.804-.312-2.571-.467.234-.234-.233-.39-.389-.234l-.156.156c-.078.078-.078.156 0 .233l.39.39h-.312c-.078 0-.156.078-.156.078h-.156c-.156 0-.233.156-.233.234h-.156a.168.168 0 00-.156.155c-.156.078-.312.078-.467.156-.234.156-.078.39.155.39.468-.078 1.169-.078 1.558-.312.078 0 .078-.078.078-.078.468-.078.857-.078 1.325-.078.389 0 .779-.078 1.246-.156h1.948c.311 0 .389-.311.156-.389zm-.39-2.493c-1.246.078-2.493-.078-3.739-.312-.234 0-.468.156-.156.156.779.156 1.636.234 2.415.312-.156 0-.312.078-.467.078h-.078c0-.078-.312-.078-.39-.078h-.078s-.078-.078-.156-.078h-.779a.338.338 0 00-.233.078c-.078 0-.156.078-.234.156-.078.077.078.077.156.077-.468.078-.935.156-1.169.468 0 .078 0 .078.078.078.623.234 1.324-.078 1.87-.312.078 0 0-.078 0-.078.078 0 .233-.078.311-.078a4.6 4.6 0 001.091-.155c.467-.078 1.013-.156 1.48-.156.546-.078.234-.156.078-.156z" fill="#000"/><path d="M163.328 88.07c-.389-.155-.779-.155-1.168-.155-.078 0-.156 0-.156.078h-.078c-.312 0-.156.312.078.312h.935c.078 0 .155 0 .233.077.078 0 .234.078.312-.077 0-.156-.078-.234-.156-.234zm-.935 5.532c-.545 0-1.09-.156-1.636-.234-.389-.155-.701-.311-1.168-.311h-.078c-.156 0-.234-.078-.39-.078 0-.156.078-.39.234-.623.156-.234.39-.624.623-.701.234-.078.078-.546-.156-.468-.545.156-1.168 1.013-1.246 1.792h-.156c-.233 0-.234.311-.078.467 0 .078 0 .234.078.234 0 0 .078 0 .078.078a8.146 8.146 0 00-1.324.312c-.156.077-.156.233-.078.389a3.798 3.798 0 00-.857.312c-.234.078-.078.545.156.467 1.012-.312 2.181-.623 3.35-.779.857.156 1.947.156 2.492-.156.078 0 .078-.078.078-.078.39-.155.312-.623.078-.623z" fill="#000"/><path d="M159.978 95.238c-.467 0-1.012 0-1.48.078h-.389c-.156 0-1.247-.312-1.403-.234.156-.233-.311-.467-.467-.233l-.078.077v.156c-.234 0-.39 0-.623.078-.156 0-.234.156-.234.234-.389.078-.857.156-1.168.156-.312 0-.234.467.077.467.857-.078 1.792-.078 2.649-.156.39 0 .779-.078 1.169-.078.701.078 1.402 0 1.947-.078h.078c.312-.077.156-.467-.078-.467zm-2.103 1.48c-.623-.233-1.324 0-1.948 0-.857 0-1.714 0-2.571.078-.389-.078-.856-.156-1.246-.311-.312-.156-.39.233-.078.39 0 0 .078 0 .078.077-.078-.078-.078-.078-.156-.078h-1.246c-.078 0-.156.078-.156.078h-.312c-.311 0-.857-.078-1.09.078-.156.156 0 .39.233.39.39 0 .779-.078 1.247-.078h.156c.857 0 1.714-.078 2.57-.078h.234c.39.078.779.078 1.169.078 1.013 0 2.337.155 3.35-.078.155-.156-.078-.468-.234-.546zm6.31-7.634c-1.168.078-2.727.39-3.817-.312-.312-.156-.312.156-.078.312 1.168.779 2.804.545 4.129.39.234 0 0-.39-.234-.39zm.312 3.038c-1.325 0-2.727.078-4.051-.156v-.078c-.078 0-.156 0-.234-.078-.234-.078-.467-.078-.701-.155-.078 0-.468.233-.312.311h.078v.078h.234c1.558.468 3.194.39 4.83.312 0 .078.389-.234.156-.234z" fill="#000"/><path d="M161.069 91.888c-.623 0-1.324.078-1.948.078-.311 0-.233.39.078.39.623 0 1.325-.078 1.948-.078.311.078.233-.39-.078-.39z" fill="#000"/><path d="M163.328 92.2c-1.324-.078-2.649-.234-3.973-.312 0 0 .234.312.312.312 1.324.078 2.648.233 3.973.311 0 0-.156-.311-.312-.311z" fill="#000"/><path d="M163.874 92.044c-.702 0-1.403 0-2.182-.078-.623-.078-1.246-.234-1.87-.234-.155 0-.467.312-.311.312.623 0 1.246.156 1.87.234.701.078 1.402.078 2.181.078.078 0 .467-.312.312-.312zM30.813 93.758c-.078.312-.857.467-1.09.545l-.935.234c-.312.078-.234.234.078.234.545-.156 1.09-.234 1.636-.468.233-.078.7-.233.779-.545.077-.234-.39-.156-.468 0z" fill="#000"/><path d="M31.982 93.914c-.312 0-.624.078-.935.078-.312 0-.623.078-1.013.155-.311.078.078.39.234.312.311-.078.545-.156.857-.156.233 0 .545-.078.779-.078.39.078.311-.311.078-.311z" fill="#000"/><path d="M31.514 93.992h-.156c-.078-.078-.077-.078-.155-.078-.156 0-.312.078-.39.078 0 0 .078 0 .078.078-.234 0-.467.078-.701.078-.234 0-.546.077-.78.311 0 0 .39.312.39.234.156-.234.546-.234.78-.312.467-.078.856-.078 1.324-.156 0 0-.234-.233-.39-.233zm142.643-1.013c.935.156 1.947.234 2.882.39.156 0 .39-.234.468-.234-.857-.156-1.792-.234-2.649-.39-.467-.078-1.013-.312-1.558-.39-.545-.233-1.169-.545-1.714-.778-.078 0-.467.155-.467.233.233.39.701.623 1.012 1.013.312.39.468 1.013.857 1.324.078.078.468-.233.468-.155-.312-.234-.468-.624-.701-1.013.311.078.545.234.779.311.078 0 .467-.155.467-.233-.078-.078-.156-.156-.312-.156.234.078.312.078.468.078zm8.803-.389c-.312-.234-.623-.312-1.013-.468a2.07 2.07 0 00-.935-.234c-.155-.078-.311-.078-.467-.156-.312-.233-.701-.311-1.091-.545-.233-.156-.155.156-.078.234l.078.078c.312.234.624.39.935.545.156.078.39.234.545.468.156.155.234.233.39.311.234.078.078-.233-.078-.311.078.078.234.078.312.078.233.077.389.233.545.389.234.234.234-.078.078-.234h-.078.312c.078.078.233.078.311.156.546.078.312-.234.234-.311zm-3.895 8.179a1.242 1.242 0 00-.779-.623c.078 0 .156-.078.233-.078.234-.078.312-.39 0-.311-.545.155-1.09.311-1.713.389h-.935a37.03 37.03 0 00-1.247-.234c-.156 0-.545.234-.311.312a3.12 3.12 0 001.168.234c.468.078 1.013.233 1.48.311.546.078 1.247.39 1.87.312.078-.078.312-.234.234-.312zM80.672 76.385s-.234-.39-.312-.39c-.623-.155-1.324.157-1.947.312-.39.078-.702.156-1.091.156-.468 0-.857 0-1.324.078h-.624c-1.09 0-2.181-.078-3.272 0-.39.078-1.791.078-2.025.312 0 .078.078.156.234.311-.234 0-.39.078-.624.078-1.636.312-3.35.312-4.986.546-1.791.233-3.661.623-5.453.934 0 0 .234.39.312.39 1.791-.312 3.661-.701 5.453-.935 1.636-.234 3.35-.234 4.986-.545 1.792-.39 3.506-.546 5.375-.701.234 0 .39 0 .624-.078.623 0 1.246.078 1.87-.078.077 0 .155 0 .233-.078.935.156 1.792 0 2.57-.312zm82.033.39l-.078-.078c-.156-1.09-1.324-1.636-2.415-1.948-.078-.078-.234-.155-.312-.233-.311-.156-.701-.234-1.09-.39-.546-.234-1.169-.467-1.792-.779-.779-.39-1.636-.623-2.493-.857-1.091-.234-2.181-.779-3.272-.857 0 0-.234 0-.078.078.468.39 1.247.467 1.792.701 1.091.39 2.181.857 3.35 1.247.545.233 1.168.39 1.714.623.545.234 1.168.467 1.714.857.934.545 1.791 1.168 2.726 1.714-.078 0 .312.078.234-.078zm-6.856-3.584c.702.234 1.481.546 2.182.857-.156 0-.312-.078-.39-.078-.311-.156-.623-.233-.935-.39-.389-.155-.623-.233-1.012-.233h-.078c-.624-.234-1.169-.468-1.792-.701.701.156 1.402.311 2.025.545zm3.662 1.636h.078c.156.078.311.156.545.234.39.234.779.467 1.169.779-.312-.234-.701-.39-.935-.623-.078 0-.156-.078-.234-.078a2.332 2.332 0 00-.623-.312zm-118.804-.701c-.701 0-1.325.312-1.948.545-.156.078-.39.156-.545.234-.545.078-1.169.234-1.636.39-1.247.467-2.805.623-3.895 1.246-1.013.312-2.026.701-2.805 1.325 0 0 .39.233.468.155.7-.545 1.558-.935 2.493-1.246.857.156 1.714-.312 2.57-.546a88.752 88.752 0 014.285-1.246l-.311-.156c.623-.078 1.246-.233 1.791-.545-.078 0-.467-.156-.467-.156zm7.245-3.817v-.468l2.883-.467v.468l-.858.389 2.104 2.57 1.013-3.037-1.091-.078v-.468l2.57-.467v.467l-.7.312-1.402 3.817.389 2.415h.935v.468l-2.883.467v-.467l.78-.39-.39-2.181-2.649-3.194-.701-.156zm12.387 5.141a3.47 3.47 0 01-1.792-.233 2.75 2.75 0 01-1.324-1.169c-.39-.545-.546-1.168-.701-1.87-.078-.7 0-1.402.155-2.025.234-.623.623-1.09 1.091-1.48.545-.39 1.169-.623 1.948-.701.7-.078 1.324 0 1.87.311.545.312 1.012.701 1.324 1.247.311.545.545 1.168.623 1.87.078.7 0 1.324-.234 1.947s-.623 1.09-1.09 1.558c-.468.156-1.091.39-1.87.546zm-.78-7.01c-1.48.155-2.025 1.246-1.791 3.193.078.624.234 1.169.467 1.636.234.468.546.857.935 1.169.39.311.857.39 1.402.311.78-.078 1.325-.467 1.559-1.012.233-.546.311-1.247.233-2.104a6.467 6.467 0 00-.467-1.636c-.234-.545-.545-.935-.935-1.168a1.77 1.77 0 00-1.402-.39zm5.844-.39l-1.091-.156v-.468l3.116-.311v.467l-.935.312.312 3.583c.078.78.311 1.403.701 1.714.39.312.935.468 1.558.468.623-.078 1.013-.312 1.325-.701.311-.39.389-.935.311-1.714l-.312-3.74-1.09-.156v-.467l2.804-.234v.468l-.934.311.311 3.584c.078 1.09-.078 1.87-.467 2.415-.39.545-1.091.857-2.104 1.013-.857.078-1.558-.078-2.103-.39-.546-.39-.935-1.09-1.013-2.181l-.39-3.817zm11.374 5.609l-3.195.233v-.467l.935-.312-.311-5.687-1.013-.077v-.468c.545-.156 1.013-.234 1.402-.311.39-.078.857-.156 1.247-.156.935-.078 1.636.078 2.181.311.545.234.78.701.857 1.325 0 .233 0 .545-.156.779-.078.233-.311.545-.545.779-.234.233-.546.39-.857.545l1.168 1.402c.312.39.546.624.702.78.155.155.311.311.467.389.156.078.39.234.623.234l.234.078-.078.39c-.234.077-.467.155-.701.155-.468 0-.857-.078-1.169-.39-.39-.233-.7-.623-1.012-1.09l-1.013-1.558-1.013.078.156 2.415 1.09.155v.468zm-1.48-6.7l.155 3.116 1.169-.078c.311-.156.545-.311.779-.623.234-.234.311-.623.311-1.013 0-.311-.078-.623-.233-.857a1.443 1.443 0 00-.623-.545c-.234-.156-.546-.156-.857-.156-.156 0-.312 0-.468.078-.078.078-.156.078-.234.078zm7.946-.857l6.466-.156-.156 1.948-.546-.078-.233-1.325h-1.792l.156 6.077 1.09.156-.077.467-3.117.078v-.467l1.013-.312-.156-5.998h-1.714l-.311 1.402-.546-.078-.077-1.714zm7.401.312l.077-.468 5.765.078-.233 1.87-.468-.078-.233-1.246h-2.727v2.804h1.714l.233-.701.546-.078-.234 2.26-.467.077-.156-1.013h-1.558v2.805h2.882l.546-1.325.467.078-.156 1.792-5.92-.078.077-.467 1.013-.234.078-5.843-1.246-.233zm6.466 6.856l.078-.468.778-.234 2.26-2.805-1.87-3.038-.779-.311.078-.468 2.96.078-.078.468-.934.233 1.402 2.182 1.636-2.104-1.013-.233.078-.468 2.571.078-.078.467-.779.234-2.026 2.649 1.87 3.194.779.234-.078.467-2.96-.078.078-.39.935-.233-1.481-2.415-1.791 2.337.934.234-.078.467-2.492-.078zm8.18-7.012l6.466.39-.312 1.947-.545-.156-.156-1.324-1.792-.078-.389 5.998 1.09.234-.078.468-3.116-.234.078-.39 1.013-.233.389-5.999-1.714-.078-.389 1.402-.545-.078v-1.87zm9.738 1.168l.077-.467 3.117.312-.078.467-1.013.078-.312 2.57 3.662.39.234-2.493-1.013-.39.078-.467 3.194.312-.156.468-1.013.077-.623 5.921 1.013.312-.078.467-3.116-.312.078-.389 1.012-.156.312-2.726-3.662-.39-.311 2.727 1.013.311-.156.468-3.116-.312.078-.39 1.012-.155.624-5.843-.857-.39zm8.959 1.014l.155-.468 5.765.857-.467 1.792-.468-.156-.078-1.247-2.726-.39-.39 2.727 1.636.234.312-.623h.545l-.545 2.181h-.467l-.078-1.013-1.559-.233-.389 2.804 2.882.39.779-1.247.468.156-.468 1.792-5.842-.857.078-.39 1.012-.155.857-5.765-1.012-.39zm8.959 8.257l-3.117-.545.156-.39 1.013-.078 1.013-5.609-.935-.311.156-.468c.545 0 1.012 0 1.48.078.389 0 .857.078 1.246.156.935.156 1.636.39 2.026.779.467.39.623.857.545 1.48-.078.234-.156.468-.311.701a1.84 1.84 0 01-.702.624c-.311.155-.623.311-1.012.311l.779 1.636c.233.39.389.78.467.935.078.234.234.39.39.545.155.156.311.312.545.39l.156.078-.156.39h-.701c-.39-.079-.779-.312-1.091-.624-.311-.312-.545-.779-.701-1.324l-.623-1.792-1.013-.156-.39 2.337 1.013.468-.233.39zm.155-6.855l-.545 3.038 1.169.234c.311-.078.623-.156.934-.39.234-.234.468-.545.468-.857.078-.312.078-.623-.078-.857-.078-.234-.234-.467-.468-.701-.233-.156-.467-.312-.856-.39-.156 0-.312-.077-.468-.077h-.156zm5.609 1.012l.156-.39 5.687 1.17-.545 1.791-.468-.156v-1.246l-2.648-.546-.546 2.727 1.636.39.39-.624h.545l-.701 2.182h-.467v-1.013l-1.558-.312-.624 2.805 2.805.623.857-1.168.467.155-.545 1.714-5.765-1.246.156-.39 1.013-.078 1.246-5.765-1.091-.623zM94.85 56.987c-15.658 0-28.357-12.698-28.357-28.357C66.493 12.971 79.192.273 94.85.273c15.659 0 28.357 12.698 28.357 28.357 0 15.659-12.776 28.357-28.357 28.357zm0-55.234c-14.801 0-26.877 12.075-26.877 26.877S80.05 55.507 94.85 55.507c14.802 0 26.877-12.075 26.877-26.877S109.652 1.753 94.85 1.753z" fill="#000"/><path d="M67.039 29.487c-.468-1.792-1.87-3.74-4.207-3.661-2.415.078-4.519 1.713-3.818 4.05.624 2.104 2.883 3.428 5.064 2.26l.234-.234c0-.078.078-.078.078-.156.467-.857-.234-2.025-1.325-2.415-.779-.311-1.87-.467-2.648-.156-.156-.623-.078-1.402.311-1.791.156-.156.234-.234.156-.39.156-.078.234-.078.39-.156.934-.311 2.025-.39 2.96.078 2.026 1.09 2.415 3.817 2.181 5.687-.311 2.493-2.103 4.674-4.986 5.064-.155 0-.311 0-.467.078h-.078c-1.558-.156-3.194-.623-4.207-1.714-.857-.935-1.947-2.337-1.246-3.428.623-1.09-.312-.623-.623-.39-.702.546-.857 1.325-.935 2.104-.857-1.324-1.792-2.804-3.506-3.194-1.636-.39-3.584-.39-4.986.623-.156.156-.233.39-.156.468 0 .156.234.233.468.233 2.025 0 3.817.935 5.531 1.87 1.792 1.013 3.428 2.181 5.298 3.038 1.558.78 3.427 1.325 5.141 1.013 1.714-.312 3.584-1.324 4.519-2.727 1.168-1.791 1.402-4.128.857-6.154zm-3.74 1.09s.078 0 0 0c.078 0 .078 0 0 0z" fill="#000"/><path d="M52.704 41.328l-.078.078c-.078.078-.155.078-.233.234-.234.156-.468.545-.702 1.013-.077.234-.233.545-.311.857-.078.311-.078.701-.078 1.013.078.39.156.779.312 1.09.155.39.467.701.779 1.013.7.623 1.636 1.09 2.648 1.09.546 0 1.091-.077 1.558-.311.234-.078.468-.234.702-.39.078-.077.233-.155.311-.233l.312-.312c.857-.857 1.402-2.025 1.402-3.272 0-.623-.078-1.246-.312-1.87l-.233-.467-.234-.467c-.156-.312-.39-.546-.623-.78a5.951 5.951 0 00-2.181-1.557c-.858-.312-1.714-.546-2.571-.468-.857 0-1.714.234-2.415.546-.156.077-.39.155-.546.233-.155.078-.311.234-.545.312l-.935.7a8.714 8.714 0 00-2.26 3.507c-.389 1.168-.467 2.337-.389 3.272.156.857.468 1.947 1.169 3.038.701 1.09 1.636 2.181 2.96 3.038 1.325.857 2.883 1.48 4.675 1.636 1.791.156 3.661-.078 5.375-.935l.467-.233.468-.234c.156-.078.311-.156.467-.312l.234-.156.234-.155c.545-.39 1.09-.857 1.558-1.325a9.492 9.492 0 002.103-3.194c.468-1.168.701-2.337.857-3.428.156-1.09.234-2.181.312-3.116.078-1.947.156-3.505.156-4.596 0-1.09.077-1.714.077-1.714s.078.623.078 1.714c.078 1.09.156 2.649.234 4.596 0 1.013 0 2.026-.078 3.194a12.863 12.863 0 01-.779 3.662c-.467 1.246-1.168 2.57-2.181 3.583-.468.546-1.09 1.013-1.714 1.48l-.234.156-.234.156c-.155.078-.311.234-.467.312-.156.078-.312.233-.467.311-.156.078-.312.156-.546.234-1.947.935-4.05 1.247-5.998.935a10.26 10.26 0 01-4.986-2.025c-1.325-1.013-2.337-2.26-2.96-3.428-.624-1.169-.936-2.337-.936-3.272-.155-.935-.155-2.104.156-3.428.312-1.325 1.013-2.727 2.182-3.973.311-.312.623-.623 1.012-.857.156-.156.39-.234.546-.39.233-.078.39-.233.623-.311.857-.39 1.792-.701 2.804-.701 1.013-.078 2.026.155 3.039.545a6.106 6.106 0 012.57 1.87c.312.311.468.623.702.934.078.156.233.312.311.546.078.156.156.39.234.545.312.78.39 1.558.312 2.337-.078.78-.234 1.48-.546 2.182-.311.7-.779 1.246-1.246 1.713-.156.078-.234.234-.39.312-.155.078-.311.234-.39.312l-.934.467c-.623.234-1.324.312-1.948.312-1.246-.078-2.337-.623-3.038-1.403-.078-.078-.156-.233-.233-.311-.078-.078-.156-.234-.234-.312-.078-.078-.156-.233-.156-.311-.078-.078-.078-.234-.156-.312a9.693 9.693 0 01-.312-1.247c0-.856.234-1.48.546-1.947.311-.468.623-.78.857-.935.078-.078.233-.156.233-.156l.234-.233z" fill="#000"/><path d="M41.564 52.235s.078 0 .156-.078c.156-.078.311-.078.545-.156.234 0 .623 0 .935.156.156.078.311.234.467.39.156.156.312.39.39.623.156.467.156 1.09-.078 1.636-.234.545-.78 1.013-1.325 1.246-.623.312-1.246.39-1.947.39-.312 0-.701 0-1.09-.078-.39-.078-.702-.234-1.091-.39-.468-.233-.857-.7-1.091-1.09-.234-.468-.39-.935-.39-1.402a3.865 3.865 0 01.624-2.493c.39-.701.934-1.169 1.402-1.558a11.641 11.641 0 011.402-.702c.39-.155.857-.39 1.48-.467.624-.078 1.403 0 2.104.312.701.311 1.324.934 1.947 1.558.546.623 1.091 1.324 1.714 2.025.857 1.013 1.792 1.792 2.805 2.337 1.013.546 1.947.857 2.804.935.078 0 .234 0 .312.078h.312c.233 0 .39.078.545.078.312 0 .623.078.935 0h.779s-.312.078-.78.156c-.233.078-.544.078-.934.078h-1.169c-.934-.078-2.025-.234-3.116-.78-.545-.233-1.09-.623-1.636-1.012-.545-.39-1.013-.935-1.48-1.402a19.268 19.268 0 01-1.636-2.104c-.234-.311-.545-.623-.779-.857a3.457 3.457 0 00-.857-.623 3.843 3.843 0 00-1.792-.467c-.545 0-1.09.155-1.48.233-.39.156-.779.468-1.246.78a4.468 4.468 0 00-1.169 1.48 3.915 3.915 0 00-.39 2.103c.078.779.468 1.48 1.17 1.87.233.156.545.233.778.311.312.078.546.078.857.078.623 0 1.169-.078 1.636-.234.468-.155.935-.467 1.09-.856.234-.39.312-.857.157-1.247-.078-.156-.156-.39-.234-.467-.078-.156-.234-.234-.39-.312-.311-.156-.545-.234-.779-.234-.233 0-.467 0-.545.078.156.078.078.078.078.078z" fill="#000"/><path d="M41.096 52.78c0 .546.468.935.935.935.546 0 .935-.467.935-.935 0-.545-.467-.934-.935-.934-.545 0-.934.39-.934.934zm26.488-3.583s.078 0 .156-.078c.156-.078.311-.078.545-.156.234 0 .623 0 .935.156.156.078.311.234.467.39.156.155.312.389.39.623.156.467.156 1.09-.078 1.636-.234.545-.78 1.013-1.402 1.246-.624.234-1.247.39-1.948.39-.312 0-.701 0-1.09-.078-.39-.078-.702-.234-1.013-.39-.468-.311-.857-.7-1.091-1.09-.234-.468-.39-.935-.39-1.403-.078-.934.234-1.791.624-2.493a3.849 3.849 0 011.48-1.48c.545-.311 1.013-.545 1.402-.623.39-.156.857-.39 1.48-.467a4.1 4.1 0 012.104.311c.7.39 1.324.935 1.87 1.636.545.623 1.09 1.402 1.635 2.026.857 1.012 1.792 1.87 2.727 2.415 1.013.545 1.948.857 2.805 1.013.078 0 .233.077.311.077h.312c.234 0 .39.078.545.078.312 0 .623.078.935.078h.78s-.313.078-.78.156c-.234.078-.545.078-.935.078h-1.168c-.935-.078-2.026-.234-3.117-.78-.545-.233-1.09-.622-1.636-1.012-.545-.39-1.012-.935-1.402-1.48-.623-.701-1.09-1.48-1.636-2.103-.233-.312-.545-.624-.779-.857-.234-.312-.545-.468-.857-.702-.545-.39-1.168-.467-1.792-.467-.545 0-1.09.156-1.48.234-.39.155-.779.39-1.246.779-.468.39-.857.857-1.169 1.48a3.782 3.782 0 00-.39 2.103c.078.78.468 1.48 1.17 1.87.233.156.544.234.778.312.312.078.546.078.857.078.623 0 1.169-.078 1.714-.234.468-.156.935-.468 1.169-.857.233-.39.311-.857.233-1.169-.078-.155-.155-.39-.233-.545-.078-.156-.234-.234-.39-.39a1.504 1.504 0 00-.779-.233h-.545c0-.078-.078-.078-.078-.078z" fill="#000"/><path d="M67.117 49.664c0 .546.389.935.934.935.546 0 .935-.39.935-.935s-.39-.934-.935-.934-.934.467-.934.934zm56.403-14.023c.935 1.403 2.805 2.415 4.519 2.727 1.791.312 3.583-.234 5.141-1.013 1.87-.857 3.506-2.025 5.298-3.038 1.636-.935 3.506-1.87 5.531-1.87.234 0 .467-.078.467-.233a.375.375 0 00-.155-.468c-1.325-1.012-3.35-1.012-4.986-.623-1.714.467-2.649 1.87-3.506 3.194-.078-.779-.234-1.558-.935-2.103-.311-.234-1.246-.701-.623.39.701 1.09-.312 2.492-1.247 3.427-1.012 1.09-2.726 1.558-4.206 1.714h-.078c-.156 0-.312 0-.468-.078-2.882-.39-4.674-2.649-4.986-5.064-.233-1.948.156-4.596 2.182-5.687.935-.467 2.025-.39 2.96-.078.156.078.234.078.39.156 0 .156 0 .234.156.39.389.39.545 1.168.311 1.791-.779-.311-1.87-.155-2.649.156-1.09.468-1.791 1.558-1.324 2.415 0 .078.078.156.078.156 0 .078.078.234.234.234 2.181 1.168 4.44-.156 5.063-2.26.702-2.337-1.402-3.973-3.817-4.05-2.337-.078-3.661 1.87-4.207 3.661-.545 2.026-.311 4.363.857 6.154z" fill="#000"/><path d="M136.997 41.328l.077.078c.078.078.156.078.234.234.234.156.468.545.701 1.013.078.234.234.545.312.857.078.311.078.701.078 1.013-.078.39-.156.779-.312 1.09-.156.39-.467.701-.779 1.013-.701.623-1.636 1.09-2.649 1.09-.545 0-1.09-.077-1.558-.311-.233-.078-.467-.234-.701-.39-.078-.077-.233-.155-.311-.233l-.312-.312c-.857-.857-1.402-2.025-1.402-3.272 0-.623.078-1.246.311-1.87l.234-.467.234-.467c.156-.312.389-.546.623-.78a5.947 5.947 0 012.181-1.557c.857-.312 1.714-.546 2.571-.468.857 0 1.714.234 2.415.545.156.078.39.156.546.234.155.078.311.234.545.312l.935.7a8.726 8.726 0 012.259 3.507 8.345 8.345 0 01.389 3.272c-.155.857-.467 1.947-1.168 3.038-.701 1.09-1.636 2.181-2.96 3.038-1.325.857-2.883 1.48-4.675 1.636-1.792.156-3.661-.078-5.375-.935l-.468-.233-.467-.234a1.615 1.615 0 01-.467-.312l-.234-.156-.234-.155a12.715 12.715 0 01-1.558-1.325 9.482 9.482 0 01-2.103-3.194c-.468-1.168-.702-2.337-.857-3.428-.156-1.09-.234-2.181-.312-3.116-.078-1.947-.156-3.505-.156-4.596 0-1.09-.078-1.714-.078-1.714s-.078.623-.078 1.714c-.077 1.09-.155 2.649-.233 4.596 0 1.013 0 2.026.078 3.194.078 1.169.311 2.415.779 3.662.467 1.246 1.168 2.57 2.181 3.583.467.546 1.091 1.013 1.714 1.48l.234.156.233.156c.156.078.312.234.468.312.156.078.311.233.467.311.156.078.312.156.546.234 1.947.935 4.051 1.246 5.998.935a10.256 10.256 0 004.986-2.026c1.324-1.012 2.337-2.259 2.96-3.427.624-1.169.935-2.337.935-3.272.156-.935.156-2.104-.156-3.428-.311-1.325-1.012-2.727-2.181-3.973-.312-.312-.623-.623-1.013-.857-.155-.156-.389-.234-.545-.39-.234-.078-.39-.233-.623-.311-.857-.39-1.792-.702-2.805-.702-1.013-.077-2.025.156-3.038.546a6.104 6.104 0 00-2.571 1.87c-.312.311-.467.623-.701.934-.078.156-.234.312-.312.546-.078.156-.155.39-.233.545a4.865 4.865 0 00-.312 2.337c.078.78.234 1.48.545 2.181.312.702.779 1.247 1.247 1.714.156.078.234.234.389.312.156.078.312.234.39.312l.935.467c.623.234 1.324.312 1.947.312 1.247-.078 2.337-.623 3.039-1.403.078-.078.155-.233.233-.311.078-.078.156-.234.234-.312.078-.078.156-.233.156-.311.078-.078.078-.234.156-.312a9.83 9.83 0 00.311-1.247c0-.857-.233-1.48-.545-1.947-.312-.468-.623-.78-.857-.935a1.122 1.122 0 00-.234-.156l-.233-.233z" fill="#000"/><path d="M148.137 52.235s-.078 0-.156-.078c-.156-.078-.312-.078-.545-.156-.234 0-.624 0-.935.156-.156.078-.312.234-.468.39-.155.156-.311.39-.389.623a2.386 2.386 0 00.078 1.636c.234.545.779 1.013 1.324 1.246.623.312 1.247.39 1.948.39.311 0 .701 0 1.09-.078.39-.078.702-.234 1.091-.39.468-.233.857-.7 1.091-1.09.233-.468.389-.935.389-1.402a3.867 3.867 0 00-.623-2.493c-.389-.701-.935-1.169-1.402-1.558a11.742 11.742 0 00-1.402-.702c-.39-.155-.857-.39-1.481-.467a4.091 4.091 0 00-2.103.312c-.701.311-1.324.934-1.948 1.558-.545.623-1.09 1.324-1.714 2.025-.857 1.013-1.791 1.792-2.804 2.337-1.013.546-1.948.857-2.805.935-.078 0-.233 0-.311.078h-.312c-.234 0-.389.078-.545.078-.312 0-.623.078-.935 0h-.779s.311.078.779.156c.234.078.545.078.935.078h1.168c.935-.078 2.026-.234 3.116-.78.546-.233 1.091-.623 1.636-1.012.546-.39 1.013-.935 1.481-1.402a19.364 19.364 0 001.636-2.104c.233-.312.545-.623.779-.857a3.44 3.44 0 01.857-.623 3.84 3.84 0 011.791-.467c.546 0 1.091.155 1.481.233.389.156.779.468 1.246.78a4.48 4.48 0 011.169 1.48 3.92 3.92 0 01.389 2.103c-.078.779-.467 1.48-1.168 1.87-.234.155-.546.233-.779.311-.312.078-.546.078-.857.078-.624 0-1.169-.078-1.636-.234-.468-.155-.935-.467-1.091-.856-.234-.39-.312-.857-.156-1.247.078-.156.156-.39.234-.467.078-.156.234-.234.389-.312.312-.156.546-.234.779-.234.234 0 .468 0 .546.078-.156.078-.078.078-.078.078z" fill="#000"/><path d="M148.682 52.78c0 .546-.467.935-.935.935-.545 0-.935-.467-.935-.935 0-.545.468-.934.935-.934.546 0 .935.39.935.934zm-26.565-3.583s-.078 0-.156-.078c-.156-.078-.312-.078-.545-.156-.234 0-.624 0-.935.156-.156.078-.312.234-.468.39a1.697 1.697 0 00-.389.623 2.386 2.386 0 00.078 1.636c.234.545.779 1.013 1.402 1.246.623.234 1.247.39 1.948.39.311 0 .701 0 1.09-.078.39-.078.702-.234 1.013-.39.468-.311.857-.7 1.091-1.09.234-.468.389-.935.389-1.403.078-.934-.233-1.791-.623-2.493a3.847 3.847 0 00-1.48-1.48c-.545-.311-1.013-.545-1.402-.623-.39-.156-.857-.39-1.481-.467a4.091 4.091 0 00-2.103.311c-.701.39-1.324.935-1.87 1.636-.545.623-1.09 1.402-1.636 2.026-.857 1.012-1.791 1.87-2.726 2.415-1.013.545-1.948.857-2.805 1.013-.078 0-.234.077-.311.077h-.312c-.234 0-.39.078-.545.078-.312 0-.624.078-.935.078h-.779s.311.078.779.156c.233.078.545.078.935.078h1.168c.935-.078 2.026-.234 3.116-.78.546-.233 1.091-.622 1.636-1.012.546-.39 1.013-.935 1.403-1.48.623-.701 1.09-1.48 1.636-2.103.233-.312.545-.624.779-.857.233-.312.545-.468.857-.702.545-.39 1.168-.467 1.791-.467.546 0 1.091.156 1.481.234.389.155.779.39 1.246.779.467.39.857.857 1.169 1.48.311.623.467 1.324.389 2.103-.078.78-.467 1.48-1.169 1.87-.233.156-.545.234-.779.312-.311.078-.545.078-.856.078a6.07 6.07 0 01-1.714-.234c-.468-.156-.935-.468-1.169-.857-.234-.39-.312-.857-.234-1.169.078-.155.156-.39.234-.545.078-.156.234-.234.39-.39a1.5 1.5 0 01.779-.233h.545c0-.078.078-.078.078-.078z" fill="#000"/><path d="M122.662 49.664c0 .546-.389.935-.935.935-.545 0-.935-.39-.935-.935s.39-.934.935-.934c.546 0 .935.467.935.934zM94.85 55.117c-14.568 0-26.487-11.84-26.487-26.487 0-14.568 11.841-26.487 26.487-26.487 14.646 0 26.488 11.841 26.488 26.487 0 14.568-11.92 26.488-26.488 26.488zm0-52.507c-14.334 0-26.02 11.686-26.02 26.02 0 14.335 11.686 26.02 26.02 26.02 14.335 0 26.02-11.685 26.02-26.02 0-14.334-11.685-26.02-26.02-26.02z" fill="#000"/><path d="M104.978 38.446c-.623.312-1.402.468-2.337.468-1.247 0-2.182-.234-2.883-.78-.7-.545-1.168-1.402-1.402-2.648l-.545-3.116c-.156-1.013-.39-1.87-.546-2.493-.233-.624-.467-1.091-.857-1.48-.39-.39-.856-.546-1.48-.546h-2.025v7.245c0 .78.078 1.403.155 1.714.078.39.312.623.624.701.311.156.857.234 1.558.234v.623c-1.09-.078-2.727-.078-4.752-.078-2.26 0-3.895 0-4.986.078v-.623c.701 0 1.168-.078 1.558-.234.311-.156.545-.39.623-.7.156-.39.156-.936.156-1.715V19.438c0-.78-.078-1.403-.156-1.714-.156-.39-.312-.624-.623-.702-.312-.155-.857-.233-1.558-.233v-.623c1.09.077 2.649.077 4.83.077h4.908c2.882 0 5.064.468 6.544 1.403 1.48.934 2.181 2.337 2.181 4.05 0 .935-.234 1.792-.701 2.65-.467.856-1.169 1.558-2.259 2.18-1.09.624-2.493 1.014-4.207 1.247 1.246.078 2.337.312 3.116.623.779.312 1.48.78 1.948 1.325.467.545.779 1.324.935 2.181l.701 3.272c.156.857.389 1.48.623 1.792.234.312.545.467.935.467.234 0 .467-.078.623-.155.156-.078.39-.312.623-.546l.468.39c-.546.623-1.169 1.09-1.792 1.324zm-8.024-11.92c.7-.467 1.09-1.09 1.402-1.791.234-.78.39-1.636.39-2.727 0-1.714-.312-3.038-.935-3.895-.624-.857-1.636-1.324-2.96-1.324-.546 0-1.013.078-1.247.233-.234.156-.468.39-.546.78a8.596 8.596 0 00-.155 1.713v7.79h1.324c1.09-.077 2.026-.31 2.727-.778z" fill="#000"/></svg>