<svg width="138" height="116" fill="none" xmlns="http://www.w3.org/2000/svg"><path d="M67.675 15.412c-.078-.39-.156-.702-.234-1.013-.078-.312-.234-.623-.39-.935-.156-.312-.311-.701-.623-.935-.234-.312-.467-.467-.779-.701a3.826 3.826 0 00-1.947-.779c-.312-.078-.702-.078-1.091 0-.312.078-.701.078-1.013.234-.701.233-1.324.7-1.636 1.402-.39.623-.467 1.402-.39 2.103a3.314 3.314 0 001.091 1.792c.312.156.623.312.935.39.312.078.78 0 1.013-.234.233-.234.39-.468.467-.78.156-.233.234-.389.234-.544.078-.234.078-.468.078-.702-.078-.311-.234-.467-.468-.623a.665.665 0 00-.545 0c-.078.078-.234.156-.234.312-.078.234-.156.467-.078.701.078.312.156.545.234.857l-.156.156c-.155.155-.311.233-.39.233-.077 0-.31 0-.467-.077a.595.595 0 01-.39-.156c-.778-.701-.856-2.026-.31-2.883.31-.467.7-.7 1.246-.857.233-.078.545-.155.779-.155.233 0 .545 0 .779.078.545.077 1.013.311 1.48.623.156.155.467.39.623.545.156.234.312.39.39.623.078.234.234.546.311.857.078.312.156.545.234.78v.778c0 .156 0 .312-.078.39 0 .156-.078.233-.078.39l-.156.467c-.077.156-.077.311-.155.39-.078.233-.312.467-.468.778l-.078.234-.078.156c-.078.156-.155.234-.233.39-.156.233-.39.545-.546.778-.078.156-.155.234-.233.39-.078.078-.156.234-.234.39l-.545.779c-.312.545-.78.934-1.247 1.324-.156.156-.39.311-.545.467-.156.078-.234.156-.39.234-.155.156-.311.234-.545.39-.156.077-.312.233-.468.311-.7.312-1.635.623-2.726.857-.78.156-1.714.234-2.649.312-.935.078-2.025.078-3.116.078-1.09 0-2.26-.078-3.506 0h-1.869c-.312 0-.624.077-.935.077h-.468c-.156 0-.311.078-.467.078-.156 0-.312.078-.468.078l-.233.078c-.078 0-.156 0-.234.078l-.935.234-.233.078-.234.078c-.156.077-.312.077-.468.155-.156.078-.311.078-.467.156l-.234.078-.233.078c-.312.078-.546.234-.857.312l-.234.078-.234.078c-.156.077-.312.155-.39.155-.155.078-.233.156-.389.156-.156.078-.234.156-.39.156-.233.156-.545.234-.779.39-.155.077-.233.155-.389.233-.156.078-.234.156-.39.234-.233.156-.467.311-.7.39-.234.155-.468.311-.624.467-.078.078-.234.156-.312.233-.077.078-.233.156-.311.234-.234.156-.39.312-.623.468-.156.155-.39.311-.546.467a3.388 3.388 0 01-.545.468l-.234.233c-.078 0-.078.078-.156.078l-.078.078c-.311.312-.623.545-.856.857-.234.312-.546.545-.701.779-.234.234-.468.468-.624.701-.156.234-.39.39-.545.623-.312.468-.545.78-.701.935-.312.156-.623.39-.935.623-.623.39-1.247.857-1.87 1.247-1.168.701-2.649 1.246-3.973 1.636l-2.103.467c-.234.078-.546.078-.78.156-.467 0-.934.078-1.402.156-.7.078-1.324 0-1.947-.234a5.802 5.802 0 01-1.87-.857c-.312-.156-.545-.39-.779-.623-.078-.078-.156-.234-.234-.39l-.233-.467c-.234-.623-.234-1.246-.078-1.87a2.874 2.874 0 011.324-1.402c.545-.311 1.247-.467 2.026-.467.7 0 1.402.233 1.713.857.234.39.234.934.156 1.48 0-.078-.078-.078-.078-.078-.155-.156-.311-.234-.545-.156-.312.078-.39.468-.39.701 0 .312.234.623.624.546a.586.586 0 00.39-.546v-.078c.233-.623.389-1.246.155-1.87-.156-.389-.467-.7-.857-.934-.39-.234-.779-.312-1.168-.39-.78-.078-1.636 0-2.338.39-.779.39-1.402.935-1.791 1.714-.39.779-.312 1.714-.078 2.493.078.233.155.39.233.623.078.234.234.39.39.545.312.312.623.623.935.857.701.39 1.402.78 2.181 1.013-2.025 1.013-3.74 2.493-5.687 3.661-2.181 1.325-5.843 2.415-7.712 0-1.013-1.324-.935-3.35.779-4.05.623-.234 1.324-.312 1.947.077 1.091.701.857 1.87.078 2.415-.078 0-.078-.078-.156-.156-.155-.155-.311-.389-.545-.545-.156-.078-.234-.156-.467-.156-.156 0-.312 0-.468.078-.156 0-.39.234-.467.39a.665.665 0 000 .545c0 .156.156.312.233.468l.156.155.078.078.078.078c.312.234.701.234.935.078.156-.078.312-.078.39-.156.7-.078 1.324-.39 1.48-1.168.233-1.013-.39-2.104-1.247-2.571-2.181-1.169-4.44 1.168-3.973 3.35.701 3.116 4.519 3.583 7.09 2.648 1.947-.7 3.66-2.025 5.375-3.194.779-.545 1.791-1.246 2.882-1.791.545.078 1.169.155 1.714.078.78-.078 1.558-.234 2.26-.312.778-.156 1.48-.312 2.258-.545a37.894 37.894 0 002.182-.78c.39-.155.701-.311 1.013-.467.311-.156.7-.39 1.012-.623-.078.156-.233.311-.311.467a9.472 9.472 0 00-1.402 2.805 5.399 5.399 0 00-.234 1.558c0 .545.078 1.013.311 1.558.156.467.468.935.78 1.246.311.39.623.702 1.012.935.156.156.39.234.546.39.077.078.233.078.311.156.078.078.234.078.312.155.39.156.779.312 1.246.39.078 0 .234 0 .312.078h1.558c.078 0 .156 0 .311-.078.078 0 .156-.078.312-.078h.156l.156-.078c.078 0 .156-.078.233-.078.078 0 .156-.078.234-.078.078 0 .156-.078.234-.078.312-.155.623-.311.857-.545.234-.156.467-.39.701-.623.234-.234.312-.468.467-.78.078-.233.156-.544.078-.778v-.156c0-.078 0-.156-.078-.156 0-.078-.078-.233-.078-.311-.155-.39-.467-.78-.779-.935-.155-.078-.311-.156-.467-.156-.156 0-.312 0-.39.078-.077.078-.233.078-.233.156-.078 0-.234 0-.312.078-.311.155-.467.545-.311.857.155.311.545.467.857.311.311-.156.467-.545.311-.857-.078-.233-.311-.311-.467-.39.078 0 .156-.077.233-.077.078 0 .234-.078.39-.078s.311.078.39.156c.233.155.467.467.623.857.155.39.155.857 0 1.324a1.211 1.211 0 01-.468.623c-.155.156-.39.39-.623.545-.234.156-.545.312-.779.468-.078 0-.156.078-.234.078-.078 0-.156.078-.233.078-.078 0-.156.078-.234.078h-.312c-.078 0-.156 0-.233.078h-1.325c-.078 0-.156 0-.234-.078-.078 0-.155-.078-.233-.078-.39-.078-.701-.234-1.09-.39-.079-.078-.157-.078-.235-.156-.078-.078-.155-.078-.233-.155-.156-.078-.312-.234-.468-.312a4.462 4.462 0 01-.857-.857c-.233-.312-.467-.701-.545-1.09a3.92 3.92 0 01.078-2.493c.234-.857.779-1.714 1.324-2.493l.935-1.169c.078-.078.156-.156.234-.312.078-.078.156-.156.311-.233.078-.078.156-.156.312-.234.078-.078.156-.156.312-.234.779-.7 1.636-1.246 2.57-1.792 1.87-1.012 4.051-1.791 6.31-2.415.546-.155 1.091-.311 1.715-.467a13.57 13.57 0 011.713-.39c.546-.155 1.091-.311 1.636-.39.234-.077.546-.155.78-.233-.078 0-.078.078-.156.156-.39.312-.78.623-1.09 1.013l-.157.156-.156.155a1.075 1.075 0 00-.233.312c-.078.078-.156.234-.234.312 0 .078-.078.078-.078.155 0 .078-.078.078-.078.156s-.078.078-.078.156-.078.078-.078.156c-.078.078-.155.233-.155.312-.078.077-.078.233-.156.311-.078.078-.078.234-.156.312 0 .078-.078.078-.078.155 0 .078-.078.078-.078.156s-.078.078-.078.156 0 .078-.078.156c0 .078-.078.234-.078.312 0 .077 0 .078-.078.155 0 .078 0 .078-.077.156v.312c0 .078 0 .233-.078.311v.624c0 .233 0 .39.078.623 0 .234.078.39.156.623.233.78.623 1.402 1.168 1.87.234.233.545.39.857.545.312.156.545.234.857.312.234.078.545.078.779.078h.779c.234-.078.545-.156.78-.234.233-.078.466-.234.7-.312.39-.233.78-.545 1.169-.857.155-.155.311-.311.467-.545.078-.078.156-.156.234-.311 0-.078.078-.078.078-.156s.078-.078.078-.156.078-.078.078-.156.078-.078.078-.156v-.156c0-.078.077-.078.077-.155 0-.078.078-.078.078-.156v-.156c0-.078 0-.078.078-.156 0-.078 0-.078.078-.156v-.311c0-.078 0-.234.078-.312v-1.091c0-.077 0-.077-.078-.155v-.156c0-.078 0-.078-.078-.156 0-.078-.078-.078-.078-.156V35.9c0-.078-.078-.078-.078-.155 0-.078-.078-.078-.078-.156l-.077-.078-.078-.078-.078-.078-.078-.078-.078-.078-.078-.078-.078-.078-.078-.077-.078-.078h-.078l-.078-.078-.077-.078h-.156s-.078 0-.078-.078c0 0-.078 0-.078-.078-.078 0-.156-.078-.234-.078-.311-.078-.623-.078-.857-.078-.311 0-.545.156-.7.234-.234.078-.39.234-.546.39l-.078.077-.078.078-.078.078c-.078.078-.078.156-.156.156 0 .078-.078.156-.078.156v.078a.834.834 0 00-.077 1.09.972.972 0 001.246.234.972.972 0 00.234-1.246c-.234-.312-.623-.468-.935-.312l.078-.078.078-.078.078-.078h.078c.155-.078.311-.233.467-.311.156-.078.39-.156.623-.156.234 0 .468 0 .701.078.078 0 .156 0 .156.078 0 0 .078 0 .078.078 0 0 .078 0 .078.078h.156s.078 0 .078.077l.078.078h.155l.078.078.078.078h.078v.078l.078.078.078.078v.156l.078.078s0 .077.078.077v.156s0 .078.078.078v.857c0 .701-.156 1.402-.624 2.103 0 .078-.078.078-.078.156s-.078.078-.078.156c-.077.078-.155.156-.155.234-.156.156-.234.311-.39.467a5.002 5.002 0 01-1.013.78c-.155.077-.389.233-.623.31-.233.079-.39.157-.623.157h-.623c-.234 0-.468 0-.623-.078l-.702-.234c-.233-.078-.467-.234-.7-.467-.234-.156-.39-.39-.546-.702-.078-.077-.078-.155-.156-.233-.078-.078-.078-.156-.078-.234-.078-.156-.156-.312-.156-.467-.078-.156-.078-.312-.155-.546 0-.155-.078-.39-.078-.545v-1.48c0-.078.078-.234.078-.312 0-.078 0-.078.078-.156 0-.078 0-.078.077-.155 0-.078 0-.078.078-.156 0-.078 0-.078.078-.156s.078-.234.156-.312c.078-.078.078-.155.156-.311.078-.078.078-.156.156-.312 0-.078.078-.078.078-.156s.077-.078.077-.155c0-.078.078-.078.078-.156s.078-.078.078-.156c.078-.078.156-.156.156-.234l.234-.233c0-.078.078-.078.078-.156s.078-.078.078-.156c.311-.312.623-.623 1.012-.935.078-.078.156-.156.312-.234l.156-.078.156-.078c.077-.077.155-.155.311-.233.078-.078.156-.156.312-.234a101.34 101.34 0 005.765-1.714l.7-.233c.235-.078.468-.156.702-.312.39-.156.857-.312 1.246-.468h.702c.311 0 .545.078.779.234l.779.39c.545.233 1.09.467 1.558.7 1.012.546 2.103 1.014 3.35 1.325 1.168.312 2.493.234 3.583-.311 2.415-.857 3.272-4.675 1.013-6.233-.623-.233-1.246-.233-1.87-.078-.623.156-1.168.624-1.402 1.169-.156.234-.234.623-.234.935 0 .311.234.623.39.857.233.233.467.39.779.467.312.078.545.156.857.234-.545-.234-1.169-.39-1.48-.857-.156-.234-.312-.468-.312-.78 0-.233.078-.545.234-.778.545-1.013 1.947-1.247 2.882-.78.468.234.701.702.857 1.247.156.546.156 1.09.078 1.636-.078.546-.312 1.013-.623 1.48-.312.39-.857.701-1.325.935-1.012.468-2.18.623-3.272.312-1.09-.234-2.18-.78-3.271-1.169-.546-.233-1.091-.467-1.636-.623l-.857-.312c-.312-.078-.624-.155-.935-.155h-.078c.7-.312 1.48-.624 2.103-.935 1.636-.78 3.116-1.714 4.44-2.571 1.247-.935 2.338-1.87 3.195-2.805.234-.233.39-.467.545-.7 0-.079.078-.079.078-.157.078-.155.234-.233.312-.39.156-.233.311-.466.545-.7.078-.156.234-.234.312-.39.078-.078.078-.156.155-.233l.156-.234c.156-.234.312-.468.546-.857.078-.234.155-.312.233-.467l.156-.468c.078-.156.156-.39.156-.545.078-.156.078-.39.078-.546v-.545c-.623-.078-.623-.234-.623-.467zm-5.298-.39c0-.156 0-.312.078-.467l.156-.156h.078c.078.078.155.234.155.312 0 .155 0 .311-.077.467-.078.156-.156.39-.234.467l-.156.156c.078-.312.078-.545 0-.779zm-58.74 27.89c0-.078 0-.078.078-.078s.234-.078.312-.078c.078 0 .156 0 .234.078.233.078.39.234.623.39h.078c-.312.155-.624.155-1.013.077h-.234c-.078-.078-.078-.156-.078-.233 0 0-.078-.078 0-.156zm53.365-16.516l-2.104.701c-.467.156-.935.312-1.324.39l-1.402.467-1.403.468c-.467.155-.934.311-1.402.545-.234.078-.467.156-.701.312-.078.078-.234.078-.312.155-.078.078-.233.078-.311.156-.078.078-.156.078-.312.156l-2.805.701c-1.09.234-2.18.546-3.272.78-.545.155-1.09.233-1.713.389-.546.155-1.169.311-1.714.467-2.337.623-4.597 1.402-6.544 2.57-.468.313-1.013.624-1.48.936-.234.078-.468.233-.701.39.155-.157.389-.39.7-.702.156-.156.39-.311.546-.545.234-.156.467-.39.701-.623.234-.234.545-.468.78-.702l.934-.7c1.324-1.013 2.96-2.104 4.986-3.039.234-.078.467-.234.779-.311.156-.078.234-.078.39-.156.155-.078.233-.078.389-.156s.234-.078.39-.156l.233-.078.234-.078a3.84 3.84 0 00.857-.311l.233-.078.234-.078c.156-.078.312-.078.468-.156.155-.078.311-.078.467-.156l.234-.078.234-.078.934-.233c.078 0 .156 0 .234-.078h.234c.156 0 .311-.078.467-.078.156 0 .312-.078.468-.078h.467c.312 0 .623-.078.935-.078h.935c.311 0 .623-.078.857-.078 1.168-.078 2.337-.078 3.505-.156 1.091-.078 2.182-.155 3.195-.311.779-.078 1.48-.234 2.18-.39-.544 0-.622.078-.7.078zm13.243-10.361v.545c0 .156.078.312.078.546 0 .155.156.389.156.545l.156.467c.078.156.078.234.234.468.156.311.39.623.545.857l.156.233c.078.078.078.156.156.234.078.156.233.312.311.39.234.233.39.467.546.7.078.157.155.234.311.39 0 .078.078.078.078.156.156.234.39.468.545.701.78.935 1.87 1.87 3.195 2.805 1.246.935 2.804 1.791 4.44 2.57l2.103.935h-.077c-.312 0-.624.078-.935.156l-.857.312c-.546.234-1.09.39-1.636.623-1.09.468-2.104.935-3.272 1.169-1.09.233-2.26.155-3.272-.312-.468-.234-1.013-.545-1.325-.935-.39-.39-.545-.935-.623-1.48-.078-.545-.078-1.09.078-1.636.156-.545.39-1.013.857-1.247.935-.467 2.337-.155 2.883.78.155.233.233.467.233.779 0 .233-.156.545-.311.779-.312.467-.935.545-1.48.857.311-.078.545-.156.856-.234.312-.078.546-.234.78-.467.233-.234.389-.468.389-.858 0-.311-.078-.623-.234-.934-.311-.546-.857-1.013-1.402-1.169-.623-.156-1.246-.156-1.87.078-2.259 1.558-1.48 5.297 1.013 6.232 1.09.546 2.415.624 3.584.312 1.168-.312 2.259-.78 3.35-1.324.545-.234 1.09-.468 1.558-.701l.779-.39c.233-.078.545-.156.779-.234h.7c.39.156.78.312 1.247.468.234.078.468.155.701.311l.701.234c1.792.623 3.74 1.247 5.765 1.714.078.078.156.156.312.234.078.078.156.155.312.233l.156.078.155.078c.078.078.156.156.312.234.39.311.701.623 1.013.935 0 .078.078.078.078.155 0 .078.077.078.077.156l.234.234c.078.078.156.156.156.234 0 .078.078.078.078.156 0 .077.078.077.078.155s.078.078.078.156.078.078.078.156c.078.078.078.156.155.312.078.078.078.155.156.311.078.078.078.234.156.312 0 .078 0 .078.078.156 0 .078 0 .078.078.155 0 .078 0 .078.078.156 0 .078 0 .078.078.156 0 .078.078.234.078.312v1.48c0 .156 0 .39-.078.545 0 .156-.078.312-.156.545-.078.156-.078.312-.156.468 0 .078-.078.156-.078.234-.078.078-.078.155-.156.233-.155.234-.39.468-.545.701l-.701.468-.701.234c-.234.078-.468.078-.624.078h-.623c-.234 0-.39-.078-.623-.156a2.332 2.332 0 01-.623-.312 4.999 4.999 0 01-1.013-.779c-.156-.156-.312-.311-.39-.467-.077-.078-.155-.156-.155-.234 0-.078-.078-.078-.078-.156s-.078-.078-.078-.156a3.657 3.657 0 01-.623-2.103v-.856s0-.078.078-.078v-.156s0-.078.078-.078l.077-.078v-.155l.078-.078.078-.078v-.078h.078l.078-.078.078-.078h.156l.078-.078s.078 0 .078-.078h.155s.078 0 .078-.078c0 0 .078 0 .078-.078.078 0 .156-.077.156-.077.234-.078.467-.078.701-.078.234 0 .468.078.623.156.156.077.312.155.468.311h.078l.078.078.077.078.078.078c-.311-.078-.7 0-.934.311-.312.39-.156.935.233 1.247.39.312.935.156 1.247-.234.233-.39.233-.857-.078-1.09v-.078c0-.078-.078-.078-.078-.156a.168.168 0 00-.156-.156l-.078-.078-.078-.078-.078-.078c-.156-.155-.311-.233-.545-.39-.234-.077-.467-.233-.701-.233-.312 0-.545 0-.857.078-.078 0-.156 0-.234.078 0 0-.078 0-.078.078 0 0-.078 0-.078.078h-.155l-.078.078-.078.078h-.078l-.078.077-.078.078-.078.078-.078.078-.078.078-.078.078-.077.078-.078.078-.078.078c0 .078-.078.078-.078.155 0 .078-.078.078-.078.156v.156c0 .078-.078.078-.078.156s0 .078-.078.156v.156c0 .077 0 .077-.078.155v1.091c0 .078 0 .234.078.312v.311c0 .078 0 .078.078.156 0 .078 0 .078.078.156v.156c0 .077.078.077.078.155s.078.078.078.156v.156c0 .078.078.078.078.156s.078.078.078.156.078.078.078.156c0 .077.077.077.077.155.078.078.156.156.234.312.156.156.312.39.468.545.311.312.7.623 1.168.857.234.156.468.234.701.312.234.078.468.156.78.233h.778c.234 0 .546 0 .78-.077.233-.078.545-.156.856-.312.312-.156.546-.312.857-.545.546-.468.935-1.091 1.169-1.87.078-.156.078-.39.156-.623 0-.234.078-.39.078-.624v-.623c0-.078 0-.233-.078-.311v-.312c0-.078 0-.078-.078-.156 0-.078 0-.078-.078-.156 0-.078-.078-.233-.078-.311 0-.078 0-.078-.078-.156 0-.078 0-.078-.078-.156s-.078-.078-.078-.156 0-.078-.078-.156c-.078-.077-.078-.233-.156-.311-.077-.078-.077-.234-.155-.312-.078-.078-.078-.233-.156-.311 0-.078-.078-.078-.078-.156s-.078-.078-.078-.156-.078-.078-.078-.156-.078-.078-.078-.156a1.075 1.075 0 01-.233-.311 1.077 1.077 0 01-.234-.312c0-.078-.078-.078-.156-.156l-.156-.155c-.311-.39-.701-.702-1.09-1.013l-.156-.156c.233.078.545.156.779.234.545.156 1.09.311 1.636.39.545.155 1.09.31 1.714.389.545.156 1.09.311 1.714.467 2.259.623 4.362 1.403 6.31 2.415.935.546 1.792 1.09 2.571 1.792.078.078.233.156.311.234.078.078.156.155.312.233.078.078.156.156.311.234.078.078.156.156.234.312.312.39.701.779.935 1.168.623.78 1.091 1.636 1.324 2.493.312.857.312 1.714.078 2.493-.155.39-.311.78-.545 1.09a4.462 4.462 0 01-.857.858c-.156.156-.312.233-.467.311-.078.078-.156.078-.234.156-.078.078-.156.078-.234.156a4.498 4.498 0 01-1.09.39c-.078 0-.156.078-.234.078-.078 0-.156 0-.234.077h-1.324c-.078 0-.156 0-.234-.078h-.312c-.078 0-.155-.077-.233-.077-.078 0-.156-.078-.234-.078-.078 0-.156-.078-.234-.078-.311-.156-.545-.234-.779-.468-.233-.155-.467-.311-.623-.545-.156-.234-.312-.39-.467-.623-.234-.468-.156-.935 0-1.325.155-.39.389-.7.623-.857.156-.078.233-.155.389-.155s.234 0 .39.078c.078 0 .156.077.234.077-.234 0-.39.156-.468.39-.156.312 0 .701.312.857.311.156.701 0 .857-.312.155-.311 0-.7-.312-.857-.078-.078-.234-.078-.312-.078-.077-.078-.155-.077-.233-.155-.078-.078-.234-.078-.39-.078s-.311.078-.467.156c-.312.155-.546.545-.779.934-.078.078-.078.234-.078.312 0 .078 0 .156-.078.156v.156c0 .233 0 .545.078.779.078.233.234.545.467.779.234.233.468.467.701.623.234.156.546.39.857.545.078 0 .156.078.234.078.078 0 .156.078.234.078.078 0 .156.078.233.078l.156.078h.156c.078 0 .156.078.312.078.078 0 .156 0 .311.078h1.558c.078 0 .234 0 .312-.078.39-.078.779-.156 1.247-.39.077-.078.233-.078.311-.156.078-.077.234-.077.312-.155.156-.078.389-.234.545-.39.39-.234.701-.545 1.013-.935.311-.39.545-.779.779-1.246.156-.468.311-1.013.311-1.558 0-.546-.077-1.09-.233-1.558a9.465 9.465 0 00-1.403-2.805c-.077-.156-.233-.312-.311-.467.311.233.623.39 1.013.623.311.156.701.312 1.012.467.702.312 1.403.546 2.182.78.779.233 1.48.389 2.259.545.701.156 1.48.311 2.259.311.545 0 1.169 0 1.714-.078 1.091.546 2.103 1.247 2.883 1.792 1.635 1.169 3.427 2.493 5.375 3.194 2.571.935 6.388.468 7.089-2.648.468-2.182-1.792-4.519-3.973-3.35-.857.467-1.558 1.558-1.246 2.57.155.78.779 1.091 1.48 1.17.156.077.234.155.389.155.234.078.623.078.935-.078l.078-.078.078-.078.156-.156c.156-.155.233-.311.233-.467 0-.156.078-.312 0-.545-.077-.234-.311-.39-.467-.39-.156-.078-.312-.078-.467-.078-.156 0-.312.078-.468.156-.234.156-.389.39-.545.545l-.156.156c-.779-.545-1.013-1.714.078-2.415.623-.39 1.324-.39 1.948-.078 1.636.701 1.791 2.727.779 4.051-1.87 2.415-5.61 1.325-7.713 0-1.948-1.168-3.661-2.648-5.687-3.661a7.918 7.918 0 002.181-1.013c.312-.234.702-.468.935-.857.156-.156.234-.39.39-.545a5.21 5.21 0 00.233-.624c.234-.779.312-1.713-.077-2.492-.39-.78-1.013-1.403-1.792-1.714-.779-.312-1.558-.39-2.337-.39-.39.078-.779.156-1.169.39-.389.233-.701.545-.857.934-.234.702-.078 1.325.156 1.87v.078c.078.234.156.468.389.545.39.078.546-.233.624-.545 0-.312-.078-.623-.39-.701-.234-.078-.389 0-.545.156-.078 0-.078.078-.078.078-.078-.546-.078-1.013.156-1.48.311-.624 1.09-.857 1.714-.857.701 0 1.402.155 2.025.467.545.312 1.091.857 1.325 1.402.233.546.155 1.247-.078 1.87l-.234.467c-.078.156-.156.234-.234.39-.234.234-.467.39-.779.623-.623.312-1.246.623-1.87.857a7.843 7.843 0 01-1.947.234c-.468-.156-.935-.156-1.402-.156-.234-.078-.546-.078-.779-.156l-2.104-.467c-1.402-.39-2.804-.935-3.973-1.636-.623-.39-1.246-.78-1.87-1.247-.311-.233-.623-.39-.935-.623a13.888 13.888 0 00-.701-.935c-.155-.156-.311-.39-.545-.623-.156-.234-.39-.468-.623-.701-.234-.234-.468-.546-.701-.78-.312-.233-.546-.545-.857-.856l-.078-.078c-.078 0-.078-.078-.156-.078l-.234-.234c-.156-.155-.311-.311-.545-.467-.156-.156-.39-.312-.545-.468-.156-.155-.39-.311-.624-.467-.078-.078-.233-.156-.311-.234-.078-.078-.234-.155-.312-.233-.234-.156-.467-.312-.623-.468-.234-.156-.468-.311-.701-.39-.156-.077-.234-.155-.39-.233-.156-.078-.233-.156-.389-.234-.234-.156-.546-.233-.779-.39-.156-.077-.234-.155-.39-.155-.156-.078-.234-.156-.39-.156-.155-.078-.311-.156-.389-.156l-.234-.078-.233-.077c-.312-.078-.546-.234-.857-.312l-.234-.078-.234-.078c-.156-.078-.311-.078-.467-.156-.156-.078-.312-.078-.468-.155l-.233-.079-.234-.077-.935-.234c-.078 0-.156 0-.234-.078l-.233-.078c-.156 0-.312-.078-.468-.078-.156 0-.311-.078-.467-.078h-.468c-.311 0-.623-.078-.934-.078h-5.376c-1.09 0-2.181 0-3.116-.078-.935-.077-1.87-.155-2.649-.311-1.09-.234-1.947-.546-2.726-.857-.156-.078-.312-.234-.468-.312-.156-.155-.39-.233-.545-.39-.156-.077-.234-.155-.39-.233a3.383 3.383 0 01-.545-.467c-.467-.468-.857-.857-1.246-1.325l-.546-.779c-.078-.156-.156-.233-.233-.39-.078-.077-.156-.233-.234-.389-.156-.233-.39-.545-.546-.779-.077-.156-.155-.234-.233-.39l-.078-.155-.078-.234c-.156-.311-.39-.545-.467-.779-.078-.078-.078-.234-.156-.39l-.156-.467c-.078-.156-.078-.234-.078-.39 0-.155-.078-.233-.078-.389v-.779c0-.234.078-.467.234-.779.078-.312.234-.545.311-.857.156-.234.234-.467.39-.623.156-.156.39-.39.623-.545.39-.312.935-.546 1.48-.624.234-.078.546-.078.78-.078.311 0 .545.078.778.156.546.156.935.468 1.247.857.545.857.545 2.181-.312 2.883-.156.078-.233.155-.39.155-.155 0-.389.078-.467.078-.078 0-.233-.078-.39-.233l-.155-.156c.078-.312.156-.546.234-.857.078-.234.078-.468-.078-.701-.078-.078-.156-.234-.234-.312-.156-.078-.39-.156-.545 0-.312.156-.39.39-.468.623-.078.234 0 .546.078.701.078.156.156.39.234.546.078.233.234.545.467.779.234.233.702.311 1.013.233a2.6 2.6 0 00.935-.389c.623-.39.935-1.09 1.09-1.792.156-.701 0-1.48-.389-2.103-.311-.623-1.013-1.169-1.636-1.402a2.399 2.399 0 00-1.013-.234c-.39-.078-.7 0-1.09 0-.701.078-1.403.39-1.948.779a7.005 7.005 0 00-.779.701c-.233.234-.467.623-.623.935-.156.311-.234.623-.39.935-.078.311-.233.623-.233 1.012-.701.078-.701.234-.624.468zm5.142-.234l-.156-.156c-.078-.078-.155-.311-.233-.467-.078-.156-.078-.312-.078-.468 0-.077.156-.311.156-.311h.077c.078 0 .078.078.156.156.078.155.156.311.078.467.078.234 0 .467 0 .78zm58.896 27.344c0 .078-.078.156-.078.234-.078 0-.156-.078-.234 0-.389.078-.701.078-1.013-.078h.078c.234-.156.39-.311.623-.39.078-.077.156-.077.234-.077.078 0 .234 0 .312.078.078.078.078 0 .078.078v.155zM80.685 26.318c.7.156 1.402.312 2.18.39 1.014.156 2.104.233 3.195.311 1.09.078 2.26.078 3.506.156.311 0 .623.078.857.078h.935c.311 0 .623.078.934.078h.468c.156 0 .311.078.467.078.156 0 .312.078.468.078h.233c.078 0 .156 0 .234.078l.935.233.234.078.233.078c.156.078.312.078.468.156.156.078.311.078.467.156l.234.078.234.078a3.8 3.8 0 01.857.311l.233.078.234.078c.156.078.234.078.39.156.155.078.233.078.389.156s.234.078.39.155c.233.078.467.234.779.312 1.947.935 3.583 2.026 4.985 3.038l.935.701c.312.234.546.468.779.702.234.233.468.39.701.623.234.156.39.39.546.545l.701.701c-.234-.156-.467-.233-.701-.39-.468-.31-.935-.622-1.48-.934-2.026-1.169-4.285-1.948-6.544-2.57-.546-.157-1.169-.313-1.714-.468-.546-.156-1.169-.234-1.714-.39-1.09-.233-2.26-.545-3.272-.779l-2.805-.701c-.078-.078-.156-.078-.311-.156-.078-.078-.234-.078-.312-.156-.078-.078-.234-.078-.311-.155-.234-.078-.468-.234-.702-.312-.467-.156-.934-.39-1.402-.545l-1.402-.468-1.402-.467c-.468-.156-.935-.312-1.325-.39-.701-.233-1.48-.467-2.103-.7-.546 0-.623-.079-.701-.079z" fill="#000"/><path d="M69.077 6.375a2.649 2.649 0 00-.545-1.169c-.312-.39-.701-.623-1.091-.779-.468-.156-.78-.156-1.247-.234-.39 0-.856.078-1.246.234-.39.156-.78.39-1.09.623-.39.234-.624.624-.858 1.013-.39.857-.233 1.714-.078 2.493.156.78.546 1.558 1.013 2.181.468.624 1.09 1.091 1.714 1.636-.467-.623-1.09-1.09-1.48-1.791-.39-.624-.623-1.403-.78-2.104-.077-.779-.155-1.48.157-2.103.156-.312.39-.546.623-.78.312-.233.623-.389.935-.545.311-.155.623-.155 1.013-.155.39 0 .779.077 1.09.155.312.078.623.234.857.546.234.233.39.545.468.935.155.39.233.7.233 1.09 0 .312-.156.623-.467.857-.156.078-.312.234-.468.312v-.156c-.078-.312-.233-.701-.545-.857-.234-.156-.701-.156-.857.156-.39.623.39 1.324 1.013 1.168.39 0 .779-.155 1.09-.311.156-.078.312-.234.468-.468a.885.885 0 00.234-.623c0-.545-.078-.935-.156-1.324z" fill="#000"/><path d="M69.388 6.375c.078-.39.234-.78.546-1.169.312-.39.701-.623 1.09-.779.468-.156.78-.156 1.247-.234.39 0 .857.078 1.246.234.39.156.78.39 1.091.623.39.234.623.624.857 1.013.39.857.234 1.714.078 2.493-.156.78-.545 1.558-1.013 2.181-.467.624-1.09 1.091-1.714 1.636.468-.623 1.091-1.09 1.48-1.791.39-.624.624-1.403.78-2.104.077-.779.155-1.48-.156-2.103-.156-.312-.39-.546-.624-.78-.311-.233-.623-.389-.934-.545-.312-.155-.624-.155-1.013-.155-.39 0-.78.077-1.09.155a1.481 1.481 0 00-.858.546c-.233.233-.39.545-.467.935-.156.39-.234.7-.234 1.09 0 .312.156.623.468.857.155.078.311.234.467.312v-.156c.078-.312.234-.701.545-.857.234-.156.701-.156.857.156.39.623-.39 1.324-1.013 1.168-.389 0-.778-.155-1.09-.311-.156-.078-.312-.234-.468-.468a.885.885 0 01-.233-.623c-.078-.545 0-.935.155-1.324zm12.621 11.452s.39-.468-.234-.702c-.467-.233-3.194-.856-5.141-.389-.468.078-.857.312-1.169.545-.779.624-1.792 1.403-2.649 2.805l.234.234v.467c.078.312.234.623.467.78.234.155.468.233.78.31.155 0 .311.079.467 0 .156 0 .312-.155.467-.233.234-.234.312-.545.312-.857 0-.234-.156-.623-.39-.623.078.078.156.156.156.311v.312c-.078.234-.156.39-.311.545a.496.496 0 01-.468 0c-.156-.078-.467-.155-.545-.233-.312-.234-.39-.546-.312-1.091 0-.078 0-.156.078-.234 1.325-1.558 3.116-2.96 5.92-1.636 3.818 1.636 2.182 5.142.624 5.064 0 0-.467-1.714-1.402-.39-.935 1.325 3.116 2.571 3.817-.779 0 0 .468.624.312.857-.234.234 3.74-2.804-1.013-5.063zm-25.942 0s-.39-.468.233-.702c.468-.233 3.195-.856 5.142-.389.468.078.857.312 1.169.545.779.624 1.792 1.403 2.649 2.805l-.234.234v.467c-.078.312-.234.623-.468.78-.233.155-.467.233-.779.31-.156 0-.311.079-.467 0-.156 0-.312-.155-.468-.233-.233-.234-.311-.545-.311-.857 0-.234.156-.623.39-.623-.079.078-.156.156-.156.311v.312c.077.234.155.39.311.545a.496.496 0 00.468 0c.155-.078.467-.155.545-.233.312-.234.39-.546.312-1.091 0-.078 0-.156-.078-.234-1.325-1.558-3.117-2.96-5.921-1.636-3.817 1.636-2.181 5.142-.623 5.064 0 0 .467-1.714 1.402-.39.935 1.325-3.116 2.571-3.817-.779 0 0-.468.624-.312.857.312.234-3.74-2.804 1.013-5.063zM69.544.22c-.078-.155-.311-.311-.467-.155-.156.233-.156.389-.234.623-.078.39-.312.779-.312 1.246-.077.546-.077 1.402.39 1.792v.078c.078.156.234.156.312.156.623-.078.7-.78.7-1.325 0-.779-.155-1.558-.389-2.415zm-1.869 99.484v-.545c0-.156-.078-.312-.078-.546 0-.156-.156-.39-.156-.545l-.156-.467c-.078-.156-.078-.234-.234-.468-.155-.311-.39-.623-.545-.857l-.156-.233c-.078-.078-.078-.156-.156-.234-.078-.156-.233-.312-.311-.39a4.213 4.213 0 01-.545-.7c-.078-.157-.156-.235-.312-.39 0-.078-.078-.078-.078-.156-.156-.234-.39-.468-.545-.701-.78-.935-1.87-1.87-3.195-2.805-1.246-.935-2.804-1.792-4.44-2.57l-2.103-.936h.078c.311 0 .623-.077.934-.155l.857-.312c.546-.234 1.09-.39 1.636-.623 1.09-.468 2.104-.935 3.272-1.169 1.09-.234 2.26-.156 3.272.312.468.234 1.013.545 1.325.935.39.39.545.934.623 1.48.078.545.078 1.09-.078 1.636-.156.545-.39 1.013-.857 1.246-.935.468-2.337.156-2.883-.779a1.316 1.316 0 01-.233-.779c0-.233.156-.545.312-.779.311-.467.934-.545 1.48-.857-.312.078-.546.156-.857.234-.312.078-.546.234-.78.467-.233.234-.389.468-.389.857 0 .312.078.624.234.935.311.546.857 1.013 1.402 1.169.623.156 1.247.156 1.87-.078 2.259-1.558 1.48-5.298-1.013-6.233-1.09-.545-2.415-.623-3.584-.311-1.168.311-2.259.779-3.35 1.324-.545.234-1.09.468-1.557.701l-.78.39c-.233.078-.545.156-.779.234h-.7c-.39-.156-.78-.312-1.247-.468-.234-.078-.468-.156-.701-.311l-.701-.234c-1.792-.623-3.74-1.247-5.765-1.714a1.075 1.075 0 00-.312-.234 1.077 1.077 0 00-.312-.234l-.155-.077-.156-.078a1.077 1.077 0 00-.312-.234c-.39-.312-.701-.623-1.013-.935 0-.078-.078-.078-.078-.156s-.077-.078-.077-.156l-.234-.233c-.078-.078-.156-.156-.156-.234 0-.078-.078-.078-.078-.156s-.078-.078-.078-.156c0-.077-.078-.077-.078-.155s-.078-.078-.078-.156c-.078-.078-.078-.156-.155-.312-.078-.078-.078-.155-.156-.311-.078-.078-.078-.234-.156-.312 0-.078 0-.078-.078-.156 0-.078 0-.078-.078-.156 0-.078 0-.078-.078-.155 0-.078 0-.078-.078-.156 0-.078-.078-.234-.078-.312v-1.48c0-.156 0-.39.078-.545 0-.156.078-.312.156-.546.078-.155.078-.311.156-.467 0-.078.078-.156.078-.234.078-.078.078-.156.156-.233.155-.234.39-.468.545-.702l.701-.467.701-.234c.234-.078.468-.078.624-.078h.623c.233 0 .39.078.623.156.234.078.39.156.623.312.39.233.701.467 1.013.779.156.156.312.311.39.467.077.078.155.156.155.234 0 .078.078.078.078.156s.078.078.078.156c.468.7.623 1.402.623 2.103v.857s0 .078-.078.078v.156s0 .077-.077.077l-.078.078v.156l-.078.078-.078.078v.078h-.078l-.078.078-.078.078h-.156l-.078.078s-.078 0-.078.078h-.155s-.078 0-.078.078c0 0-.078 0-.078.077-.078 0-.156.078-.156.078-.234.078-.467.078-.701.078-.234 0-.467-.078-.623-.156-.156-.078-.312-.155-.468-.311h-.078l-.078-.078-.077-.078-.078-.078c.311.078.7 0 .935-.312.311-.39.155-.934-.234-1.246-.39-.312-.935-.156-1.247.234-.233.39-.233.857.078 1.09v.078c0 .078.078.078.078.156s.078.156.156.156l.078.078.078.078.078.078c.155.155.311.233.545.39.234.077.467.233.701.233.312 0 .545 0 .857-.078.078 0 .156 0 .234-.078 0 0 .078 0 .078-.078 0 0 .078 0 .078-.078h.155l.078-.078.078-.078h.078l.078-.077.078-.078.078-.078.078-.078.078-.078.078-.078.078-.078.077-.078.078-.078c0-.078.078-.078.078-.156s.078-.078.078-.155v-.156c0-.078.078-.078.078-.156s0-.078.078-.156v-.156c0-.078 0-.078.078-.155v-1.091c0-.078 0-.234-.078-.312v-.311c0-.078 0-.078-.078-.156 0-.078 0-.078-.078-.156v-.156c0-.078-.078-.078-.078-.155 0-.078-.078-.078-.078-.156v-.156c0-.078-.078-.078-.078-.156s-.078-.078-.078-.156-.077-.078-.077-.156-.078-.078-.078-.155a1.077 1.077 0 01-.234-.312c-.156-.156-.312-.39-.467-.545a4.538 4.538 0 00-1.169-.857c-.234-.156-.468-.234-.701-.312a9.82 9.82 0 00-.78-.234h-.778c-.234 0-.546 0-.78.078-.233.078-.545.156-.856.312a5.245 5.245 0 00-.857.545c-.545.468-.935 1.09-1.169 1.87-.078.156-.078.39-.156.623 0 .234-.078.39-.078.623v.624c0 .078 0 .233.078.311v.312c0 .078 0 .078.078.156 0 .078 0 .078.078.156 0 .077.078.233.078.311 0 .078 0 .078.078.156 0 .078 0 .078.078.156 0 .078.078.078.078.155 0 .078 0 .078.078.156s.078.234.156.312c.078.078.078.234.155.312.078.078.078.233.156.311 0 .078.078.078.078.156s.078.078.078.156.078.078.078.156.078.078.078.155c.078.078.156.156.233.312.078.078.156.156.234.312 0 .078.078.078.156.155l.156.156c.311.39.701.701 1.09 1.013l.156.156c-.233-.078-.545-.156-.779-.234-.545-.156-1.09-.311-1.636-.39-.545-.155-1.09-.311-1.714-.389a51.279 51.279 0 00-1.713-.467c-2.26-.624-4.363-1.403-6.31-2.415-.936-.546-1.793-1.091-2.572-1.792-.078-.078-.233-.156-.311-.234a1.074 1.074 0 00-.312-.234 1.075 1.075 0 00-.311-.233 1.077 1.077 0 01-.234-.312c-.312-.39-.701-.779-.935-1.168-.623-.78-1.09-1.636-1.324-2.493a3.92 3.92 0 01-.078-2.493c.155-.39.311-.78.545-1.091a4.46 4.46 0 01.857-.857 1.63 1.63 0 01.467-.312c.078-.078.156-.077.234-.155.078-.078.156-.078.234-.156a4.505 4.505 0 011.09-.39c.078 0 .156-.078.234-.078.078 0 .156 0 .234-.078h1.324c.078 0 .156 0 .234.078h.312c.078 0 .155.078.233.078.078 0 .156.078.234.078.078 0 .156.078.234.078.311.156.545.234.779.468.234.155.467.311.623.545.156.233.312.39.468.623.233.467.155.935 0 1.324-.156.39-.39.701-.624.857-.156.078-.233.156-.39.156-.155 0-.233 0-.389-.078-.078 0-.156-.078-.233-.078.233 0 .389-.156.467-.39.156-.31 0-.7-.312-.856-.311-.156-.7 0-.857.312-.155.311 0 .7.312.856.078.078.234.078.312.078.078.078.155.078.233.156.078.078.234.078.39.078s.311-.078.467-.156c.312-.155.546-.545.78-.935.077-.078.077-.233.077-.311 0-.078 0-.156.078-.156v-.156c0-.234 0-.545-.078-.779a2.075 2.075 0 00-.467-.779c-.234-.233-.468-.467-.701-.623-.234-.156-.546-.39-.857-.545-.078 0-.156-.078-.234-.078-.078 0-.156-.078-.234-.078-.078 0-.156-.078-.233-.078l-.156-.078h-.156c-.078 0-.156-.078-.312-.078a.59.59 0 01-.311-.078h-1.558c-.078 0-.234 0-.312.078-.39.078-.779.156-1.246.39-.078.078-.234.078-.312.155-.078.078-.234.078-.312.156-.155.078-.39.234-.545.39-.39.233-.701.545-1.013.935-.311.39-.545.779-.779 1.246-.156.467-.311 1.013-.311 1.558 0 .545.078 1.09.233 1.558a9.472 9.472 0 001.402 2.805c.079.156.234.311.312.467-.311-.234-.623-.39-1.013-.623-.311-.156-.7-.312-1.012-.468-.701-.311-1.403-.545-2.182-.779-.779-.233-1.48-.39-2.259-.545-.701-.156-1.48-.312-2.26-.312-.544 0-1.168 0-1.713.079-1.09-.546-2.103-1.247-2.883-1.792-1.635-1.169-3.427-2.493-5.375-3.194-2.57-.935-6.388-.468-7.09 2.648-.467 2.182 1.793 4.519 3.974 3.35.857-.467 1.558-1.558 1.246-2.57-.155-.78-.779-1.091-1.48-1.17-.156-.077-.233-.155-.39-.155a1.33 1.33 0 00-.934.078l-.078.078-.078.078-.156.156c-.156.155-.233.311-.233.467 0 .156-.078.312 0 .545.077.234.311.39.467.39.156.078.312.078.467.078.156 0 .312-.078.468-.156.234-.156.39-.39.545-.546l.156-.155c.779.545 1.013 1.714-.078 2.415-.623.39-1.324.39-1.948.078-1.636-.702-1.791-2.727-.779-4.051 1.87-2.415 5.61-1.325 7.713 0 1.948 1.168 3.661 2.648 5.687 3.661-.78.234-1.48.545-2.181 1.013-.312.234-.701.467-.935.857-.156.156-.234.39-.39.545-.078.156-.155.39-.233.623-.234.78-.312 1.714.078 2.493.389.78 1.012 1.403 1.791 1.714.78.312 1.558.39 2.337.39.39-.078.78-.156 1.169-.39.39-.233.701-.545.857-.935.234-.7.078-1.324-.156-1.87v-.077c-.078-.234-.156-.468-.39-.546-.389-.078-.545.234-.623.546 0 .311.078.623.39.7.234.079.39 0 .545-.155.078 0 .078-.078.078-.078.078.546.078 1.013-.156 1.48-.311.624-1.09.857-1.714.857a4.546 4.546 0 01-2.025-.467c-.546-.312-1.09-.857-1.325-1.402-.233-.546-.155-1.247.078-1.87l.234-.468c.078-.155.156-.233.234-.389.233-.234.467-.39.779-.623.623-.312 1.246-.623 1.87-.857a7.849 7.849 0 011.947-.234c.468.156.935.156 1.402.156.234.078.546.078.78.156l2.103.467c1.402.39 2.805.935 3.973 1.636.623.39 1.247.78 1.87 1.247.311.233.623.39.935.623.155.233.39.545.7.935.157.156.312.39.546.623.156.234.39.467.623.701.234.234.468.545.701.78.312.233.546.544.857.856l.078.078c.078 0 .078.078.156.078l.234.233c.156.156.311.312.545.468.156.156.39.312.545.467.156.156.39.312.624.468.078.078.233.156.311.234.078.078.234.155.312.233.234.156.467.312.623.468.234.155.468.311.701.39.156.077.234.155.39.233.156.078.233.156.39.234.233.156.545.233.778.39.156.077.234.155.39.155.156.078.234.156.39.156.155.078.311.156.389.156l.234.078.233.077c.312.078.546.234.857.312l.234.078.234.078c.156.078.311.078.467.156.156.078.312.078.468.155l.233.078.234.078.935.234c.078 0 .156 0 .234.078l.233.078c.156 0 .312.078.468.078.156 0 .311.078.467.078h.468c.311 0 .623.077.934.077h5.376c1.09 0 2.181 0 3.116.078s1.87.156 2.649.312c1.09.234 1.947.545 2.726.857.156.078.312.234.468.312.156.155.39.233.545.389.156.078.234.156.39.234.233.156.39.311.545.467.467.468.857.857 1.246 1.325l.546.779c.078.155.156.233.233.39.078.077.156.233.234.389.156.233.39.545.546.779.077.156.155.233.233.39l.078.155.078.234c.156.311.39.545.468.779.077.078.077.234.155.39l.156.467c.078.156.078.233.078.39 0 .155.078.233.078.389v.779c0 .234-.078.467-.234.779-.078.312-.233.545-.311.857-.156.234-.234.467-.39.623-.156.156-.39.39-.623.545-.39.312-.935.546-1.48.624-.234.077-.546.078-.78.078-.311 0-.545-.078-.779-.156-.545-.156-.934-.468-1.246-.857-.545-.857-.545-2.182.312-2.883.155-.078.233-.156.39-.156.155 0 .389-.077.467-.077.078 0 .233.078.39.233l.155.156c-.078.312-.156.545-.234.857-.078.234-.078.467.078.701.078.078.156.234.234.312.156.078.39.156.545 0 .312-.156.39-.39.468-.623.077-.234 0-.546-.078-.702-.078-.155-.156-.39-.234-.545a2.075 2.075 0 00-.467-.779c-.234-.234-.702-.312-1.013-.234a2.6 2.6 0 00-.935.39c-.623.39-.935 1.091-1.09 1.792-.157.701 0 1.48.389 2.103.311.623 1.013 1.169 1.636 1.402.311.156.701.234 1.013.234.39.078.7 0 1.09 0 .701-.078 1.403-.389 1.948-.779.311-.234.545-.467.779-.701.234-.234.467-.623.623-.935.156-.312.234-.623.39-.935.078-.311.233-.623.233-1.013.624-.078.624-.233.624-.467zm-5.22.234l.156.156c.078.077.156.311.233.467.078.156.078.312.078.467 0 .078-.155.312-.155.312h-.078c-.078 0-.078-.078-.156-.156-.078-.156-.156-.311-.078-.467v-.78zM3.637 72.593c0-.078.078-.156.078-.233.078 0 .156.078.234 0 .39-.078.701-.078 1.013.078h-.078c-.234.155-.39.311-.623.389-.078.078-.156.078-.234.078-.078 0-.234 0-.312-.078-.078-.078-.078 0-.078-.078-.078 0 0-.078 0-.156zM57.235 89.5c-.7-.156-1.402-.312-2.18-.39-1.014-.156-2.104-.234-3.195-.312-1.09-.078-2.26-.078-3.506-.155-.311 0-.623-.078-.857-.078h-.934c-.312 0-.624-.078-.935-.078h-.468c-.156 0-.311-.078-.467-.078-.156 0-.312-.078-.468-.078h-.233c-.078 0-.156 0-.234-.078l-.935-.234-.234-.078-.233-.077c-.156-.078-.312-.078-.468-.156-.155-.078-.311-.078-.467-.156l-.234-.078-.233-.078a3.792 3.792 0 01-.858-.311l-.233-.078-.234-.078c-.156-.078-.234-.078-.39-.156-.155-.078-.233-.078-.389-.156s-.234-.078-.39-.156c-.233-.078-.467-.233-.779-.311-1.947-.935-3.583-2.026-4.985-3.039l-.935-.7a7.025 7.025 0 01-.78-.702c-.233-.234-.467-.39-.7-.623-.234-.156-.39-.39-.546-.545l-.7-.702c.233.156.466.234.7.39.468.312.935.623 1.48.935 2.026 1.168 4.285 1.947 6.544 2.57.546.156 1.169.312 1.714.468.546.156 1.169.234 1.714.39 1.09.233 2.26.545 3.272.779l2.805.7c.078.079.155.079.311.157.078.078.234.078.312.155.078.078.234.078.312.156.233.078.467.234.7.312.468.156.935.39 1.403.545l1.402.468 1.402.467c.468.156.935.312 1.325.39.701.233 1.48.467 2.103.7.546 0 .623 0 .701.079zm13.011 10.827c.077.39.155.701.233 1.013.078.312.234.623.39.935.156.312.311.701.623.935.234.311.467.467.779.701a3.83 3.83 0 001.948.779c.311.078.7.078 1.09 0 .312-.078.701-.078 1.013-.234.701-.234 1.324-.701 1.636-1.402.39-.623.467-1.402.39-2.104a3.313 3.313 0 00-1.091-1.791c-.312-.156-.623-.312-.935-.39-.312-.078-.78 0-1.013.234-.233.234-.39.467-.467.779-.156.234-.234.389-.234.545-.078.234-.078.468-.078.701.078.312.234.468.468.624.155.078.39.078.545 0 .078-.078.234-.156.234-.312.078-.234.156-.467.078-.701-.078-.312-.156-.545-.234-.857l.156-.156c.156-.156.311-.234.39-.234.077 0 .31 0 .467.078a.6.6 0 01.39.156c.778.701.856 2.026.31 2.883-.31.467-.7.701-1.246.857-.233.077-.545.155-.779.155-.233 0-.545 0-.779-.078-.545-.077-1.013-.311-1.48-.623-.156-.156-.467-.389-.623-.545-.156-.234-.312-.39-.39-.623-.078-.234-.233-.546-.311-.857a9.71 9.71 0 00-.234-.779v-.779c0-.156 0-.312.078-.39 0-.156.078-.234.078-.39l.156-.467c.077-.156.078-.311.155-.39.078-.233.312-.467.468-.778l.078-.234.078-.156c.078-.156.155-.234.233-.39.156-.233.39-.545.546-.779.078-.155.155-.233.233-.389.078-.078.156-.234.234-.39l.545-.779c.312-.545.78-.934 1.247-1.324.156-.156.39-.312.545-.467.156-.078.234-.156.39-.234.156-.156.311-.234.545-.39.156-.078.312-.233.468-.311.7-.312 1.635-.623 2.726-.857.78-.156 1.714-.234 2.649-.312.935-.078 2.025-.078 3.116-.078 1.09 0 2.26.078 3.506 0h1.869c.312 0 .624-.078.935-.078h.468c.156 0 .311-.078.467-.078.156 0 .312-.077.467-.077l.234-.078c.078 0 .156 0 .234-.078l.935-.234.234-.078.233-.078c.156-.078.312-.078.468-.156.156-.078.311-.077.467-.155l.234-.078.233-.078c.312-.078.546-.234.857-.312l.234-.078.234-.078c.156-.078.311-.155.39-.155.155-.078.233-.156.389-.156.156-.078.234-.156.39-.156.233-.156.545-.234.779-.39.155-.077.233-.155.389-.233.156-.078.234-.156.39-.234.233-.156.467-.312.701-.39.233-.155.467-.311.623-.467.078-.078.234-.156.312-.234.077-.078.233-.155.311-.233.234-.156.39-.312.623-.468.156-.156.39-.311.546-.467.156-.156.311-.312.545-.468l.234-.233c.078 0 .078-.078.156-.078l.077-.078c.312-.312.624-.545.857-.857.234-.312.546-.545.702-.78.233-.233.467-.466.623-.7.156-.234.389-.39.545-.623.312-.468.545-.78.701-.935.312-.156.623-.39.935-.624.623-.39 1.247-.856 1.87-1.246 1.168-.701 2.649-1.246 3.973-1.636l2.103-.467c.234-.078.546-.078.779-.156.468 0 .935-.078 1.403-.156.701-.078 1.324 0 1.947.234a5.804 5.804 0 011.87.857c.312.155.545.39.779.623.078.078.156.234.234.39l.233.467c.234.623.234 1.246.078 1.87a2.872 2.872 0 01-1.324 1.402c-.545.311-1.247.467-2.026.467-.701 0-1.402-.233-1.713-.857-.234-.39-.234-.935-.156-1.48 0 .078.078.078.078.078.155.156.311.234.545.156.312-.078.389-.468.389-.701 0-.312-.233-.624-.623-.546a.586.586 0 00-.389.546v.078c-.234.623-.39 1.246-.156 1.87.156.389.467.7.857.934.389.234.779.312 1.168.39.779.078 1.636 0 2.338-.39.779-.39 1.402-.935 1.791-1.714.39-.779.312-1.714.078-2.493-.078-.233-.156-.39-.233-.623-.078-.234-.234-.39-.39-.545-.312-.312-.623-.624-.935-.857-.701-.39-1.402-.78-2.181-1.013 2.025-1.013 3.739-2.493 5.687-3.662 2.181-1.324 5.843-2.415 7.712 0 1.013 1.325.935 3.35-.779 4.052-.623.233-1.324.311-1.947-.078-1.091-.702-.857-1.87-.078-2.415.078 0 .078.078.156.155.155.156.311.39.545.546.156.078.234.156.467.156.156 0 .312 0 .468-.078.156 0 .389-.234.467-.39a.665.665 0 000-.545c0-.156-.156-.312-.233-.468l-.156-.155-.078-.078-.078-.078c-.312-.234-.701-.234-.935-.078-.156.078-.312.078-.389.156-.702.078-1.325.39-1.481 1.168-.233 1.013.39 2.104 1.247 2.571 2.181 1.169 4.44-1.168 3.973-3.35-.701-3.116-4.519-3.584-7.089-2.649-1.948.701-3.662 2.026-5.376 3.194-.779.546-1.792 1.247-2.882 1.792-.546-.078-1.169-.156-1.714-.078-.779.078-1.558.234-2.259.312-.779.156-1.48.312-2.26.545-.701.234-1.402.468-2.181.78-.389.155-.701.311-1.013.467-.311.156-.701.39-1.012.623.078-.156.233-.312.311-.467a9.464 9.464 0 001.403-2.805 5.425 5.425 0 00.233-1.558c0-.545-.078-1.013-.311-1.558a3.403 3.403 0 00-.779-1.247c-.312-.39-.624-.7-1.013-.934-.156-.156-.39-.234-.545-.39-.078-.078-.234-.078-.312-.156-.078-.078-.234-.078-.312-.156-.389-.155-.779-.311-1.246-.39-.078 0-.234 0-.312-.077h-1.558c-.078 0-.156 0-.311.078-.078 0-.156.078-.312.078h-.156l-.156.078c-.078 0-.156.078-.233.078-.078 0-.156.078-.234.078-.078 0-.156.077-.234.077-.311.156-.623.312-.857.546-.234.156-.467.39-.701.623-.234.234-.312.467-.467.779-.078.234-.156.545-.078.78v.155c0 .078 0 .156.078.156 0 .078.078.233.078.311.155.39.467.78.779.935.155.078.311.156.467.156.156 0 .312 0 .389-.078.078-.078.234-.078.234-.156.078 0 .234 0 .312-.078.311-.155.467-.545.311-.857-.155-.311-.545-.467-.857-.311-.311.156-.467.545-.311.857.078.234.311.311.467.39-.078 0-.155.077-.233.077-.078 0-.234.078-.39.078a.591.591 0 01-.389-.156c-.234-.155-.468-.467-.624-.857-.155-.39-.155-.857 0-1.324.078-.234.234-.468.468-.623.156-.156.389-.39.623-.546.234-.156.545-.311.779-.467.078 0 .156-.078.234-.078.078 0 .156-.078.233-.078.078 0 .156-.078.234-.078h.312c.078 0 .156 0 .234-.078h1.324c.078 0 .156 0 .234.078.077 0 .155.078.233.078.39.078.701.234 1.091.39.078.078.156.078.234.156.078.077.155.077.233.155.156.078.312.234.468.312.311.234.623.545.857.857.233.311.467.701.545 1.09a3.916 3.916 0 01-.078 2.493c-.234.857-.779 1.714-1.324 2.493l-.935 1.169a1.076 1.076 0 00-.234.312 1.084 1.084 0 01-.311.233 1.077 1.077 0 01-.312.234 1.077 1.077 0 01-.312.234c-.779.7-1.636 1.246-2.57 1.791-1.87 1.013-4.051 1.792-6.31 2.416-.546.155-1.091.311-1.715.467a13.57 13.57 0 01-1.713.39c-.546.155-1.091.311-1.637.389-.233.078-.545.156-.779.234.078 0 .078-.078.156-.156.39-.312.78-.623 1.09-1.013l.157-.156.156-.156c.077-.077.155-.155.233-.311.078-.078.156-.234.234-.312 0-.078.078-.078.078-.156s.078-.077.078-.155.078-.078.078-.156.078-.078.078-.156c.078-.078.155-.234.155-.312.078-.077.078-.233.156-.311.078-.078.078-.234.156-.312 0-.078.078-.078.078-.156s.078-.078.078-.155c0-.078 0-.078.078-.156 0-.078 0-.078.078-.156 0-.078.078-.234.078-.312 0-.078 0-.078.078-.156 0-.077 0-.077.077-.155v-.312c0-.078 0-.234.078-.311v-.624c0-.233 0-.39-.078-.623 0-.234-.078-.39-.156-.623-.233-.78-.623-1.403-1.168-1.87-.234-.234-.545-.39-.857-.545a3.8 3.8 0 00-.857-.312c-.234-.078-.545-.078-.779-.078h-.779c-.234.078-.545.156-.779.234-.234.078-.467.234-.701.311-.39.234-.78.546-1.169.858a3.337 3.337 0 00-.467.545c-.078.078-.156.156-.234.311 0 .078-.078.078-.078.156s-.078.078-.078.156-.078.078-.078.156-.078.078-.078.156v.156c0 .077-.077.077-.077.155s-.078.078-.078.156v.156c0 .078 0 .078-.078.156 0 .078 0 .078-.078.156v.311c0 .078 0 .234-.078.312v1.09c0 .078 0 .078.078.156v.156c0 .078 0 .078.078.156 0 .078.078.078.078.156v.156c0 .077.078.077.078.155s.078.078.078.156l.077.078.078.078.078.078.078.078.078.078.078.078.078.077.078.078.078.078h.078l.078.078.077.078h.156s.078 0 .078.078c0 0 .078 0 .078.078.078 0 .156.078.234.078.311.078.623.078.857.078.311 0 .545-.156.7-.234.234-.078.39-.234.546-.39l.078-.077.078-.078.078-.078c.078-.078.078-.156.156-.156 0-.078.078-.156.078-.156v-.078a.834.834 0 00.077-1.09.972.972 0 00-1.246-.234.972.972 0 00-.234 1.246c.234.312.624.468.935.312l-.078.078-.078.078-.078.078h-.078c-.155.078-.311.233-.467.311-.156.078-.39.156-.623.156-.234 0-.468 0-.701-.078-.078 0-.156 0-.156-.078 0 0-.078 0-.078-.078 0 0-.078 0-.078-.078h-.156s-.078 0-.078-.077l-.078-.078h-.155l-.078-.078-.078-.078h-.078v-.078l-.078-.078-.078-.078v-.156l-.078-.078s0-.078-.078-.078v-.155s0-.078-.078-.078v-.857c0-.701.156-1.403.624-2.104 0-.078.078-.078.078-.155 0-.078.078-.078.078-.156.077-.078.155-.156.155-.234.156-.156.234-.312.39-.467a5.001 5.001 0 011.013-.78c.155-.077.39-.233.623-.311.234-.078.39-.156.623-.156h.623c.234 0 .468 0 .623.078l.702.234c.233.078.467.233.7.467.234.156.39.39.546.701.078.078.078.156.156.234.078.078.078.156.078.234.078.156.156.311.156.467.078.156.078.312.155.546 0 .155.078.389.078.545v1.479c0 .078-.078.234-.078.312 0 .078 0 .078-.078.155 0 .078 0 .078-.077.156 0 .078 0 .078-.078.156 0 .078 0 .078-.078.156s-.078.234-.156.312c-.078.077-.078.155-.156.311-.078.078-.078.156-.156.312 0 .078-.078.078-.078.156 0 .077-.077.078-.077.155 0 .078-.078.078-.078.156s-.078.078-.078.156c-.078.078-.156.156-.156.234l-.234.234c0 .077-.078.077-.078.155s-.078.078-.078.156c-.311.312-.623.623-1.012.935a1.075 1.075 0 01-.312.234l-.156.078-.156.077a1.075 1.075 0 01-.311.234 1.075 1.075 0 01-.312.234 101.26 101.26 0 00-5.765 1.714l-.7.233c-.235.078-.468.156-.702.312-.39.156-.857.312-1.246.468h-.702c-.311 0-.545-.079-.779-.234l-.779-.39a30.793 30.793 0 01-1.558-.7c-1.013-.546-2.103-1.014-3.35-1.325-1.168-.312-2.493-.234-3.583.311-2.415.857-3.272 4.675-1.013 6.233.623.233 1.246.233 1.87.078.623-.156 1.168-.624 1.402-1.169.156-.234.234-.623.234-.935 0-.311-.234-.623-.39-.857-.234-.233-.467-.39-.779-.467-.312-.078-.545-.156-.857-.234.545.234 1.169.39 1.48.857.156.234.312.468.312.78 0 .233-.078.544-.234.778-.545 1.013-1.947 1.247-2.882.78-.468-.235-.701-.702-.857-1.247-.156-.546-.156-1.09-.078-1.636.078-.546.312-1.013.623-1.48.312-.39.857-.702 1.325-.935 1.012-.468 2.18-.624 3.272-.312 1.09.234 2.18.78 3.272 1.169.545.233 1.09.467 1.636.623l.856.312c.312.077.624.155.935.155h.078c-.7.312-1.48.624-2.103.935-1.636.78-3.116 1.714-4.44 2.57-1.247.936-2.338 1.87-3.195 2.806a4.28 4.28 0 00-.545.7c0 .078-.078.079-.078.156-.078.156-.234.234-.312.39-.156.234-.311.468-.545.701-.078.156-.234.234-.312.39-.078.078-.078.155-.155.233l-.156.234c-.156.234-.312.468-.545.857-.078.234-.156.312-.234.467l-.156.468c-.078.156-.156.39-.156.545-.078.156-.078.39-.078.545v.546c.546.078.546.234.624.467zm5.219.468c0 .156 0 .311-.078.467l-.156.156h-.078c-.078-.078-.155-.234-.155-.312 0-.155 0-.311.078-.467.077-.156.155-.39.233-.468l.156-.155c-.078.233 0 .467 0 .779zm58.818-27.968c0 .078 0 .078-.078.078s-.234.078-.312.078c-.078 0-.156 0-.234-.078-.233-.078-.389-.234-.623-.39h-.078c.312-.155.624-.155 1.013-.077h.234c.078.078.078.155.078.233v.156zM80.918 89.343l2.104-.701c.467-.156.935-.312 1.324-.39l1.402-.467 1.403-.468c.467-.156.934-.311 1.402-.545.234-.078.467-.156.701-.312.078-.078.234-.078.312-.155.078-.078.233-.078.311-.156.078-.078.156-.078.312-.156l2.805-.701c1.09-.234 2.18-.546 3.272-.78.545-.155 1.09-.233 1.713-.389.546-.156 1.169-.311 1.714-.467 2.337-.623 4.597-1.403 6.544-2.571.468-.312 1.013-.623 1.48-.935.234-.078.468-.234.702-.39l-.702.702c-.155.156-.389.311-.545.545-.234.156-.467.39-.701.623-.234.234-.545.468-.779.702l-.935.7c-1.324 1.013-2.96 2.104-4.986 3.039-.234.078-.467.234-.779.311-.156.078-.234.078-.39.156-.155.078-.233.078-.389.156s-.234.078-.39.156l-.233.078-.234.078a3.797 3.797 0 00-.857.311l-.233.078-.234.078c-.156.078-.312.078-.468.156-.155.078-.311.078-.467.156l-.234.078-.234.078-.934.233c-.078 0-.156 0-.234.078h-.234c-.156 0-.311.078-.467.078-.156 0-.312.078-.468.078h-.467c-.312 0-.623.078-.935.078h-.935c-.311 0-.623.078-.857.078-1.168.078-2.337.078-3.505.156-1.091.078-2.182.155-3.195.311-.778.078-1.48.234-2.18.39.544 0 .622 0 .7-.078zm-11.841 20.021a2.65 2.65 0 01-.545 1.169c-.312.389-.701.623-1.091.779-.467.156-.78.156-1.246.234-.39 0-.857-.078-1.247-.234a5.003 5.003 0 01-1.09-.623c-.39-.234-.624-.624-.858-1.013-.39-.857-.233-1.714-.078-2.493.156-.779.546-1.558 1.013-2.181.468-.624 1.091-1.091 1.714-1.636-.467.623-1.09 1.09-1.48 1.791-.39.624-.623 1.403-.78 2.104-.077.779-.155 1.48.157 2.103.156.312.39.546.623.779.312.234.623.39.935.546.311.155.623.155 1.013.155.39 0 .779-.078 1.09-.155a1.48 1.48 0 00.857-.546c.234-.233.39-.545.468-.935.155-.389.233-.701.233-1.09 0-.312-.156-.623-.467-.857-.156-.078-.312-.234-.468-.312v.156c-.077.312-.233.701-.545.857-.234.156-.701.156-.857-.156-.39-.623.39-1.324 1.013-1.168.39 0 .779.155 1.09.311.156.078.312.234.468.468.156.155.234.389.234.623 0 .545-.078.935-.156 1.324z" fill="#000"/><path d="M69.389 109.364c.078.39.233.779.545 1.169.312.389.701.623 1.09.779.468.156.78.156 1.247.234.39 0 .857-.078 1.246-.234.39-.156.78-.39 1.091-.623.39-.234.623-.624.857-1.013.39-.857.234-1.714.078-2.493-.156-.779-.545-1.558-1.013-2.181-.467-.624-1.09-1.091-1.714-1.636.468.623 1.091 1.09 1.48 1.791.39.624.624 1.403.78 2.104.078.779.155 1.48-.156 2.103-.156.312-.39.546-.624.779-.311.234-.623.39-.934.546-.312.155-.623.155-1.013.155-.39 0-.78-.078-1.09-.155a1.48 1.48 0 01-.858-.546c-.233-.233-.39-.545-.467-.935-.156-.389-.234-.701-.234-1.09 0-.312.156-.623.468-.857.155-.078.311-.234.467-.312v.156c.078.312.234.701.545.857.234.156.701.156.857-.156.39-.623-.39-1.324-1.012-1.168-.39 0-.78.155-1.091.311-.156.078-.312.234-.468.468-.155.155-.233.389-.233.623-.078.545 0 .935.156 1.324zm12.62-11.452s.39.468-.234.701c-.467.234-3.194.857-5.141.39-.468-.078-.857-.312-1.169-.545-.779-.623-1.792-1.403-2.649-2.805l.234-.234v-.467c.078-.312.234-.623.467-.779.234-.156.468-.234.78-.312.155 0 .311-.078.467 0 .156 0 .312.156.467.234.234.234.312.545.312.857 0 .234-.156.623-.39.623.078-.078.156-.156.156-.311v-.312c-.078-.234-.156-.39-.311-.545a.497.497 0 00-.468 0c-.156.078-.467.156-.545.233-.312.234-.39.546-.312 1.091 0 .078 0 .156.078.234 1.325 1.558 3.116 2.96 5.92 1.636 3.818-1.636 2.182-5.142.624-5.064 0 0-.467 1.714-1.402.39-.935-1.325 3.116-2.571 3.817.778 0 0 .468-.623.312-.856-.234-.156 3.74 2.804-1.013 5.063zm-25.942 0s-.39.468.234.701c.467.234 3.194.857 5.141.39.468-.078.857-.312 1.169-.545.779-.623 1.792-1.403 2.649-2.805l-.234-.234v-.467c-.078-.312-.234-.623-.468-.779-.233-.156-.467-.234-.779-.312-.155 0-.311-.078-.467 0-.156 0-.312.156-.468.234-.233.234-.311.545-.311.857 0 .234.156.623.39.623-.079-.078-.156-.156-.156-.311v-.312c.077-.234.155-.39.311-.545a.497.497 0 01.468 0c.156.078.467.156.545.233.312.234.39.546.312 1.091 0 .078 0 .156-.078.234-1.325 1.558-3.117 2.96-5.921 1.636-3.817-1.636-2.181-5.142-.623-5.064 0 0 .467 1.714 1.402.39.935-1.325-3.116-2.571-3.817.778 0 0-.468-.623-.312-.856.312-.156-3.74 2.804 1.013 5.063zm13.477 17.607c-.078.155-.311.311-.467.155-.156-.233-.156-.389-.234-.623-.078-.389-.311-.779-.311-1.246-.078-.546-.078-1.403.39-1.792v-.078c.077-.156.233-.156.31-.156.624.078.702.779.702 1.325 0 .857-.156 1.636-.39 2.415zM6.598 53.118l.078-.701h5.141l-.078.7-1.558.39v4.13h5.921v-4.13l-1.714-.39.078-.7h5.142l-.078.7-1.558.39v9.583l1.714.311-.078.78h-5.142l.078-.702 1.558-.467v-4.44h-5.92v4.517l1.713.312-.156.78H6.598l.078-.702 1.558-.467v-9.505l-1.636-.39zm14.412-.001l.078-.7h9.426l-.311 3.037-.857-.155-.39-2.026h-4.44v4.518h2.726l.39-1.168.935-.156-.312 3.662-.779.155-.312-1.636h-2.57v4.597h4.674l.935-2.181.779.155-.312 2.96h-9.582l.078-.7 1.558-.468v-9.504l-1.714-.39zM32.228 64.18l.078-.702 1.558-.467v-9.426l-1.792-.468.156-.7h5.22l-.078.7-1.636.468v9.66h4.207l1.246-2.337.78.155-.312 3.117h-9.427zm10.907-11.063l.078-.7h9.426l-.311 3.037-.857-.155-.39-2.026h-4.44v4.518h2.726l.39-1.168.935-.156-.312 3.662-.78.155-.31-1.636h-2.572v4.597h4.675l.935-2.181.779.155-.312 2.96h-9.582l.078-.7 1.558-.468v-9.504l-1.714-.39zm11.14 0l.078-.7h3.272l6.077 9.192v-8.024l-1.714-.39.078-.701h4.518l-.156.701-1.558.39v10.672l-1.48.312-6.232-9.348v8.024l1.713.311-.077.78h-4.519l.078-.702 1.558-.467V53.74l-1.636-.623zm28.669 10.439l-.156.702c-.312.155-.701.156-1.168.156-.468 0-.935-.156-1.48-.468-.546-.312-1.014-.701-1.325-1.09-.545.545-1.169.934-1.792 1.246-.701.311-1.402.39-2.26.39-.7 0-1.246-.157-1.79-.39-.468-.234-.858-.623-1.17-1.09a3.621 3.621 0 01-.389-1.637c0-.701.234-1.402.701-2.025.468-.624 1.09-1.169 2.026-1.558a21.56 21.56 0 01-.624-.857 2.88 2.88 0 01-.39-.857c-.077-.312-.155-.624-.155-1.013 0-.468.156-.935.39-1.402a3.64 3.64 0 011.09-1.091c.468-.312.935-.39 1.403-.39.545 0 1.012.078 1.48.312.39.156.7.468.935.78.233.31.311.778.311 1.246 0 .623-.234 1.246-.623 1.713-.39.468-.935.935-1.636 1.325v.078c1.013 1.168 1.948 2.181 2.727 3.038.39-.779.7-1.792.857-2.96l-1.403-.234.078-.701h4.207l-.078.701-1.636.39a10.29 10.29 0 01-1.246 3.505c1.246 1.169 2.103 1.87 2.726 2.026l.39.155zm-9.27-1.636c.233.312.467.624.856.857.312.234.701.312 1.169.312 1.013 0 1.87-.311 2.57-1.013l-3.427-3.74h-.156a3.325 3.325 0 00-1.013 1.092c-.156.39-.311.857-.311 1.402 0 .39.078.779.311 1.09zm1.168-8.491c-.234.311-.312.701-.312 1.09 0 .468.156.858.39 1.325.233.467.623.857.935 1.169.311-.234.545-.39.7-.546.156-.156.312-.39.39-.623.078-.234.156-.545.156-.935 0-.545-.078-1.013-.312-1.402a1.363 1.363 0 00-1.09-.545c-.312 0-.623.155-.857.467zm13.867 13.867l-.546-.857a9.474 9.474 0 001.714-2.026c.39-.623.546-1.324.546-2.025v-8.803l-1.714-.39.078-.701h5.141l-.078.701-1.636.39v7.011c0 1.324-.078 2.337-.311 3.038-.234.78-.546 1.403-1.013 1.948-.467.467-1.246 1.09-2.181 1.714zm12.075-2.805c-1.09 0-2.026-.234-2.805-.779-.856-.545-1.48-1.246-1.947-2.181-.468-.935-.701-1.948-.701-3.116 0-1.247.233-2.26.779-3.194.467-.935 1.168-1.636 2.103-2.182.935-.545 2.026-.779 3.272-.779 1.091 0 2.103.312 2.883.857.856.546 1.48 1.325 1.869 2.26.468.934.701 1.947.701 3.116 0 1.09-.233 2.103-.701 3.038-.467.935-1.168 1.636-2.103 2.26-.935.389-2.026.7-3.35.7zm.234-11.374c-2.338 0-3.584 1.558-3.584 4.752 0 1.013.156 1.87.39 2.727a4.742 4.742 0 001.246 2.103c.545.546 1.324.78 2.181.78 1.325 0 2.26-.468 2.727-1.325.545-.857.779-2.025.779-3.35 0-.935-.156-1.87-.389-2.726a4.748 4.748 0 00-1.247-2.104c-.545-.623-1.246-.857-2.103-.857zm7.712 0l.078-.7h5.142l-.078.7-1.558.39v4.129h5.921v-4.13l-1.714-.389.078-.7h5.141l-.078.7-1.558.39v9.582l1.714.312-.078.779h-5.141l.078-.702 1.558-.467v-4.44h-5.921v4.518l1.714.312-.156.779h-5.142l.078-.702 1.558-.467v-9.504l-1.636-.39zm14.335 0l.078-.7h3.271l6.077 9.192v-8.024l-1.714-.39.078-.701h4.518l-.155.701-1.558.39v10.672l-1.481.312-6.232-9.348v8.024l1.714.311-.078.78h-4.518l.078-.702 1.558-.467V53.74l-1.636-.623z" fill="#000"/></svg>