<svg width="184" height="76" fill="none" xmlns="http://www.w3.org/2000/svg"><path d="M86.72 9.088c-2.026-1.48-4.753-2.025-7.168-2.415-1.48-.234-2.96-.39-4.363-.857-.7-.234-1.713-.779-2.18-1.402-1.17-1.558.389-2.415 1.713-1.558.312.234.623-.312.312-.546-1.013-.7-2.727-.856-3.039.702-.311 1.636 1.792 2.882 3.039 3.35 2.726.934 5.687.779 8.413 1.791 1.403.546 2.883 1.169 3.895 2.337.78.857 1.325 1.87 1.091 3.117-.312 1.48-1.402 2.259-2.882 1.87-.39-.079-.546.467-.156.545 1.792.545 3.272-.468 3.661-2.26.39-1.87-.779-3.505-2.337-4.674zm8.335 0c2.025-1.48 4.752-2.025 7.167-2.415 1.48-.234 2.961-.39 4.363-.857.701-.234 1.714-.779 2.181-1.402 1.169-1.558-.389-2.415-1.714-1.558-.311.234-.623-.312-.311-.545 1.012-.702 2.726-.857 3.038.7.311 1.637-1.792 2.883-3.038 3.35-2.727.935-5.687.78-8.414 1.792-1.402.546-2.882 1.169-3.895 2.338-.78.856-1.325 1.87-1.09 3.116.31 1.48 1.401 2.259 2.882 1.87.39-.079.545.467.155.545-1.791.545-3.272-.468-3.661-2.26-.39-1.87.779-3.505 2.337-4.674zM94.9 7.997c-.157 0-1.092-.7-1.715-1.324-1.168-1.402-2.259-4.83-2.337-4.83-.078 0-1.168 3.428-2.337 4.83-.545.623-1.558 1.247-1.714 1.324 2.415-.545 3.973 4.363 4.051 4.363.078 0 1.87-4.986 4.051-4.363zm-27.89 8.492c-1.325 3.194-4.441 5.453-8.18 5.61-6.622.31-11.53-5.298-15.425-9.817l-.624-.701c-3.661-4.207-7.323-6.7-10.984-7.4-.078 0-.156 0-.234-.079-1.246-.078-2.649 1.247-3.272 2.181-.078.078-.156.234-.156.312-.311.468-.623 1.09-1.246 1.247a1.64 1.64 0 01-1.714-.624c-.468-.779-.156-1.714.39-2.259.778-.779 1.947-1.09 2.726-1.324 1.09-.312 2.337-.312 3.662-.078 3.739.701 7.4 3.194 11.218 7.557l.623.7c3.817 4.441 8.57 9.972 14.958 9.583 3.895-.234 7.167-2.727 8.102-6.31.078-.312.156-.701.233-1.091.39-2.96-.623-6.856-3.817-8.57-.701-.389-1.402-.7-2.103-.856-2.571-.702-6.155-.156-7.79 2.726-.624 1.169-1.091 2.805-.39 4.13a3.352 3.352 0 001.947 1.635c.624.156 1.247.078 1.87-.233.156-.078.312 0 .39.077.078.156 0 .312-.078.39-.702.39-1.48.545-2.26.312-.934-.234-1.714-.935-2.259-1.87-.779-1.48-.311-3.428.39-4.674 1.791-3.117 5.609-3.74 8.335-2.96.78.233 1.48.545 2.26.934 3.35 1.87 4.44 5.999 4.05 9.115-.077.39-.155.779-.233 1.09-.156.546-.312.935-.39 1.247zM25.564 5.894c-.155.39-.155.779 0 1.09.234.39.702.546 1.091.468.39-.156.701-.545.935-1.013.078-.155.156-.233.234-.39.311-.545 1.168-1.557 2.181-2.025a5.93 5.93 0 00-1.636.234c-.701.156-1.792.467-2.493 1.169a2.425 2.425 0 00-.312.467zm9.426 7.246c-.077.155-.233.155-.31.155-2.026-.78-5.065-1.246-6.856-.467-1.948.857-3.272 2.648-3.506 4.518-.156 1.324.312 2.727 1.168 3.506a2.94 2.94 0 002.338.857c.39-.078.623-.39.7-.701.079-.39-.077-.78-.467-1.091-.233-.156-.467-.234-.7-.39-.546-.233-1.17-.545-1.403-1.168a2.162 2.162 0 010-1.403 1.84 1.84 0 011.09-.934c.702-.156 1.48 0 2.182.545.935.779 1.558 2.025 1.402 3.116-.078.935-.623 1.714-1.48 2.181-.39.234-.857.312-1.324.39h-.078c-.935.078-1.948-.312-2.727-1.013-1.013-.935-1.48-2.415-1.324-3.973.233-2.103 1.714-4.05 3.817-4.986 1.948-.857 5.142-.39 7.245.468.234.155.312.233.234.39zm-6.154 8.335c.078 0 .078 0 0 0 .935-.545 1.169-1.247 1.247-1.792.078-.935-.39-2.025-1.247-2.727-.545-.39-1.168-.623-1.713-.467a1.238 1.238 0 00-.78.623c-.155.312-.155.623 0 1.013.234.467.702.701 1.169.935.234.156.545.234.78.467.544.39.778 1.013.7 1.636 0 .078-.078.234-.156.312z" fill="#000"/><path d="M41.379 9.556c-.078.077-.078.077 0 0-.156.155-.312.155-.39.077-1.791-1.636-3.038-3.661-3.271-5.297-.156-1.09.077-2.181.7-2.96.468-.624 1.17-1.013 2.026-1.091.935-.078 1.948.39 2.57 1.168.39.624.546 1.247.235 1.948-.312.78-1.247 1.09-1.87.935-.623-.156-1.013-.623-1.013-1.324 0-.156.078-.234.234-.234.156 0 .234.078.234.234 0 .623.39.779.623.779.467.077 1.09-.156 1.324-.702.234-.623.078-1.09-.156-1.402-.467-.623-1.324-1.013-2.103-1.013-.701.078-1.246.39-1.636.935-.545.623-.701 1.636-.623 2.571.233 1.558 1.402 3.428 3.116 4.986v.39zm34.901 6.465c-.078.312-.234.546-.467.78-.935 1.246-2.65 1.713-3.974 1.168-.545-.234-1.012-.623-1.168-1.09-.234-.546-.078-1.247.312-1.637.233-.233.623-.311.934-.233.312.078.546.233.702.467.078.156 0 .312-.078.312-.156.078-.312 0-.312-.078a.429.429 0 00-.39-.234c-.155 0-.389 0-.545.156-.233.234-.311.701-.156 1.09.156.312.468.624.935.858 1.169.467 2.649.078 3.35-1.013.701-1.013.78-2.493.156-3.662-.312-.545-1.558-2.337-4.752-2.415-.156 0-.234-.155-.234-.233 0-.156.156-.234.234-.234 2.337.078 4.285 1.013 5.22 2.649.623 1.012.623 2.259.233 3.35zm-17.06-5.375c-.546 1.247-1.325 2.26-2.338 2.805-.078.078-.234 0-.312-.078-.078-.078-.078-.234.078-.312.78-.623.468-1.402 0-2.415-.39-.779-.857-1.947-.545-2.96.234-.623.701-1.013 1.402-1.169.701-.078 1.402.234 1.792.78.701 1.09.312 2.57.156 3.115-.156.078-.234.156-.234.234zm-1.637 1.636c.545-.545.935-1.246 1.247-2.025.155-.39.545-1.714-.078-2.65-.234-.389-.78-.622-1.247-.544-.467.077-.857.311-.935.779-.233.857.156 1.87.468 2.57.234.546.623 1.169.545 1.87z" fill="#000"/><path d="M81.188 17.657c-.156.39-.39.624-.701.702-.39.077-.78.077-1.013-.156-.39-.312-.623-.857-.623-1.402 0-.39.156-.857.234-1.247.078-.234.155-.467.155-.701.078-.701 0-1.325-.311-1.948-2.104-2.025-5.298-2.726-7.946-2.493-3.584.39-6.934 2.104-10.128 3.74l-.39.234c-3.583 1.87-7.089 3.505-10.906 3.583-3.662 0-7.167-1.48-10.517-2.96a61.047 61.047 0 00-2.181-.935c-.78-.312-1.48-.546-2.104-.78-.623-.233-1.246-.389-1.87-.545-.155 0-.233-.155-.155-.311 0-.156.155-.234.311-.156.701.156 1.325.39 1.948.545a37.89 37.89 0 012.181.78c.701.311 1.402.623 2.181.934 3.272 1.48 6.7 2.96 10.284 2.883 3.74 0 7.167-1.636 10.673-3.506l.39-.234c3.271-1.714 6.621-3.427 10.283-3.817 3.583-.312 8.18 1.013 9.893 4.83.312.623.624 1.402.546 2.181-.156.312-.156.546-.234.78zm-1.48-3.739v1.013c-.078.234-.078.545-.156.779-.078.39-.156.779-.234 1.09 0 .39.156.78.39.935a.48.48 0 00.545.078c.39-.156.546-.7.546-1.012.077-.702-.234-1.325-.546-1.948-.156-.234-.311-.623-.545-.935zm36.693 2.259a24.92 24.92 0 00-.234-1.09c-.39-3.116.701-7.245 4.051-9.115.701-.39 1.48-.701 2.259-.935 2.805-.779 6.622-.156 8.336 2.96.701 1.247 1.169 3.117.39 4.675-.468.935-1.325 1.636-2.26 1.87-.779.233-1.558.077-2.259-.312-.156-.078-.156-.234-.078-.39.078-.155.234-.155.39-.078.545.312 1.168.468 1.869.234.779-.234 1.481-.857 1.948-1.636.701-1.324.234-3.038-.39-4.129-1.636-2.882-5.219-3.428-7.79-2.726-.701.233-1.402.467-2.103.857-3.194 1.713-4.207 5.687-3.818 8.569.078.39.078.701.234 1.09.935 3.584 4.207 6.155 8.102 6.31 6.388.313 11.14-5.219 14.958-9.581l.623-.701c3.817-4.363 7.479-6.856 11.218-7.557 1.324-.234 2.493-.234 3.662.078.779.156 1.947.545 2.726 1.324.546.545.857 1.48.39 2.26a1.442 1.442 0 01-1.714.623c-.623-.156-.935-.78-1.247-1.247-.077-.078-.155-.234-.155-.312-.546-.934-2.026-2.337-3.272-2.18-.078 0-.156 0-.234.077-3.584.701-7.245 3.194-10.985 7.401l-.623.701c-3.895 4.518-8.725 10.128-15.425 9.816-3.739-.156-6.933-2.415-8.18-5.61-.156-.466-.311-.856-.389-1.245zm41.445-9.971c-.701-.701-1.714-1.013-2.493-1.169-.546-.156-1.013-.156-1.636-.234 1.013.546 1.792 1.48 2.181 2.026.078.078.156.234.234.39.234.467.467.856.935 1.012.389.078.857-.078 1.09-.467.234-.312.156-.78.078-1.09-.156-.157-.311-.39-.389-.468zm-9.115 7.712c-.078-.155 0-.311.156-.311 2.181-.857 5.375-1.247 7.245-.468 2.103.935 3.583 2.883 3.817 4.986.156 1.48-.311 3.038-1.324 3.973-.779.701-1.792 1.09-2.727 1.013h-.078c-.467 0-.935-.156-1.324-.39-.857-.467-1.402-1.246-1.48-2.18-.078-1.17.467-2.338 1.402-3.117.623-.545 1.48-.701 2.181-.545.468.155.935.467 1.091.934a1.49 1.49 0 010 1.403c-.234.623-.857.935-1.402 1.168-.234.156-.468.234-.701.39-.39.311-.546.701-.468 1.09.078.39.312.624.701.702a2.934 2.934 0 002.337-.857c.857-.857 1.325-2.182 1.169-3.506-.234-1.948-1.636-3.74-3.506-4.518-1.792-.78-4.83-.39-6.855.467-.078 0-.156-.078-.234-.234zm5.999 8.024c-.078-.623.155-1.168.701-1.636.233-.155.545-.311.779-.467.467-.234.935-.467 1.168-.935a1.154 1.154 0 000-1.013 1.235 1.235 0 00-.779-.623c-.545-.156-1.168 0-1.714.468-.857.7-1.324 1.713-1.246 2.726.078.546.312 1.247 1.168 1.792 0-.078-.077-.234-.077-.312z" fill="#000"/><path d="M142.343 10.335c0 .077.078.077 0 0 .156.155.311.155.389.077 1.792-1.636 3.039-3.661 3.272-5.297.156-1.09-.078-2.181-.701-2.96-.467-.624-1.168-1.013-2.025-1.091-.935-.078-1.948.39-2.571 1.169-.39.623-.546 1.246-.234 1.947.312.78 1.247 1.09 1.87.935.623-.156 1.013-.623 1.013-1.324 0-.156-.078-.234-.234-.234-.156 0-.234.078-.234.234 0 .623-.389.779-.623.779-.468.078-1.091-.156-1.324-.701-.234-.624-.078-1.091.155-1.403.468-.623 1.325-1.013 2.104-1.013.701.078 1.246.39 1.636.935.545.624.701 1.636.623 2.571-.234 1.558-1.402 3.428-3.116 4.986v.39zM107.442 16.8c.078.312.233.546.467.78.935 1.246 2.649 1.714 3.973 1.168.546-.233 1.013-.623 1.169-1.09.234-.546.078-1.247-.312-1.636-.234-.234-.623-.312-.935-.234-.311.078-.545.234-.701.467-.078.156 0 .312.078.312.156.078.312 0 .312-.078a.428.428 0 01.389-.234c.156 0 .39 0 .546.156.233.234.311.701.155 1.09-.155.312-.467.624-.934.858-1.169.467-2.649.078-3.35-1.013-.701-1.013-.779-2.493-.156-3.662.311-.545 1.558-2.337 4.752-2.414.156 0 .234-.156.234-.234 0-.156-.156-.234-.234-.234-2.337.078-4.285 1.013-5.22 2.649a3.642 3.642 0 00-.233 3.35zm16.983-5.609c-.234-.545-.623-2.025.156-3.116.389-.545 1.09-.857 1.791-.779.702.078 1.169.546 1.403 1.169.311 1.013-.156 2.181-.546 2.96-.467 1.013-.779 1.792 0 2.415.078.078.078.234.078.312-.078.078-.233.156-.311.078-.935-.546-1.792-1.558-2.337-2.805-.234-.078-.234-.156-.234-.234zm2.259-.077c.312-.702.779-1.714.467-2.571-.155-.468-.467-.701-.934-.78-.468-.077-1.013.157-1.247.546-.623.935-.234 2.26-.078 2.649.312.779.701 1.48 1.247 2.025-.078-.623.233-1.246.545-1.87z" fill="#000"/><path d="M102.378 17.735c-.078-.779.234-1.48.545-2.18 1.714-3.818 6.388-5.143 9.894-4.83 3.662.389 7.089 2.103 10.283 3.816l.39.234c3.506 1.792 6.933 3.506 10.673 3.506 3.583 0 7.011-1.48 10.283-2.883.701-.311 1.48-.623 2.182-.934.779-.312 1.48-.546 2.181-.78.623-.233 1.246-.389 1.947-.545.156 0 .312.078.312.156 0 .156-.078.312-.156.312-.623.155-1.246.311-1.869.545-.702.234-1.403.467-2.104.779-.701.312-1.402.623-2.181.935-3.35 1.48-6.778 2.96-10.517 2.96-3.818 0-7.323-1.714-10.907-3.583l-.389-.234c-3.194-1.714-6.544-3.428-10.128-3.74-2.649-.233-5.921.468-7.946 2.493-.312.624-.39 1.247-.312 1.948.078.234.078.467.156.701.078.39.156.78.234 1.247 0 .545-.234 1.09-.623 1.402-.312.234-.702.312-1.013.156-.312-.078-.546-.39-.701-.701-.156-.312-.234-.546-.234-.78zm1.013-1.947c-.312.623-.546 1.246-.546 1.947 0 .234.078.858.546 1.013.233.078.389 0 .545-.078.234-.233.39-.623.39-.935 0-.389-.078-.779-.234-1.09-.078-.234-.156-.468-.156-.78a2.22 2.22 0 010-1.012c-.156.156-.312.545-.545.935zm-12.543.779s-4.129 7.011-27.734 7.479c-23.605.39-38.095.39-42.224 11.218 0 0 2.104-6.233 11.608-7.479 9.504-1.246 41.133-.467 49.703-4.986 7.79-4.129 8.647-6.232 8.647-6.232z" fill="#000"/><path d="M91.627 16.956s4.13 7.012 27.734 7.48c23.605.389 38.095.389 42.224 11.217 0 0-2.103-6.232-11.608-7.478-9.504-1.247-41.133-.468-49.702-4.986-7.79-4.13-8.648-6.233-8.648-6.233zM29.149 53.805c-1.403 0-2.805-.467-3.973-1.246-2.26-1.403-3.818-3.584-5.064-5.454l-.39-.545c-2.649-4.051-5.453-8.258-10.205-10.206-1.558-.623-3.895-1.012-5.687-.311-1.013.467-1.792 1.246-2.181 2.415-.078.156-.234.234-.312.156-.156-.078-.234-.234-.156-.312.468-1.246 1.324-2.181 2.493-2.649 2.415-1.09 5.298-.078 6.077.312 4.908 2.025 7.79 6.232 10.517 10.361l.39.546c1.246 1.87 2.804 3.973 4.907 5.297 2.805 1.792 5.61 1.247 6.778-.156.779-.935.935-2.337.311-3.35-.311-.467-.857-.856-1.48-1.012-.545-.078-1.09 0-1.48.311-.156.078-.312.078-.39-.078-.077-.156-.077-.311.078-.39.546-.389 1.247-.544 1.948-.389.78.156 1.48.624 1.87 1.247.7 1.168.545 2.804-.39 3.973-1.09 1.013-2.337 1.48-3.661 1.48z" fill="#000"/><path d="M28.369 54.273c-1.636 0-3.116-.545-3.662-.779-4.908-2.025-7.79-6.232-10.517-10.36l-.39-.546c-1.246-1.87-2.804-3.973-4.907-5.298-2.805-1.791-5.61-1.246-6.778.156-.779.935-.935 2.337-.311 3.272.311.467.857.857 1.48 1.013.545.078 1.09 0 1.48-.312.156-.078.312-.078.39.078.077.156.077.312-.078.39-.546.39-1.247.545-1.948.39-.779-.157-1.48-.624-1.87-1.247-.7-1.169-.545-2.805.39-3.973 1.792-2.104 5.142-1.714 7.479-.312 2.259 1.402 3.817 3.584 5.063 5.453l.39.546c2.649 4.05 5.453 8.257 10.205 10.205 1.558.623 3.896 1.013 5.687.312 1.013-.468 1.792-1.247 2.182-2.415.078-.156.233-.234.311-.156.156.078.234.233.156.311-.467 1.247-1.324 2.182-2.493 2.65-.623.544-1.48.622-2.259.622zm126.594-.468c-1.324 0-2.571-.467-3.505-1.48-.935-1.169-1.091-2.805-.39-3.973.39-.623 1.091-1.09 1.87-1.247a2.43 2.43 0 011.947.39c.156.078.156.234.078.39-.078.155-.233.155-.389.077-.39-.311-.935-.39-1.48-.311-.624.155-1.169.467-1.481 1.012-.623.935-.467 2.338.312 3.35 1.169 1.403 3.973 1.948 6.778.156 2.181-1.402 3.661-3.428 4.908-5.297l.389-.546c2.727-4.129 5.531-8.413 10.517-10.36.779-.313 3.662-1.325 6.077-.313 1.168.546 2.025 1.403 2.493 2.65.078.155 0 .31-.156.31-.156.079-.312 0-.312-.155-.467-1.169-1.168-1.948-2.181-2.415-1.792-.78-4.051-.39-5.687.312-4.752 1.947-7.557 6.154-10.206 10.205l-.389.545c-1.247 1.948-2.883 4.051-5.064 5.454-1.324.779-2.804 1.246-4.129 1.246z" fill="#000"/><path d="M155.743 54.274a6.648 6.648 0 01-2.415-.467c-1.169-.545-2.026-1.402-2.493-2.649-.078-.156 0-.311.156-.311.156-.078.311 0 .311.155.468 1.169 1.169 1.948 2.182 2.415 1.792.78 4.051.39 5.687-.311 4.752-1.948 7.556-6.155 10.205-10.206l.39-.545c1.246-1.948 2.882-4.051 5.064-5.453 2.259-1.48 5.687-1.87 7.478.311.935 1.169 1.091 2.805.39 3.974-.39.623-1.091 1.09-1.87 1.246a2.43 2.43 0 01-1.947-.39c-.156-.078-.156-.233-.078-.39.078-.155.233-.155.389-.077.39.312.935.39 1.48.312.624-.156 1.169-.468 1.481-1.013.623-.935.467-2.337-.312-3.272-1.169-1.402-3.973-1.948-6.778-.156-2.181 1.402-3.661 3.428-4.908 5.297l-.389.546c-2.727 4.129-5.531 8.413-10.517 10.361-.39.078-1.87.623-3.506.623zm-68.79 10.749c-.078 0-.156 0-.234-.078-.779-.856-2.648-2.726-5.063-4.44-2.883 2.026-5.454 3.038-7.635 3.038h-.078c-2.181 0-3.194-1.714-3.194-3.272 0-1.558.935-3.272 3.116-3.35 2.26-.078 4.83.857 7.79 2.883 2.415-1.792 4.363-3.818 5.064-4.596.078-.156.312-.156.39 0 .7.779 2.648 2.804 5.064 4.596 2.96-1.948 5.53-2.96 7.79-2.883 2.181.078 3.116 1.792 3.116 3.35s-1.013 3.272-3.194 3.272h-.078c-2.26 0-4.83-1.012-7.635-3.038-2.415 1.636-4.284 3.584-5.063 4.44 0 0-.078.078-.156.078zm-.234-.467l.234.234-.234-.234zm-4.596-4.44c2.181 1.557 3.973 3.271 4.83 4.206.857-.857 2.57-2.649 4.83-4.207a37.424 37.424 0 01-4.83-4.362 37.433 37.433 0 01-4.83 4.362zm10.595 0c2.649 1.87 5.064 2.804 7.167 2.804h.078c1.792 0 2.649-1.402 2.649-2.727 0-1.324-.779-2.726-2.571-2.804-2.104.078-4.596.935-7.323 2.726zm-18.62-2.571h-.233c-1.792.078-2.57 1.48-2.57 2.804 0 1.325.856 2.649 2.648 2.727h.078c2.025 0 4.44-.935 7.167-2.805-2.727-1.87-5.064-2.726-7.09-2.726z" fill="#000"/><path d="M149.198 59.726h-46.353c-.155 0-.311.156-.311.312 0 .155.156.311.311.311h46.431c0-.234-.078-.39-.078-.623zm-78.215 0H24.396v.545h46.587a.335.335 0 00.311-.311c0-.078-.156-.234-.311-.234zm20.722 5.375c-.078 0-.156 0-.234-.078l-2.415-2.415c-.078-.078-.078-.311 0-.39.078-.077.312-.077.39 0l2.415 2.416c.078.078.078.311 0 .39 0 .077-.078.077-.156.077zm-7.167-7.089c-.078 0-.156 0-.234-.078l-2.103-2.103c-.078-.078-.078-.312 0-.39.078-.078.311-.078.39 0l2.103 2.104c.078.078.078.311 0 .39 0 0-.078.077-.156.077zm-2.415 7.089c-.078 0-.156 0-.234-.078-.078-.078-.078-.311 0-.39l2.415-2.414c.078-.078.312-.078.39 0 .078.078.078.311 0 .39l-2.415 2.414c0 .078-.078.078-.156.078zm7.089-7.089c-.078 0-.156 0-.234-.078-.077-.078-.077-.311 0-.39l2.104-2.103c.078-.078.312-.078.39 0 .077.078.077.312 0 .39l-2.104 2.103s-.078.078-.156.078zM16.917 69.854l.078-.234h2.103v.234l-.7.156 1.324 2.493 1.324-2.493-.857-.156v-.234h1.87v.234l-.546.156-1.558 2.882v1.87l.78.156-.078.311h-2.182v-.233l.701-.156v-1.792l-1.558-2.96-.7-.234zm8.413 5.453c-.467 0-.934-.156-1.324-.39a2.015 2.015 0 01-.857-1.09c-.233-.468-.311-.935-.311-1.48 0-.546.078-1.091.311-1.559.234-.467.546-.779.935-1.013.39-.233.935-.389 1.48-.389.546 0 .935.156 1.325.39.39.233.623.623.857 1.09.233.468.311.935.311 1.48 0 .468-.078 1.013-.311 1.403-.234.467-.546.779-.935 1.09-.39.312-.935.468-1.48.468zm.079-5.532c-.39 0-.78.078-1.013.312-.234.234-.468.468-.623.857-.156.39-.156.701-.156 1.169 0 .545.078 1.012.233 1.402.156.39.39.779.624 1.013.311.233.623.39 1.09.39.39 0 .78-.079 1.013-.312.312-.234.468-.546.623-.857.156-.39.156-.701.156-1.091 0-.545-.078-1.013-.234-1.402-.155-.39-.389-.78-.623-1.013a1.538 1.538 0 00-1.09-.468zm4.362.235l-.857-.157.078-.233h2.26v.233l-.78.156v2.96c0 .702.156 1.17.468 1.48.311.312.701.468 1.168.468.468 0 .857-.156 1.169-.467.234-.312.39-.701.39-1.325V70.01l-.858-.156v-.233h2.026l-.078.233-.779.156v2.96c0 .78-.156 1.403-.545 1.792-.312.39-.857.624-1.636.624-1.402 0-2.104-.702-2.104-2.182V70.01h.078zm8.259 5.14h-2.26l.078-.233.7-.156v-4.674l-.778-.156.078-.233c.39-.078.779-.078 1.09-.156.312 0 .624-.078.935-.078.623 0 1.09.078 1.48.311.39.234.546.546.546 1.013 0 .312-.078.623-.312.857a4.855 4.855 0 01-.935.701l.857 1.169c.234.311.39.545.468.701l.39.39a.595.595 0 00.389.155l.155.078-.077.234c-.078 0-.156.078-.234.078h-.234c-.311 0-.545-.078-.779-.312-.234-.233-.467-.467-.701-.857l-.779-1.402h-.857v2.026l.935.155-.156.39zm-.858-5.297v2.493h.935c.312-.078.545-.233.701-.467.156-.234.312-.468.312-.78 0-.233-.078-.467-.156-.7-.078-.156-.234-.312-.468-.468-.233-.078-.467-.156-.779-.156h-.311c-.156.078-.234.078-.234.078zm6.388-.311h4.83l-.156 1.48-.311-.078-.156-1.169H46.21v4.83l.78.156-.079.312h-2.26v-.234l.78-.156v-4.83h-1.48l-.234 1.169-.312-.078.156-1.402zm5.687.311l.078-.233h4.285l-.156 1.402-.312-.078-.155-1.09h-2.26v2.259h1.403l.156-.546.311-.078-.156 1.714-.311.078-.078-.857H50.65v2.337h2.415l.39-1.09.31.078-.155 1.402h-4.363v-.234l.78-.156V70.01l-.78-.156zM54.7 75.15l.078-.233.546-.156 1.792-2.415-1.636-2.415-.624-.156v-.233h2.104v.233l-.701.156 1.324 1.948 1.402-1.948-.779-.156.078-.233h1.792v.233l-.545.156-1.636 2.26 1.714 2.57.623.156-.078.234H58.05l.078-.234.702-.156-1.403-2.103-1.48 2.103.78.156-.079.312h-1.947v-.078zm6.233-5.608h4.83l-.156 1.48-.311-.078-.156-1.169h-1.558v4.83l.779.156-.078.312h-2.26v-.234l.78-.156v-4.83h-1.48l-.234 1.169-.312-.078.156-1.402zm10.127 5.765c-.467 0-.856-.078-1.246-.312-.39-.234-.701-.545-.857-1.013-.234-.39-.312-.935-.312-1.48 0-.467.078-.935.312-1.402.234-.468.468-.857.935-1.169.39-.311.935-.467 1.48-.467.701 0 1.169.156 1.558.467l-.156 1.48-.311-.078-.156-1.09c-.234-.312-.623-.468-1.169-.468-.311 0-.623.078-.857.312-.233.234-.467.468-.623.857a3.23 3.23 0 00-.234 1.246c0 .546.078 1.013.234 1.403.156.39.39.7.701.857.312.233.702.311 1.091.311.312 0 .623-.078.857-.233.312-.156.545-.312.701-.546l.156.234-.468.467c-.233.156-.467.312-.7.39-.39.156-.624.234-.935.234zm2.883-.157v-.233l.623-.156 1.948-5.141.467-.078 1.792 5.297.623.156v.312h-2.103l.078-.234.779-.156-.546-1.558h-1.947l-.623 1.636.856.156-.077.312h-1.87v-.312zm1.87-2.414h1.713l-.778-2.337-.935 2.337zm4.596-2.883l.078-.233h1.48l3.038 4.596V70.01l-.857-.156.078-.233h2.026l-.078.233-.78.156v5.22l-.467.078-3.194-4.83v4.284l.857.156-.078.312h-2.025v-.234l.779-.156v-4.752l-.857-.234zm10.595 5.297H88.9l.078-.233.78-.156v-4.674l-.78-.156.078-.233h.234c.39-.078.701-.078 1.013-.156.311 0 .545-.078.857-.078.39 0 .779.078 1.013.156.311.155.467.311.623.467.156.234.233.39.233.623 0 .312-.077.546-.233.78-.156.233-.39.389-.701.545.311 0 .545.078.779.233.233.156.39.312.467.468.078.233.156.39.156.623 0 .312-.078.623-.234.857a1.63 1.63 0 01-.779.623c-.467.234-.935.312-1.48.312zm-.701-5.297v2.26h1.246a.798.798 0 00.468-.39c.156-.156.156-.39.156-.623 0-.39-.156-.701-.39-.857-.234-.234-.623-.312-1.09-.312-.079-.156-.234-.156-.39-.078zm0 2.493v2.415h1.013c.311 0 .545-.078.779-.155.233-.078.311-.234.467-.468.078-.156.156-.39.156-.623 0-.234-.078-.39-.156-.546-.078-.155-.234-.311-.467-.467-.234-.156-.468-.156-.78-.156h-1.012zm3.973-2.493l.078-.233h4.285l-.156 1.402-.312-.078-.156-1.09h-2.259v2.259h1.402l.156-.546.312-.078-.156 1.714-.312.078-.078-.857h-1.324v2.337h2.415l.39-1.09.311.078-.156 1.402h-4.362v-.234l.779-.156V70.01l-.857-.156zm9.738 5.297h-2.493v-.233l.701-.156v-4.674l-.779-.156v-.233h.156c.389-.078.701-.078.935-.156.311 0 .545-.078.857-.078a3.62 3.62 0 011.636.39c.389.233.623.7.623 1.246 0 .39-.078.701-.312.935-.233.311-.467.467-.779.623a2.396 2.396 0 01-1.012.234h-.312l-.078-.312h.234c.545 0 .935-.156 1.168-.39.234-.233.39-.545.39-1.012 0-.234-.078-.546-.156-.701-.078-.234-.312-.39-.545-.546-.234-.156-.546-.233-.857-.233h-.468v4.908l1.091.155v.39zm2.727 0v-.233l.779-.156V70.01l-.779-.156.077-.233h2.26v.233l-.779.156v4.83h2.181l.467-1.168.312.078-.156 1.48h-4.362v-.078zm5.297 0v-.233l.623-.156 1.948-5.141.467-.078 1.792 5.297.623.156v.312h-2.103l.078-.234.779-.156-.545-1.558h-1.948l-.623 1.636.857.156-.078.312h-1.87v-.312zm1.87-2.414h1.714l-.779-2.337-.935 2.337zm7.011 2.571c-.467 0-.857-.078-1.246-.312-.39-.234-.701-.545-.857-1.013-.234-.39-.312-.935-.312-1.48 0-.467.078-.935.312-1.402.233-.468.467-.857.935-1.169.389-.311.934-.467 1.48-.467.701 0 1.168.156 1.558.467l-.156 1.48-.312-.078-.155-1.09c-.234-.312-.624-.468-1.169-.468-.312 0-.623.078-.857.312-.234.234-.467.468-.623.857a3.23 3.23 0 00-.234 1.246c0 .546.078 1.013.234 1.403.156.39.389.7.701.857.312.233.701.311 1.091.311.311 0 .623-.078.857-.233.311-.156.545-.312.701-.546l.156.234-.468.467c-.234.156-.467.312-.701.39a2.075 2.075 0 01-.935.234zm2.883-5.454l.078-.233h4.284l-.156 1.402-.311-.078-.156-1.09h-2.259v2.259h1.402l.156-.546.312-.078-.156 1.714-.312.078-.078-.857h-1.402v2.337h2.415l.389-1.09.312.078-.156 1.402h-4.362v-.234l.779-.156V70.01l-.779-.156zm7.478 5.297h-2.025l.078-.233.779-.156v-4.674l-.779-.156.078-.233c.467-.078.857-.156 1.246-.156.312 0 .701-.078 1.013-.078.779 0 1.402.156 1.87.39.467.233.779.545 1.012 1.012.234.39.312.857.312 1.325 0 .545-.156 1.012-.39 1.48-.233.467-.623.779-1.09 1.09-.701.234-1.325.39-2.104.39zm-.545-5.297v4.908h.701c.546 0 .935-.078 1.325-.311.389-.234.701-.468.857-.857.233-.39.311-.78.311-1.247 0-.545-.078-.935-.311-1.324-.156-.39-.468-.701-.857-.935-.39-.234-.857-.312-1.403-.312-.311.078-.545.078-.623.078zm6.7 0v-.233h2.259v.233l-.779.156v2.182h3.038v-2.182l-.857-.156.078-.233h2.259l-.077.233-.779.156v4.83l.856.156v.312h-2.259l.078-.234.779-.156v-2.259h-3.038v2.26l.857.155-.078.312h-2.259v-.234l.779-.156v-4.752l-.857-.39zm6.933 0l.078-.233h4.285l-.156 1.402-.311-.078-.156-1.09h-2.259v2.259h1.402l.156-.546.311-.078-.156 1.714-.311.078-.078-.857h-1.402v2.337h2.415l.389-1.09.312.078-.156 1.402h-4.363v-.234l.779-.156V70.01l-.779-.156zm7.713 5.297h-2.259l.078-.233.701-.156v-4.674l-.779-.156.078-.233c.389-.078.779-.078 1.09-.156.312 0 .623-.078.935-.078.623 0 1.091.078 1.48.311.39.234.546.546.546 1.013 0 .312-.078.623-.312.857a4.851 4.851 0 01-.935.701l.857 1.169c.234.311.39.545.467.701l.39.39a.596.596 0 00.39.155l.155.078-.078.234c-.077 0-.155.078-.233.078h-.234c-.312 0-.545-.078-.779-.312-.234-.233-.467-.467-.701-.857l-.779-1.402h-.857v2.026l.935.155-.156.39zm-.857-5.297v2.493h.935c.311-.078.545-.233.701-.467.156-.234.312-.468.312-.78 0-.233-.078-.467-.156-.7-.078-.156-.234-.312-.468-.468-.233-.078-.467-.156-.779-.156h-.311c-.156.078-.234.078-.234.078zm4.518 0l.078-.233h4.285l-.156 1.402-.311-.078-.156-1.09h-2.259v2.259h1.402l.156-.546.311-.078-.156 1.714-.311.078-.078-.857h-1.402v2.337h2.415l.389-1.09.312.078-.156 1.402h-4.363v-.234l.779-.156V70.01l-.779-.156zM44.184 48.119c-.857 0-1.636-.156-2.338-.545-.7-.39-1.324-.935-1.713-1.636-.468-.702-.624-1.636-.624-2.65 0-.856.156-1.713.546-2.492.39-.78.934-1.48 1.714-2.026.779-.545 1.713-.857 2.882-.857.545 0 1.09.078 1.558.156.467.156.935.312 1.246.623l-.233 2.65-.701-.079-.312-1.714c-.234-.233-.467-.467-.779-.623-.312-.156-.779-.233-1.246-.233-.546 0-1.091.155-1.48.467-.468.312-.78.779-1.091 1.402a6.062 6.062 0 00-.39 2.181c0 .935.156 1.714.468 2.338.311.623.779 1.168 1.324 1.48a3.619 3.619 0 001.792.467c.467 0 1.012-.078 1.48-.311a7.715 7.715 0 001.324-.857l.312.623c-.234.312-.545.545-.935.779-.39.234-.779.467-1.246.623a5.398 5.398 0 01-1.558.234zm4.284-.157l.078-.623 1.169-.468 3.35-8.803 1.168-.233 3.116 9.036 1.091.312-.078.623h-4.05l.077-.623 1.324-.467-.857-2.415h-3.35l-.779 2.415 1.48.311-.077.623h-3.662v.312zm3.428-4.285h2.805l-1.325-3.973-1.48 3.973zm12.464 4.285h-4.362l.078-.623 1.324-.39v-7.79l-1.324-.234.078-.623c.701-.078 1.402-.234 1.947-.234.546-.078 1.091-.078 1.636-.078 1.247 0 2.26.156 2.96.546.702.39 1.014 1.012 1.014 1.87 0 .311-.078.7-.234 1.09-.156.39-.468.701-.78 1.013-.31.312-.778.545-1.246.701l1.403 1.948c.39.545.7.934.857 1.168.233.234.39.468.623.623.233.156.467.312.779.39l.234.078-.156.545c-.312.078-.624.156-.935.156-.623 0-1.09-.156-1.558-.545-.468-.39-.857-.935-1.247-1.636l-1.246-2.26h-1.402v3.272l1.48.312.078.701zm-1.402-9.27v4.284h1.558c.468-.156.858-.39 1.091-.779.312-.311.468-.779.468-1.324 0-.468-.078-.857-.234-1.169-.156-.311-.39-.623-.78-.779-.31-.156-.7-.311-1.168-.311h-.623c-.156.078-.234.078-.312.078zm6.856 9.27l.078-.623 1.169-.468 3.35-8.803 1.168-.233 3.116 9.036 1.09.312-.077.623h-4.051l.078-.623 1.324-.467-.857-2.415h-3.35l-.779 2.415 1.48.311-.078.623h-3.661v.312zm3.428-4.285h2.804l-1.324-3.973-1.48 3.973zm20.8 3.74l-.156.545c-.311.078-.623.156-.934.156-.39 0-.78-.156-1.247-.39a7.66 7.66 0 01-1.168-.934 4.566 4.566 0 01-1.48 1.012c-.546.234-1.17.312-1.87.312-.546 0-1.091-.078-1.48-.312-.39-.233-.78-.467-1.013-.856-.234-.39-.312-.858-.312-1.325 0-.623.156-1.169.545-1.714.39-.545.935-.935 1.714-1.324-.233-.312-.39-.546-.545-.701-.156-.234-.234-.468-.312-.702a2.8 2.8 0 01-.155-.856c0-.39.155-.78.39-1.169.233-.39.544-.701.934-.935.39-.233.779-.311 1.168-.311.468 0 .857.078 1.247.233.312.156.623.39.779.701.156.312.312.624.312 1.013 0 .546-.156 1.013-.546 1.48-.311.39-.779.78-1.324 1.091v.078a42.49 42.49 0 002.337 2.57c.312-.7.545-1.48.701-2.492l-1.168-.234.078-.623h3.505l-.078.623-1.402.312c-.234 1.168-.545 2.103-1.013 2.96 1.013 1.013 1.792 1.558 2.26 1.714l.233.078zm-7.79-1.402c.156.311.39.545.7.7a2.15 2.15 0 001.014.234c.857 0 1.558-.311 2.103-.856l-2.882-3.117h-.156c-.39.312-.701.546-.857.857-.156.312-.234.701-.234 1.169.078.39.156.779.312 1.013zm1.013-7.09c-.156.234-.234.546-.234.935 0 .39.078.701.311 1.09.234.39.468.702.78.936.233-.156.467-.312.623-.468.155-.156.233-.311.39-.545.077-.234.155-.467.155-.78 0-.467-.078-.856-.312-1.168-.155-.311-.467-.467-.934-.467-.39.078-.624.156-.78.467zm11.607 11.608l-.39-.7c.624-.624 1.091-1.17 1.403-1.715a3.33 3.33 0 00.467-1.714v-7.4l-1.402-.312.078-.623h4.285l-.078.623-1.324.311v5.921c0 1.09-.078 1.948-.312 2.57a4.13 4.13 0 01-.857 1.637c-.467.39-1.09.857-1.87 1.402zm4.908-2.571l.078-.623 1.169-.468 3.35-8.803 1.168-.233 3.116 9.036 1.091.312-.078.623h-4.051l.078-.623 1.324-.467-.857-2.415h-3.35l-.779 2.415 1.481.311-.078.623h-3.662v.312zm3.428-4.285h2.805l-1.325-3.973-1.48 3.973zm7.868 4.285l.078-.623 1.325-.39.545-7.946-1.48-.311.078-.623h3.194l.623 1.558 2.103 5.842 2.415-6.076.546-1.247h3.116l-.078.624-1.324.311.389 8.024 1.48.234-.078.623h-4.284l.078-.623 1.324-.39-.467-7.01-3.039 7.556-1.012.156-2.727-7.401-.468 6.778 1.481.233-.078.623h-3.74v.078zm14.257-9.27l.078-.623h7.868l-.234 2.57-.701-.078-.311-1.713h-3.74v3.739h2.337l.312-.935.779-.078-.234 3.116-.701.078-.234-1.402h-2.181v3.895h3.895l.779-1.792.624.078-.234 2.493h-8.024l.078-.623 1.324-.39v-7.946l-1.48-.39zm12.075 9.426a5.022 5.022 0 01-1.558-.234c-.468-.156-.857-.39-1.091-.623l.078-2.26.779.079.312 1.48c.156.234.389.39.701.545.312.156.623.234.935.234.311 0 .623-.078.857-.156.311-.156.545-.312.701-.545.156-.234.311-.545.311-.935a1.32 1.32 0 00-.233-.78 2.384 2.384 0 00-.623-.622c-.234-.156-.624-.39-1.091-.623-.545-.312-1.013-.546-1.325-.78a3.317 3.317 0 01-.856-.934c-.234-.39-.39-.78-.39-1.325 0-.545.156-1.09.467-1.48.312-.39.702-.779 1.169-.935.467-.233.935-.311 1.48-.311.857 0 1.636.233 2.259.779 0 .233-.077.623-.077 1.168-.078.546-.078.857-.078 1.09l-.779-.077-.234-1.48c-.078-.078-.156-.234-.312-.312a1.628 1.628 0 00-.467-.312c-.156-.077-.39-.155-.546-.155-.389 0-.779.156-1.012.39-.234.233-.39.623-.39 1.09 0 .39.078.701.312 1.013.234.311.467.545.779.7.311.234.701.468 1.168.702.546.312.935.545 1.247.779.312.234.545.467.779.779.234.312.312.701.312 1.09a2.63 2.63 0 01-.468 1.559c-.311.467-.779.779-1.324 1.09-.546.234-1.169.312-1.792.312z" fill="#000"/></svg>