<svg width="159" height="85" fill="none" xmlns="http://www.w3.org/2000/svg"><path d="M36.371 34.728h-.234c-.078 0-.155 0-.311.078-.078 0-.234.078-.39.156-.233.156-.467.545-.467 1.013 0 .234.078.467.156.701.078.234.233.468.39.701.155.234.389.468.7.545.312.156.701.156 1.091.078.39-.155.701-.39.935-.623l.078-.078.078-.078c.078-.077.155-.155.155-.233.078-.156.234-.312.312-.546.078-.156.156-.39.312-.545.078-.078.078-.156.155-.312.078-.078.078-.233.078-.311.156-.39.234-.857.234-1.403a2.76 2.76 0 00-.467-1.48c-.312-.467-.78-.779-1.247-1.012-1.013-.468-2.259-.546-3.35-.078a6.369 6.369 0 00-1.558.935c-.467.39-.857.934-1.168 1.558-.078.155-.156.311-.156.467-.078.156-.078.312-.156.467-.078.156-.078.312-.156.468 0 .156-.078.312-.078.467-.077.312-.155.624-.155.935v1.48c0 .156.077.312.077.546 0 .155.078.311.156.545l.078.234c0 .078.078.156.078.233l.078.234c0 .078.078.156.078.234l.234.467c.077.156.233.312.311.468.078.155.234.311.312.39a7.084 7.084 0 001.636 1.401c.623.39 1.246.702 1.87 1.013.311.156.7.234 1.012.39.312.078.701.234 1.013.311l2.103.468c1.48.233 2.96.311 4.441.233.39 0 .779-.077 1.09-.077.39 0 .702-.078 1.091-.078.78-.078 1.48-.156 2.26-.234 2.025-.234 4.05-.545 5.998-1.013 1.013-.234 1.948-.545 2.883-.857.934-.39 1.87-.779 2.726-1.402.39-.312.857-.623 1.169-1.09.311-.39.623-.935.779-1.403.156-.545.234-1.09.156-1.636-.078-.545-.234-1.013-.39-1.48-.233-.468-.467-.857-.701-1.247-.312-.389-.623-.779-1.013-1.012a3.95 3.95 0 00-1.246-.701c-.468-.156-.857-.312-1.325-.39a7.124 7.124 0 00-2.57 0 12.4 12.4 0 00-2.338.468c-1.48.389-2.804.934-3.973 1.558-2.415 1.168-4.362 2.337-5.92 3.271-1.636.858-3.584 2.026-5.843 3.428-1.09.701-2.26 1.48-3.506 2.26a62.46 62.46 0 01-4.05 2.337c-2.883 1.48-6.077 2.804-9.661 3.505a26.455 26.455 0 01-5.61.39h-.779c-.233 0-.467 0-.7-.078-.468 0-.935-.078-1.48-.156-1.013-.078-1.948-.311-2.883-.545a13.164 13.164 0 01-3.895-1.558c-1.169-.701-2.104-1.636-2.649-2.727-.312-.545-.467-1.169-.623-1.792-.078-.623-.156-1.246-.078-1.791.078-.624.234-1.17.545-1.714.234-.546.624-1.013 1.013-1.48.156-.234.39-.468.623-.702l.312-.311.311-.312a.608.608 0 00.312-.312c.156-.078.234-.155.39-.233.233-.156.467-.312.779-.468 1.012-.623 2.103-1.012 3.194-1.324 2.103-.545 4.285-.545 6.076.078.857.311 1.636.779 2.26 1.402a3.662 3.662 0 011.168 1.948c.156.7 0 1.402-.312 1.947a6.715 6.715 0 01-1.09 1.403 7.515 7.515 0 01-2.104 1.324c-.233.078-.467.156-.623.234-.156.078-.234.078-.234.078s.078 0 .234-.078c.156 0 .39-.078.623-.156.546-.156 1.325-.545 2.26-1.247.467-.39.857-.779 1.246-1.402.39-.623.623-1.402.468-2.26-.078-.856-.546-1.713-1.17-2.336a6.808 6.808 0 00-2.414-1.714c-.935-.39-2.026-.623-3.116-.701-1.09-.078-2.26 0-3.506.311-1.169.234-2.337.701-3.506 1.325-.311.156-.545.311-.857.467-.155.078-.311.156-.39.234-.155.078-.233.234-.389.312-.155.077-.233.233-.39.311-.155.078-.233.234-.389.312a6.922 6.922 0 00-.7.779 10.4 10.4 0 00-1.247 1.792c-.312.623-.546 1.402-.701 2.103-.156.779-.078 1.558 0 2.26.155.778.311 1.48.7 2.18.702 1.403 1.87 2.571 3.195 3.428 1.324.857 2.804 1.403 4.362 1.714 1.013.234 2.026.468 3.117.545.545.078 1.012.156 1.558.156.233 0 .545 0 .779.078h.779c2.025.078 3.973-.155 5.92-.545 1.87-.39 3.662-.935 5.376-1.636 1.636-.701 3.194-1.48 4.674-2.26 1.402-.856 2.727-1.713 3.973-2.492 1.247-.857 2.337-1.714 3.428-2.415A152.05 152.05 0 0143.695 38c1.635-.856 3.66-1.947 6.076-2.96 1.246-.467 2.493-.935 3.895-1.246.701-.156 1.402-.312 2.181-.39a7.415 7.415 0 012.26.078c.7.156 1.402.467 1.947.935.312.234.545.545.701.857.234.311.39.7.545 1.013.312.7.39 1.48.156 2.103-.234.623-.779 1.246-1.48 1.714-.701.467-1.48.857-2.337 1.168-.857.312-1.792.546-2.727.78-1.87.467-3.817.7-5.843.934-.7.078-1.48.156-2.18.234-.39 0-.702.078-1.092.078-.389 0-.7.078-1.09.078-1.402.078-2.805 0-4.13-.234-.7-.078-1.323-.234-2.025-.39l-.934-.233c-.312-.078-.624-.234-.935-.312-.623-.233-1.169-.467-1.714-.857a6.716 6.716 0 01-1.402-1.09l-.312-.312c-.078-.078-.156-.234-.234-.312-.078-.155-.156-.233-.233-.39 0-.077-.078-.155-.078-.155l-.078-.156c0-.078-.078-.156-.078-.156l-.078-.233c-.078-.156-.078-.234-.078-.39s-.078-.233-.078-.39v-1.168c0-.311.078-.545.156-.857 0-.156.078-.311.078-.39 0-.155.078-.233.078-.389.078-.156.078-.311.156-.39.077-.155.077-.233.155-.389.39-.935 1.169-1.636 2.026-2.025.857-.39 1.87-.39 2.649-.078.39.156.7.39 1.012.7.234.313.39.702.39 1.091.078.78-.234 1.559-.546 2.26 0 .078-.077.155-.155.233-.078.078-.078.156-.156.234-.078.078-.078.156-.156.234l-.078.078-.078.078c-.233.233-.467.467-.7.623-.235.156-.546.078-.78 0a1.211 1.211 0 01-.623-.467 1.696 1.696 0 01-.39-.624c-.078-.233-.155-.467-.155-.623 0-.39.078-.779.311-.935.078-.078.234-.156.312-.156.078 0 .156-.078.233-.078h.312z" fill="#000"/><path d="M36.137 55.685h.234c.078 0 .156 0 .312-.078.078 0 .233-.078.39-.156.233-.156.467-.545.467-1.013 0-.233-.078-.467-.156-.7-.078-.234-.234-.468-.39-.702-.155-.234-.39-.467-.7-.545-.312-.156-.702-.156-1.091-.078-.39.156-.702.39-.935.623l-.078.078-.078.078c-.078.078-.156.156-.156.234-.078.155-.234.311-.312.545-.077.156-.155.39-.311.545-.078.078-.078.156-.156.312-.078.078-.078.234-.078.311-.156.39-.234.857-.234 1.403 0 .467.156 1.012.468 1.48.312.467.779.779 1.246 1.013 1.013.467 2.26.545 3.35.078a6.367 6.367 0 001.558-.935c.468-.39.857-.935 1.169-1.558.078-.156.156-.312.156-.468.078-.156.078-.311.156-.467.077-.156.077-.312.155-.468 0-.155.078-.311.078-.467.078-.312.156-.623.156-.935v-1.48c0-.156-.078-.312-.078-.545 0-.156-.078-.312-.156-.546l-.078-.233c0-.078-.078-.156-.078-.234l-.077-.234c0-.078-.078-.156-.078-.234l-.234-.467c-.078-.156-.234-.312-.312-.467-.078-.156-.233-.312-.311-.39a7.083 7.083 0 00-1.636-1.402c-.623-.39-1.247-.701-1.87-1.013-.312-.156-.701-.234-1.013-.39-.311-.077-.7-.233-1.013-.311L32.32 45.4a21.24 21.24 0 00-4.44-.233c-.39 0-.78.078-1.091.078-.39 0-.701.078-1.09.078-.78.077-1.48.155-2.26.233-2.026.234-4.051.546-5.999 1.013-1.012.234-1.947.545-2.882.857-.935.39-1.87.779-2.727 1.402-.39.312-.857.623-1.168 1.09a4.96 4.96 0 00-.78 1.403c-.155.545-.233 1.09-.155 1.636.078.546.234 1.013.39 1.48.233.468.467.857.7 1.247.312.39.624.779 1.013 1.013.39.311.78.545 1.247.7.467.156.857.312 1.324.39a7.129 7.129 0 002.571 0 12.422 12.422 0 002.337-.467c1.48-.39 2.805-.935 3.973-1.558 2.415-1.169 4.363-2.337 5.92-3.272 1.637-.857 3.585-2.026 5.844-3.428 1.09-.701 2.259-1.48 3.505-2.26a62.39 62.39 0 014.051-2.336c2.883-1.48 6.077-2.805 9.66-3.506a26.454 26.454 0 015.61-.39h.779c.233 0 .467 0 .7.078.468 0 .936.078 1.481.156 1.013.078 1.948.312 2.883.545 1.402.312 2.726.857 3.895 1.558 1.168.702 2.103 1.636 2.648 2.727.312.546.468 1.169.624 1.792.078.623.156 1.246.078 1.792-.078.623-.234 1.168-.546 1.714-.234.545-.623 1.012-1.013 1.48-.155.234-.389.467-.623.701l-.311.312-.312.311a.608.608 0 00-.312.312c-.155.078-.233.156-.39.233-.233.156-.466.312-.778.468-1.013.623-2.104 1.013-3.194 1.324-2.104.546-4.285.546-6.077-.078-.857-.311-1.636-.779-2.259-1.402a3.661 3.661 0 01-1.169-1.947c-.155-.702 0-1.403.312-1.948a6.716 6.716 0 011.09-1.402 7.512 7.512 0 012.104-1.325c.234-.078.468-.156.623-.233.156-.078.234-.078.234-.078s-.078 0-.234.078c-.155 0-.39.078-.623.155-.545.156-1.324.546-2.26 1.247-.466.39-.856.779-1.245 1.402-.39.623-.624 1.402-.468 2.26.078.856.545 1.713 1.169 2.337a6.81 6.81 0 002.415 1.713c.934.39 2.025.624 3.116.701 1.09.078 2.259 0 3.505-.311 1.17-.234 2.338-.701 3.506-1.325.312-.155.545-.311.857-.467.156-.078.312-.156.39-.234.155-.078.233-.233.39-.311.155-.078.233-.234.389-.312.156-.078.233-.234.39-.312.233-.233.467-.467.7-.778.468-.546.857-1.091 1.247-1.792.311-.623.545-1.403.701-2.104.156-.779.078-1.558 0-2.259-.156-.779-.312-1.48-.701-2.181-.701-1.402-1.87-2.571-3.194-3.428-1.325-.857-2.805-1.402-4.363-1.714-1.013-.234-2.025-.467-3.116-.545-.545-.078-1.013-.156-1.558-.156-.234 0-.546 0-.78-.078h-.779c-2.025-.078-3.972.156-5.92.545-1.87.39-3.661.935-5.375 1.636-1.636.702-3.194 1.48-4.675 2.26-1.402.856-2.726 1.713-3.973 2.492-1.246.857-2.337 1.714-3.428 2.416a151.8 151.8 0 01-5.609 3.817c-1.636.857-3.661 1.947-6.076 2.96-1.247.468-2.493.935-3.895 1.247-.701.155-1.403.311-2.182.39a7.415 7.415 0 01-2.259-.079c-.701-.155-1.402-.467-1.947-.935a2.435 2.435 0 01-.702-.857c-.233-.311-.39-.7-.545-1.012-.312-.701-.39-1.48-.156-2.104.234-.623.78-1.246 1.48-1.714.702-.467 1.48-.856 2.338-1.168.857-.312 1.791-.545 2.726-.78 1.87-.467 3.817-.7 5.843-.934.701-.078 1.48-.156 2.181-.234.39 0 .701-.078 1.091-.078s.701-.078 1.09-.078c1.403-.078 2.805 0 4.13.234.7.078 1.324.234 2.025.39l.935.233c.312.078.623.234.935.312.623.234 1.168.467 1.714.857a6.723 6.723 0 011.402 1.09l.312.312c.078.078.155.234.233.312.078.156.156.233.234.39 0 .077.078.155.078.155l.078.156c0 .078.078.156.078.156l.078.233c.078.156.078.234.078.39s.077.234.077.39v1.169c0 .31-.078.544-.155.856 0 .156-.078.312-.078.39 0 .155-.078.233-.078.39-.078.155-.078.31-.156.389-.078.155-.078.233-.156.39-.39.934-1.168 1.635-2.025 2.025-.857.39-1.87.39-2.65.078-.389-.156-.7-.39-1.012-.702-.233-.311-.39-.7-.39-1.09-.077-.78.234-1.558.546-2.26 0-.077.078-.155.156-.233.078-.078.078-.156.156-.234.078-.078.078-.156.155-.234l.078-.078.078-.077c.234-.234.468-.468.701-.624.234-.155.546-.078.78 0 .233.078.467.234.623.468.155.156.311.39.39.623.077.234.155.467.155.623 0 .39-.078.78-.312.935-.078.078-.233.156-.311.156-.078 0-.156.078-.234.078h-.312zm86.318-20.333h.234a.59.59 0 01.312.078c.078 0 .233.078.389.155.234.156.468.546.468 1.013 0 .234-.078.468-.156.701-.078.234-.234.468-.39.702-.156.233-.389.467-.701.545-.311.156-.701.156-1.091.078a2.795 2.795 0 01-.934-.623l-.078-.078-.078-.078c-.078-.078-.156-.156-.156-.234-.078-.156-.234-.312-.312-.545-.078-.156-.155-.39-.311-.546-.078-.078-.078-.156-.156-.311-.078-.078-.078-.234-.078-.312-.156-.39-.234-.857-.234-1.402 0-.468.156-1.013.468-1.48.311-.468.779-.78 1.246-1.013 1.013-.468 2.259-.546 3.35-.078a6.364 6.364 0 011.558.935c.468.39.857.935 1.169 1.558.078.156.156.311.156.467.078.156.077.312.155.468.078.156.078.311.156.467 0 .156.078.312.078.468.078.311.156.623.156.934v1.481c0 .155-.078.311-.078.545 0 .156-.078.312-.156.545l-.078.234c0 .078-.078.156-.078.234l-.078.233c0 .078-.077.156-.077.234l-.234.468c-.078.155-.234.311-.312.467-.078.156-.233.312-.311.39a7.102 7.102 0 01-1.636 1.402c-.624.39-1.247.7-1.87 1.013-.312.155-.701.233-1.013.389-.311.078-.701.234-1.013.312l-2.103.467c-1.48.234-2.96.312-4.44.234-.39 0-.78-.078-1.091-.078-.39 0-.701-.078-1.091-.078-.779-.078-1.48-.156-2.259-.234-2.026-.233-4.051-.545-5.999-1.012-1.012-.234-1.947-.546-2.882-.857-.935-.39-1.87-.78-2.727-1.403-.39-.311-.857-.623-1.168-1.09a4.961 4.961 0 01-.78-1.403c-.155-.545-.233-1.09-.155-1.636.078-.545.233-1.012.39-1.48.233-.467.467-.857.7-1.246.312-.39.624-.78 1.013-1.013a3.96 3.96 0 011.247-.701c.467-.156.857-.312 1.324-.39a7.13 7.13 0 012.571 0 12.42 12.42 0 012.337.468c1.48.39 2.805.935 3.973 1.558 2.415 1.168 4.363 2.337 5.921 3.272 1.636.857 3.583 2.025 5.843 3.428 1.09.7 2.259 1.48 3.505 2.259a62.574 62.574 0 004.051 2.337c2.883 1.48 6.077 2.804 9.66 3.506a26.56 26.56 0 005.61.39h.779c.233 0 .467 0 .701-.079.467 0 .935-.078 1.48-.156 1.013-.078 1.948-.311 2.882-.545a13.166 13.166 0 003.896-1.558c1.168-.701 2.103-1.636 2.648-2.727.312-.545.468-1.168.624-1.791.078-.624.155-1.247.077-1.792-.077-.623-.233-1.169-.545-1.714-.234-.545-.623-1.013-1.013-1.48-.155-.234-.389-.468-.623-.702l-.311-.311-.312-.312a.609.609 0 01-.312-.311c-.155-.078-.233-.156-.389-.234-.234-.156-.468-.312-.779-.467-1.013-.624-2.104-1.013-3.194-1.325-2.104-.545-4.285-.545-6.077.078-.857.312-1.636.78-2.259 1.402a3.664 3.664 0 00-1.169 1.948 2.76 2.76 0 00.312 1.948 6.718 6.718 0 001.091 1.402 7.516 7.516 0 002.103 1.324c.234.078.467.156.623.234.156.078.234.078.234.078s-.078 0-.234-.078c-.156 0-.389-.078-.623-.156-.545-.156-1.324-.545-2.259-1.246-.468-.39-.857-.78-1.247-1.403-.389-.623-.623-1.402-.467-2.259.078-.857.545-1.714 1.169-2.337a6.804 6.804 0 012.415-1.714c.934-.39 2.025-.623 3.116-.701 1.09-.078 2.259 0 3.505.312 1.169.233 2.338.7 3.506 1.324.312.156.545.312.857.467.156.078.312.156.39.234.155.078.233.234.389.312.156.078.234.233.39.311.155.078.233.234.389.312.234.234.468.467.701.779.468.545.857 1.09 1.247 1.792.311.623.545 1.402.701 2.103.156.78.078 1.558 0 2.26-.156.779-.312 1.48-.701 2.18-.701 1.403-1.87 2.572-3.194 3.429-1.325.857-2.805 1.402-4.363 1.714-1.013.233-2.026.467-3.116.545-.545.078-1.013.156-1.558.156-.234 0-.546 0-.779.077h-.779c-2.026.078-3.973-.155-5.921-.545a30.676 30.676 0 01-5.375-1.636c-1.636-.701-3.195-1.48-4.675-2.259-1.402-.857-2.726-1.714-3.973-2.493-1.246-.857-2.337-1.714-3.428-2.415a151.762 151.762 0 00-5.609-3.817c-1.636-.857-3.661-1.948-6.076-2.96-1.247-.468-2.493-.936-3.895-1.247-.702-.156-1.403-.312-2.182-.39a7.414 7.414 0 00-2.259.078c-.701.156-1.402.468-1.948.935a2.434 2.434 0 00-.7.857c-.234.312-.39.701-.546 1.013-.312.7-.39 1.48-.156 2.103.234.623.78 1.247 1.48 1.714.702.468 1.481.857 2.337 1.169.857.311 1.792.545 2.727.779 1.87.467 3.817.7 5.843.935.701.078 1.48.155 2.181.233.39 0 .701.078 1.091.078.389 0 .701.078 1.091.078 1.402.078 2.804 0 4.129-.234.701-.078 1.324-.233 2.025-.39l.935-.233c.312-.078.623-.234.935-.312.623-.233 1.168-.467 1.714-.856a6.736 6.736 0 001.402-1.091l.312-.312c.077-.078.155-.233.233-.311.078-.156.156-.234.234-.39 0-.078.078-.156.078-.156l.078-.155c0-.078.078-.156.078-.156l.078-.234c.077-.156.077-.234.077-.39 0-.155.078-.233.078-.389v-1.169c0-.311-.078-.545-.155-.856 0-.156-.078-.312-.078-.39 0-.156-.078-.234-.078-.39-.078-.155-.078-.311-.156-.39-.078-.155-.078-.233-.156-.389-.389-.934-1.168-1.636-2.025-2.025-.857-.39-1.87-.39-2.649-.078-.39.156-.701.39-1.013.701-.234.312-.389.701-.389 1.09-.078.78.233 1.559.545 2.26 0 .078.078.156.156.234.078.078.078.156.156.233.077.078.077.156.155.234l.078.078.078.078c.234.234.468.467.701.623.234.156.546.078.779 0 .234-.078.468-.233.624-.467.155-.156.311-.39.389-.623.078-.234.156-.468.156-.624 0-.39-.078-.779-.312-.935-.078-.078-.233-.155-.311-.155-.078 0-.156-.078-.234-.078h-.312z" fill="#000"/><path d="M122.611 56.308h-.234c-.077 0-.155 0-.311-.078-.078 0-.234-.078-.39-.156-.233-.156-.467-.545-.467-1.012 0-.234.078-.468.156-.702.078-.233.233-.467.389-.7.156-.234.39-.468.701-.546.312-.156.701-.156 1.091-.078.389.156.701.39.935.623l.078.078.078.078c.077.078.155.156.155.234.078.156.234.311.312.545.078.156.156.39.312.545.077.078.078.156.155.312.078.078.078.234.078.312.156.39.234.857.234 1.402 0 .467-.156 1.013-.467 1.48-.312.467-.779.78-1.247 1.013-1.013.467-2.259.545-3.35.078a6.385 6.385 0 01-1.558-.935c-.467-.39-.857-.935-1.168-1.558-.078-.156-.156-.312-.156-.468-.078-.155-.078-.311-.156-.467-.078-.156-.078-.312-.156-.468 0-.155-.078-.311-.078-.467-.078-.311-.155-.623-.155-.935v-1.48c0-.156.077-.312.077-.545 0-.156.078-.312.156-.546l.078-.233c0-.078.078-.156.078-.234l.078-.234c0-.078.078-.155.078-.233l.234-.468c.077-.156.233-.312.311-.467.078-.156.234-.312.312-.39a7.08 7.08 0 011.636-1.402c.623-.39 1.246-.701 1.869-1.013.312-.156.702-.233 1.013-.39.312-.077.701-.233 1.013-.311l2.103-.467a21.248 21.248 0 014.441-.234c.389 0 .779.078 1.091.078.389 0 .701.078 1.09.078.779.078 1.48.155 2.259.233 2.026.234 4.051.546 5.999 1.013 1.013.234 1.948.546 2.883.857.934.39 1.869.78 2.726 1.402.39.312.857.624 1.169 1.091.311.39.623.935.779 1.402.156.546.234 1.091.156 1.636-.078.546-.234 1.013-.39 1.48-.234.468-.467.857-.701 1.247-.312.39-.623.779-1.013 1.013a3.948 3.948 0 01-1.246.7c-.468.157-.857.313-1.325.39a7.13 7.13 0 01-2.571 0 12.42 12.42 0 01-2.337-.467 18.373 18.373 0 01-3.973-1.558c-2.415-1.169-4.362-2.337-5.92-3.272-1.636-.857-3.584-2.026-5.843-3.428-1.091-.701-2.259-1.48-3.506-2.26a62.306 62.306 0 00-4.051-2.336c-2.882-1.48-6.076-2.805-9.66-3.506a26.45 26.45 0 00-5.609-.39h-.779c-.234 0-.468 0-.701.078-.468 0-.935.078-1.48.156-1.013.078-1.948.312-2.883.546a13.163 13.163 0 00-3.895 1.558c-1.169.7-2.104 1.636-2.649 2.726-.312.546-.467 1.169-.623 1.792-.078.623-.156 1.247-.078 1.792.078.623.234 1.169.545 1.714.234.545.624 1.013 1.013 1.48.156.234.39.467.623.701l.312.312.311.311a.608.608 0 01.312.312c.156.078.234.156.39.234.233.156.467.311.779.467 1.012.623 2.103 1.013 3.194 1.325 2.103.545 4.285.545 6.076-.078.857-.312 1.636-.78 2.259-1.403a3.658 3.658 0 001.169-1.947c.156-.702 0-1.403-.312-1.948a6.71 6.71 0 00-1.09-1.402 7.506 7.506 0 00-2.104-1.325c-.233-.078-.467-.155-.623-.233-.156-.078-.234-.078-.234-.078s.078 0 .234.078c.156 0 .39.078.623.155.546.156 1.325.546 2.26 1.247.467.39.856.779 1.246 1.402.39.623.623 1.403.467 2.26-.077.856-.545 1.713-1.168 2.337a6.803 6.803 0 01-2.415 1.714c-.935.389-2.026.623-3.116.7a11.1 11.1 0 01-3.506-.311c-1.169-.234-2.337-.701-3.506-1.324-.311-.156-.545-.312-.857-.468-.156-.078-.311-.156-.39-.233-.155-.078-.233-.234-.389-.312-.156-.078-.233-.234-.39-.312-.155-.078-.233-.233-.389-.311a7.006 7.006 0 01-.7-.78 10.407 10.407 0 01-1.247-1.791c-.312-.623-.546-1.402-.702-2.104-.155-.779-.077-1.558 0-2.259.156-.779.312-1.48.702-2.181.7-1.402 1.87-2.571 3.194-3.428 1.324-.857 2.804-1.402 4.362-1.714 1.013-.233 2.026-.467 3.117-.545.545-.078 1.012-.156 1.558-.156.233 0 .545 0 .779-.078h.779c2.025-.078 3.973.156 5.92.546 1.87.389 3.662.934 5.376 1.636 1.636.7 3.194 1.48 4.674 2.259 1.402.857 2.727 1.714 3.973 2.493 1.247.857 2.337 1.713 3.428 2.415a151.887 151.887 0 005.609 3.817c1.636.857 3.662 1.948 6.077 2.96 1.246.468 2.493.935 3.895 1.247.701.156 1.402.311 2.181.39.701.077 1.48.077 2.259-.079.701-.155 1.403-.467 1.948-.934a2.44 2.44 0 00.701-.857c.234-.312.39-.701.545-1.013.312-.701.39-1.48.156-2.103-.233-.624-.779-1.247-1.48-1.714a10.913 10.913 0 00-2.337-1.169c-.857-.312-1.792-.545-2.727-.779-1.869-.468-3.817-.701-5.843-.935-.701-.078-1.48-.156-2.181-.234-.389 0-.701-.078-1.091-.078-.389 0-.701-.077-1.09-.077a18.16 18.16 0 00-4.129.233c-.701.078-1.324.234-2.026.39l-.934.233c-.312.078-.624.234-.935.312-.624.234-1.169.468-1.714.857a6.71 6.71 0 00-1.402 1.09l-.312.312c-.078.078-.156.234-.234.312-.078.156-.156.234-.234.39 0 .077-.077.155-.077.155l-.078.156c0 .078-.078.156-.078.156l-.078.234c-.078.156-.078.233-.078.39 0 .155-.078.233-.078.389v1.169c0 .31.078.545.156.856 0 .156.078.312.078.39 0 .155.078.233.078.39.078.155.078.31.155.389.078.156.078.233.156.39.39.934 1.169 1.635 2.026 2.025.857.39 1.869.39 2.649.078.389-.156.701-.39 1.012-.702.234-.311.39-.7.39-1.09.078-.78-.234-1.558-.545-2.26 0-.077-.078-.155-.156-.233-.078-.078-.078-.156-.156-.234-.078-.078-.078-.156-.156-.233l-.078-.078-.078-.078c-.233-.234-.467-.468-.701-.623-.234-.156-.545-.078-.779 0a1.21 1.21 0 00-.623.467c-.156.156-.312.39-.39.623-.078.234-.155.468-.155.623 0 .39.077.78.311.935.078.078.234.156.312.156.078 0 .156.078.233.078h.312zM96.825 26.782c.39-1.09 1.636-.779 2.259-.156.234.156.701.624.701.935 0 .156.078.234.156.234.078.39.156.779.234 1.09.078 1.792.545 3.662 1.48 5.142.156.156.389.156.467.078-.623-1.48-1.246-3.35-1.168-4.908 0-.233.078-.39.156-.545.155-1.169.545-2.337 1.012-3.506 1.013-1.714 2.182-3.505 3.818-4.596.077 0 .077-.078.155-.078 1.325-.623 2.805-.545 4.207.39.857.623 1.792 1.48 2.259 2.415.312.545.546 1.636 0 2.103-.233.234-1.324.234-1.636.078-.077-.078-.233 0-.311.078-.779.623-.078 2.181.623 2.57 1.169.78 2.96-.311 3.662-1.246.779-1.013 1.012-2.726.623-3.973-.156-.545-.545-1.09-.935-1.636-.39-.779-.857-1.48-1.48-2.103-.156-.468.078-1.169-.078-1.636-.234-.468-.545-1.013-1.013-1.325-.935-.7-2.337-.7-3.428-.545-.078-.078-.233-.156-.389-.078.389-.312-.623-.623-.857-.623-.545-.078-1.169.078-1.636.233a3.762 3.762 0 00-1.558 1.091c-.078 0-.078-.078-.156-.078-1.013 0-2.103 1.247-2.727 1.948-.857 1.09-1.324 2.493-1.636 3.817-.156.623-.155 1.247-.233 1.792-.935-.623-2.182-1.013-3.117-.234-.934.78-1.168 2.415-.311 3.35.467.234.779.156.857-.078zm15.892-7.479c-.156-.078-.389-.155-.545-.233-2.104-.78-4.285-.312-6.077.857-.545.233-1.09.623-1.636 1.168-.934.857-1.791 2.104-2.493 3.506-.233.312-.389.701-.545 1.09 0-.856.156-1.635.312-2.414.156-.312.311-.702.467-1.013.078 0 .078-.078.078-.156s0-.078.078-.156c.156-.311.39-.545.623-.779 1.403-1.636 3.35-3.272 5.531-3.428 1.558-.233 3.039.468 4.207 1.558zm-4.596-3.505c-1.402.39-2.493 1.48-3.584 2.493-.467.467-1.012.934-1.48 1.402.312-.623.623-1.247.935-1.792.779-1.168 2.571-3.194 4.129-2.103zm-7.791 8.57v-.546c.078-1.402.39-2.805.935-4.051.39-.857 1.558-2.727 2.727-3.038-.312.39-.545.7-.779 1.168-1.013 1.792-1.87 3.584-2.259 5.454a10.534 10.534 0 00-.624 2.804c-.077-.545-.077-1.09-.077-1.636.077 0 .077-.078.077-.156zm-2.96-.39c.857-.312 1.636.078 2.26.7 0 .546 0 1.17.077 1.715-.39-.39-.935-.78-1.324-.857-.78-.234-1.48.078-1.948.623-.311-.857.156-1.948.935-2.181z" fill="#000"/><path d="M78.907 52.49c-.623 0-1.247-.155-1.792-.545-6.856-4.362-18.541-11.997-19.632-13.633-.623-.935-.779-1.947-.779-2.649 0-8.413-.312-33.966-.312-34.2V.84h45.419v34.278c0 .078 0 1.636-1.091 2.96-.779.935-12.854 9.037-19.944 13.867-.545.312-1.168.546-1.87.546zM57.717 2.088c.078 4.05.312 25.942.312 33.576 0 .702.155 1.325.545 1.948.623 1.013 8.18 6.232 19.242 13.244.701.467 1.558.39 2.26 0 11.373-7.635 19.086-13.01 19.631-13.634.779-.934.779-2.103.779-2.103V2.165h-42.77v-.078z" fill="#000"/><path d="M78.985 50.154a2.915 2.915 0 01-1.403-.39c-5.141-3.272-17.06-10.984-18.073-12.543-.546-.778-.624-1.635-.624-2.18 0-7.791-.311-31.474-.311-31.708v-.156h41.211v31.318c0 .078 0 1.402-.935 2.493-.779.857-13.088 9.193-18.385 12.776-.468.234-1.013.39-1.48.39zm-20.1-46.665c0 2.103.312 24.15.312 31.551 0 .546.078 1.247.545 2.026 1.013 1.48 14.023 9.893 17.996 12.464a2.532 2.532 0 002.571 0c4.13-2.726 17.606-11.841 18.308-12.698.857-1.013.856-2.26.856-2.26V3.568H58.886V3.49z" fill="#000"/><path d="M62.391 25.614c.857-.857.623-2.571-.311-3.35-.935-.78-2.182-.39-3.117.233 0-.623-.078-1.168-.233-1.791-.234-1.325-.78-2.805-1.636-3.818-.624-.7-1.714-1.947-2.727-1.947-.078 0-.156 0-.156.078-.467-.468-.935-.857-1.558-1.091-.545-.234-1.09-.39-1.636-.234-.234.078-1.246.39-.857.624-.156-.078-.311 0-.39.078-1.09-.156-2.57-.078-3.427.545a3.53 3.53 0 00-1.013 1.324c-.156.468.078 1.247-.078 1.636-.623.623-1.09 1.325-1.48 2.104a5.106 5.106 0 00-.935 1.636c-.39 1.246-.156 2.96.623 3.973.701.934 2.493 2.025 3.662 1.246.701-.467 1.402-1.947.623-2.57-.078-.079-.156-.079-.311-.079-.39.156-1.403.156-1.636-.077-.546-.468-.312-1.637 0-2.104.545-.935 1.402-1.792 2.259-2.415 1.402-.935 2.882-1.09 4.207-.39.078 0 .078.078.155.078 1.636 1.091 2.883 2.883 3.818 4.597.545 1.09.934 2.337 1.012 3.506.078.155.156.311.156.545.078 1.558-.467 3.428-1.168 4.908.155.078.39.156.467-.078 1.013-1.558 1.402-3.35 1.48-5.142.078-.39.156-.779.234-1.09.078 0 .156-.078.156-.234 0-.312.467-.701.7-.935.624-.545 1.87-.935 2.26.156.39.156.623.233.857.078zm-12.23-9.27c2.18.155 4.128 1.79 5.53 3.427.234.234.39.545.624.779 0 .078 0 .078.078.156 0 .078.077.078.077.155.156.312.312.624.468 1.013.156.78.311 1.558.311 2.415a7.128 7.128 0 00-.545-1.09c-.701-1.403-1.558-2.65-2.493-3.506-.545-.545-1.09-.857-1.636-1.169-1.792-1.09-3.895-1.558-6.076-.857-.156.078-.39.156-.546.234 1.169-.935 2.65-1.636 4.207-1.558zm4.518.31c.39.546.7 1.17.934 1.793-.467-.468-1.012-.935-1.48-1.403-1.09-1.012-2.181-2.103-3.583-2.493 1.558-1.168 3.35.935 4.129 2.104zm3.661 6.623c0 .545 0 1.09-.078 1.636-.156-.935-.311-1.87-.623-2.805-.39-1.87-1.169-3.662-2.26-5.453-.233-.39-.467-.78-.778-1.169 1.168.234 2.337 2.181 2.726 3.038.624 1.247.857 2.65.935 4.051v.546c.078.078.078.078.078.156zm3.817 1.558c-.467-.546-1.168-.857-1.947-.624-.312.078-.857.468-1.325.857.078-.545.078-1.168.078-1.713.624-.624 1.403-1.013 2.26-.702.857.312 1.324 1.403.934 2.182zM96.28 55.529s-.078 0-.234.078c-.156.078-.39.078-.624.156-.311 0-.623 0-1.012-.156a2.368 2.368 0 01-.546-.39 1.506 1.506 0 01-.39-.7c-.233-.546-.155-1.17.157-1.793.311-.623.857-1.09 1.558-1.402.701-.312 1.402-.39 2.181-.39.39 0 .78 0 1.169.156.39.078.779.234 1.168.468.468.311.935.779 1.169 1.246a5.2 5.2 0 01.467 1.558 4.323 4.323 0 01-.701 2.727c-.467.779-1.09 1.324-1.636 1.714a4.15 4.15 0 01-1.636.701c-.467.156-1.013.39-1.714.467-.7.078-1.558 0-2.337-.39-.779-.389-1.48-1.09-2.103-1.79l-1.87-2.338c-.935-1.169-1.948-2.104-3.038-2.727-1.09-.623-2.182-.935-3.194-1.168-.156 0-.234-.078-.39-.078-.078 0-.234 0-.312-.078-.233 0-.389-.078-.623-.078-.39 0-.7-.078-1.013-.078h-.856s.311-.078.856-.156c.312-.078.624-.078 1.013-.078h1.403c1.012.078 2.259.312 3.505.935a8.849 8.849 0 011.792 1.169 16.28 16.28 0 011.636 1.636c.701.779 1.246 1.636 1.792 2.415.311.39.545.701.857 1.013.311.311.623.545.935.779a3.7 3.7 0 001.947.545c.623 0 1.169-.156 1.636-.234.39-.156.935-.467 1.403-.857a5.78 5.78 0 001.324-1.636c.311-.7.545-1.558.467-2.337-.078-.857-.467-1.636-1.246-2.103-.312-.156-.545-.312-.935-.39-.312-.078-.623-.156-1.013-.156-.7 0-1.324 0-1.87.234-.545.156-1.012.545-1.246.935a2.02 2.02 0 00-.234 1.324c.078.234.156.39.234.546.156.155.234.311.39.39.311.233.623.31.934.31h.78zm-34.98.078s.078 0 .234.078c.156 0 .39.078.623 0 .234 0 .624-.078.935-.312a.939.939 0 00.39-.39c.078-.155.233-.389.233-.545.078-.39 0-.935-.233-1.324a2.223 2.223 0 00-1.247-.935c-.545-.234-1.246-.234-1.87-.234-.311 0-.623.078-1.012.156-.312.078-.623.234-.935.39-.779.467-1.169 1.324-1.246 2.103-.078.857.077 1.714.467 2.337.312.701.857 1.247 1.324 1.636.468.39 1.013.701 1.403.857.467.156 1.012.234 1.636.234a3.7 3.7 0 001.947-.546c.312-.233.623-.467.935-.779.312-.311.545-.623.857-1.012a99.393 99.393 0 001.792-2.415 8.134 8.134 0 011.636-1.636 8.847 8.847 0 011.791-1.17c1.246-.623 2.493-.857 3.505-.935h1.403c.389 0 .779.078 1.012.078.546.078.857.156.857.156h-.857c-.311 0-.623.078-1.013.078-.233 0-.389.078-.623.078-.078 0-.233 0-.311.078-.078 0-.234.078-.39.078-.935.155-2.103.545-3.194 1.168-1.09.623-2.103 1.558-3.038 2.727l-1.87 2.337c-.623.701-1.324 1.402-2.103 1.792-.78.39-1.636.467-2.337.39-.702-.079-1.247-.312-1.714-.468a12.824 12.824 0 01-1.636-.701c-.546-.39-1.169-.935-1.636-1.714-.468-.78-.78-1.714-.701-2.727 0-.545.155-1.09.467-1.558.234-.467.701-.935 1.169-1.246.39-.234.779-.39 1.168-.468.39-.078.78-.156 1.169-.156.779 0 1.48.078 2.181.39.701.311 1.246.779 1.558 1.402a2.43 2.43 0 01.156 1.792c-.078.234-.234.467-.39.701-.155.156-.39.312-.545.39-.39.155-.779.233-1.013.155-.311 0-.467-.078-.623-.155-.234-.156-.312-.156-.312-.156zm28.28-23.995c.39.312.779.546 1.168.546v.7c-1.402-.077-3.116-.077-5.22-.077-2.336 0-4.05 0-5.219.078v-.701c.857 0 1.48-.156 1.87-.312.39-.156.545-.467.545-.935 0-.312-.156-.857-.39-1.636l-2.025-5.609H72.83l-.934 2.337c-.624 1.636-.935 2.883-.935 3.817 0 .857.233 1.48.779 1.792.467.312 1.246.546 2.259.546v.7c-1.558-.077-2.96-.077-4.285-.077-1.013 0-1.947 0-2.649.078v-.701c1.169-.156 2.104-1.403 2.96-3.584l7.869-20.1c.39 0 .78.079 1.169.079.467 0 .856 0 1.168-.078l8.336 21.501c.312.701.623 1.325 1.013 1.636zM76.57 13.694l-3.584 9.27h6.934l-3.35-9.27zM25.075 72.356l.078-.39.935-.31 2.882-7.636.701-.155 2.65 7.79.856.234-.078.39h-3.038l.078-.39 1.09-.312-.857-2.337h-2.804l-.857 2.415 1.247.234-.078.39h-2.805v.077zm2.805-3.505h2.492l-1.168-3.506-1.324 3.505zm6.7 3.505l.077-.39 1.09-.233.546-7.011-1.246-.234.078-.39h2.415l.467 1.247 1.87 5.22 2.181-5.454.468-1.013h2.415l-.078.39-1.169.234.39 7.089 1.168.156-.078.39h-3.35l.078-.39 1.091-.234-.39-6.622-2.804 6.856-.623.078-2.493-6.778-.468 6.466 1.247.156-.078.39h-2.805v.077zm11.997-7.79l.078-.39h6.31l-.234 2.104-.467-.078-.234-1.558h-3.35v3.35h2.103l.234-.857.467-.078-.233 2.57-.468.078-.155-1.246h-2.026v3.428h3.506l.545-1.636.39.078-.234 2.103h-6.466l.078-.39 1.09-.233v-7.012l-.934-.233zm8.023 7.79l.079-.39 1.09-.233v-7.011l-1.168-.234.078-.39h3.35l-.078.39-1.169.234v7.167h3.194l.701-1.792.39.078-.234 2.181h-6.232zm7.791-7.868l.078-.39h3.35l-.078.39-1.168.234v7.089l1.246.156-.078.39h-3.272l.078-.39 1.09-.234v-7.011l-1.246-.234zm4.752 7.868l.078-.39.935-.31 2.882-7.636.702-.155 2.648 7.79.857.234-.078.39H72.13l.078-.39 1.09-.312-.856-2.337h-2.805l-.857 2.415 1.247.234-.078.39h-2.805v.077zm2.805-3.505h2.493l-1.169-3.506-1.324 3.505zm11.608 3.661c-.39 0-.78-.078-1.091-.234a1.529 1.529 0 01-.701-.7 2.156 2.156 0 01-.234-1.014c0-.545.156-1.012.545-1.48.312-.467.857-.857 1.48-1.246-.233-.312-.467-.546-.7-.935a2.399 2.399 0 01-.234-1.013c0-.311.078-.623.233-.935.156-.311.39-.545.702-.7.311-.157.623-.312.934-.312.546 0 1.013.155 1.325.467.311.312.467.701.467 1.246 0 .39-.156.701-.39 1.091-.31.312-.7.701-1.168 1.013v.078l1.636 1.87 1.247-2.026-1.013-.234.078-.39h2.804l-.078.39-1.09.234-1.48 2.415c.467.545.934 1.013 1.324 1.324.39.312.701.546 1.013.623l.233.078-.078.39c-.155.078-.233.078-.311.078h-.39c-.311 0-.623-.078-.857-.312-.311-.156-.545-.39-.779-.7l-.623-.702c-.234.312-.467.623-.701.857-.234.234-.545.39-.857.545-.467.156-.857.234-1.246.234zm.155-4.285c-.39.312-.7.545-.934.857-.234.312-.312.623-.312 1.013 0 .312.078.545.156.857.156.234.311.467.467.623.234.156.468.234.78.234.389 0 .7-.156 1.012-.39.312-.234.545-.545.779-.935l-1.948-2.259zm.546-3.817c-.234 0-.39.078-.546.156a.939.939 0 00-.39.39c-.077.155-.155.389-.155.545 0 .311.078.623.312.934.156.312.467.624.7.935.39-.234.624-.467.78-.779.156-.233.234-.545.234-.857 0-.233-.078-.467-.156-.7a.798.798 0 00-.39-.468c.078-.078-.156-.156-.39-.156zm9.27 10.128l-.233-.468c.545-.467.934-1.013 1.246-1.48.234-.467.39-1.013.39-1.636v-6.232l-1.169-.234.078-.39h3.35l-.078.39-1.09.234v5.22c0 .856-.079 1.557-.234 2.103-.156.545-.39.934-.702 1.324-.467.39-.934.78-1.558 1.169zm4.83-2.182l.078-.39.935-.31 2.883-7.636.701-.155 2.648 7.79.857.234-.078.39h-3.038l.078-.39 1.091-.312-.857-2.337H98.85l-.857 2.415 1.247.234-.078.39h-2.805v.077zm2.805-3.505h2.493l-1.169-3.506-1.324 3.505zm10.361 3.739c-.701 0-1.324-.156-1.87-.467a3.305 3.305 0 01-1.324-1.403c-.312-.623-.467-1.324-.467-2.181 0-.701.155-1.402.467-2.103.312-.702.779-1.247 1.324-1.714.624-.468 1.325-.701 2.182-.701 1.013 0 1.792.233 2.337.623l-.234 2.259-.467-.078-.234-1.558c-.389-.467-.935-.701-1.792-.701-.467 0-.935.156-1.324.467-.39.312-.701.701-.935 1.247-.234.545-.312 1.168-.312 1.87 0 .778.156 1.48.39 2.025a3.042 3.042 0 001.091 1.324 2.806 2.806 0 001.558.468c.467 0 .857-.078 1.246-.312.39-.234.779-.467 1.091-.779l.156.39c-.156.233-.39.467-.702.7-.311.235-.623.39-1.012.546-.312 0-.701.078-1.169.078zm7.946 0c-.701 0-1.324-.156-1.869-.546a4.29 4.29 0 01-1.325-1.558c-.311-.623-.467-1.402-.467-2.18 0-.858.156-1.637.467-2.26a3.846 3.846 0 011.403-1.558c.623-.39 1.324-.545 2.181-.545.779 0 1.402.155 1.948.545.545.39.934.935 1.246 1.558.312.623.467 1.402.467 2.181 0 .78-.155 1.48-.467 2.104-.312.623-.779 1.168-1.402 1.636-.546.39-1.325.623-2.182.623zm.156-8.102c-.623 0-1.168.156-1.558.467a2.78 2.78 0 00-.857 1.247 6.068 6.068 0 00-.233 1.714c0 .779.077 1.48.311 2.103a4.02 4.02 0 00.935 1.48c.467.39.935.546 1.558.546s1.169-.156 1.558-.468c.39-.311.701-.779.857-1.246.156-.546.312-1.091.312-1.636 0-.78-.078-1.48-.312-2.104-.234-.623-.545-1.09-1.013-1.48-.467-.467-.935-.623-1.558-.623zm8.414 7.868h-3.116l.078-.39 1.09-.233v-6.856l-1.168-.155.078-.39.389-.078c.545-.078 1.013-.156 1.48-.156.39-.078.857-.078 1.325-.078.623 0 1.09.078 1.558.234.389.156.701.39.935.701a1.5 1.5 0 01.311.935c0 .39-.078.78-.311 1.09-.234.313-.546.624-1.013.78v.078c.467 0 .779.156 1.091.311.311.156.545.468.701.702.155.311.233.623.233.856 0 .468-.078.858-.311 1.247-.234.39-.623.701-1.091.935-.701.39-1.402.467-2.259.467zm-1.013-7.868v3.35h1.87c.311-.156.545-.39.701-.623.156-.234.234-.546.234-.935 0-.546-.156-1.013-.546-1.325-.389-.311-.935-.467-1.636-.467h-.623zm0 3.817v3.584h1.558c.468 0 .857-.078 1.091-.234.311-.156.545-.39.623-.701.156-.234.234-.545.234-.857 0-.312-.078-.545-.234-.857-.156-.311-.312-.467-.623-.701-.312-.156-.623-.234-1.091-.234h-1.558zM16.895 77.342l15.191-.156 15.192-.078 30.46-.078 30.461.078 15.191.078 15.191.156-15.191.156-15.191.078-30.46.078-30.461-.078-15.192-.078-15.19-.156zm11.608 3.662v-.156h1.48v.156l-.545.078.934 1.714.935-1.714-.545-.078v-.156h1.324v.156l-.39.078-1.09 2.026v1.324l.546.078v.233h-1.559v-.155l.546-.156v-1.247l-1.09-2.103-.546-.078zm5.92 3.816c-.311 0-.623-.077-.934-.31-.234-.157-.468-.468-.623-.78a2.157 2.157 0 01-.234-1.013c0-.39.078-.779.233-1.09.156-.312.39-.546.702-.701a2.156 2.156 0 011.012-.234c.39 0 .702.078.935.234.234.155.468.467.623.779.156.311.234.623.234 1.012 0 .39-.078.702-.234 1.013-.155.312-.39.545-.7.78-.234.233-.546.31-1.014.31zm.078-3.894c-.311 0-.545.078-.7.233-.157.156-.312.39-.39.624-.078.233-.156.545-.156.779 0 .39.078.7.156 1.012.078.312.233.546.467.701.234.156.468.234.78.234.31 0 .545-.078.7-.234.156-.155.312-.389.39-.623.078-.233.156-.545.156-.779 0-.39-.078-.7-.156-1.013-.078-.311-.234-.545-.467-.7-.234-.079-.468-.234-.78-.234zm3.117.156l-.546-.078v-.156h1.558v.156l-.545.078v2.103c0 .467.078.857.312 1.013.233.233.467.311.857.311.311 0 .623-.078.779-.311.155-.234.311-.546.311-.935v-2.181l-.545-.078v-.156H41.2v.156l-.545.078v2.103c0 .545-.156 1.013-.39 1.246-.233.312-.623.39-1.168.39-1.013 0-1.48-.545-1.48-1.558v-2.181zm5.765 3.661h-1.637v-.156l.546-.156V81.16l-.546-.078v-.155c.312-.078.546-.078.78-.078h.623c.467 0 .779.078 1.013.234.233.155.39.389.39.7 0 .234-.079.39-.235.624-.156.156-.39.39-.7.467l.623.857c.155.234.233.39.389.468l.234.233c.078.078.156.078.233.156l.156.078v.156c-.078 0-.156 0-.156.078h-.155a.707.707 0 01-.546-.234c-.156-.156-.311-.39-.467-.623l-.545-1.013h-.624v1.48l.623.078v.156zm-.624-3.74v1.792h.701c.156-.078.39-.155.468-.311a.707.707 0 00.234-.546c0-.155-.078-.311-.156-.467a.608.608 0 00-.312-.312c-.156-.078-.312-.078-.545-.078h-.234c-.078-.077-.078-.077-.156-.077zm4.597-.233h3.427l-.078 1.09h-.233l-.078-.779h-1.09v3.428l.545.078v.234H48.29v-.156l.545-.156v-3.428h-1.013l-.156.857h-.233l-.078-1.168zm3.973.234v-.156h3.038l-.078 1.013h-.234l-.078-.78H52.42v1.636h1.013l.156-.389h.234l-.078 1.246h-.234l-.078-.623h-.935v1.636h1.714l.234-.779h.234l-.078 1.013h-3.038v-.156l.545-.156v-3.35l-.78-.155zm3.817 3.739v-.156l.39-.078 1.246-1.636-1.168-1.714-.468-.078v-.155h1.48v.155l-.467.156.935 1.325 1.012-1.325-.545-.078v-.156h1.247v.156l-.39.078-1.169 1.636 1.169 1.792.467.078v.156h-1.48v-.156l.546-.156-1.013-1.48-1.09 1.48.544.078v.234h-1.246v-.156zm4.441-3.973h3.427l-.078 1.09h-.233l-.078-.779h-1.09v3.428l.545.078v.234h-1.558v-.156l.545-.156v-3.428h-1.013l-.156.857h-.234l-.077-1.168zm7.089 4.05c-.312 0-.623-.077-.857-.233a1.84 1.84 0 01-.623-.701c-.156-.312-.234-.623-.234-1.09 0-.312.078-.702.234-1.013.156-.312.39-.624.623-.78.311-.233.623-.311 1.09-.311.468 0 .857.078 1.091.312l-.078 1.09h-.233l-.078-.779c-.156-.234-.468-.311-.857-.311a.885.885 0 00-.624.233 2.151 2.151 0 00-.467.624 2.905 2.905 0 000 1.87c.156.233.312.467.545.622.234.156.468.234.78.234.233 0 .389-.078.623-.156.233-.078.39-.233.545-.39l.078.157-.312.311c-.156.078-.311.234-.467.234-.39.078-.545.078-.78.078zm2.025-.077v-.156l.468-.156 1.402-3.661.312-.078 1.246 3.74.39.077v.234h-1.48v-.156l.545-.156-.39-1.09H69.87l-.39 1.168.624.078v.234H68.7v-.078zm1.325-1.714h1.168l-.545-1.636-.623 1.636zm3.194-2.025v-.156h1.013l2.103 3.194v-2.96l-.623-.078v-.156h1.402v.156l-.545.078v3.661l-.312.078-2.26-3.428v3.038l.546.078v.234h-1.402v-.156l.545-.156v-3.35l-.467-.077zm7.479 3.739h-1.48v-.156l.545-.156V81.16l-.545-.078v-.155h.155c.234-.078.468-.078.701-.078h.624c.311 0 .545.078.7.156.234.078.312.233.468.311.078.156.156.312.156.468 0 .155-.078.39-.156.545-.078.156-.312.312-.467.39.233 0 .39.077.545.155.156.078.234.234.312.312.078.156.078.311.078.39 0 .233-.078.389-.156.623-.078.156-.312.311-.546.467-.155 0-.467.078-.934.078zm-.468-3.74v1.559h.935a.608.608 0 00.312-.312c.078-.156.156-.312.156-.467a.885.885 0 00-.234-.624c-.156-.155-.468-.233-.78-.233-.155.078-.31.078-.389.078zm0 1.792v1.714h.701c.234 0 .39-.078.546-.156a.608.608 0 00.311-.311c.078-.156.078-.234.078-.39s0-.311-.078-.39a.608.608 0 00-.311-.31c-.156-.079-.312-.157-.546-.157h-.7zm2.805-1.791v-.156h3.038l-.078 1.013h-.233l-.079-.78h-1.558v1.636h1.013l.156-.389h.234l-.078 1.246h-.234l-.078-.623h-.935v1.636h1.714l.234-.779h.234l-.078 1.013h-3.039v-.156l.546-.156v-3.35l-.78-.155zm6.855 3.739h-1.714v-.156l.546-.156V81.16l-.546-.078v-.155h.156c.234-.078.468-.078.701-.078h.624c.467 0 .856.078 1.09.234.312.155.468.467.468.856 0 .234-.078.468-.234.702-.156.233-.312.311-.545.467-.234.078-.468.156-.701.156h-.234l-.078-.234h.156c.39 0 .623-.078.857-.311.156-.156.233-.39.233-.702 0-.156-.078-.39-.155-.545a.939.939 0 00-.39-.39 1.468 1.468 0 00-.623-.155h-.312v3.427l.78.078-.079.312zm1.87 0v-.156l.545-.156v-3.35l-.545-.155v-.156h1.558v.156l-.545.078v3.427h1.558l.312-.857h.233l-.078 1.013h-3.038v.156zm3.739 0v-.156l.468-.156 1.402-3.661.312-.078 1.246 3.74.39.077v.234h-1.48v-.156l.545-.156-.39-1.09H96.67l-.39 1.168.624.078v.234H95.5v-.078zm1.325-1.714h1.168l-.545-1.636-.623 1.636zm4.986 1.791c-.312 0-.624-.077-.857-.233a1.83 1.83 0 01-.623-.701c-.156-.312-.234-.623-.234-1.09 0-.312.078-.702.234-1.013.155-.312.389-.624.623-.78.311-.233.623-.311 1.09-.311.468 0 .857.078 1.091.312l-.078 1.09h-.234l-.077-.779c-.156-.234-.468-.311-.857-.311a.886.886 0 00-.624.233c-.155.156-.311.312-.467.624a2.902 2.902 0 000 1.87c.156.233.312.467.545.622.234.156.468.234.779.234.234 0 .39-.078.624-.156.233-.078.389-.233.545-.39l.078.157-.312.311c-.156.078-.311.234-.467.234-.39.078-.546.078-.779.078zm2.025-3.816v-.156h3.038l-.077 1.013h-.234l-.078-.78h-1.558v1.636h1.013l.155-.389h.234l-.078 1.246h-.233l-.078-.623h-.935v1.636h1.714l.233-.779h.234l-.078 1.013h-3.038v-.156l.545-.156v-3.35l-.779-.155zm5.298 3.739h-1.48v-.156l.545-.156V81.16l-.545-.078v-.155c.311-.078.623-.078.856-.156h.702c.545 0 .934.078 1.324.234.312.155.545.389.701.7a2.154 2.154 0 010 1.948c-.156.312-.467.546-.779.78-.389.233-.857.31-1.324.31zm-.468-3.74v3.506h.546c.389 0 .701-.078.934-.234.234-.155.468-.311.624-.623.155-.234.233-.545.233-.857 0-.39-.078-.7-.233-.935a1.217 1.217 0 00-.624-.623c-.233-.156-.623-.233-1.012-.233h-.468zm4.752.001v-.156h1.559v.156l-.546.078v1.558h2.104v-1.558l-.546-.078v-.156h1.558v.156l-.545.078v3.35l.545.077v.234h-1.558v-.156l.546-.156v-1.558h-2.104v1.558l.623.078v.234h-1.558v-.156l.546-.156v-3.35l-.624-.077zm4.908 0v-.156h3.039l-.078 1.013h-.234l-.078-.78h-1.558v1.636h1.013l.156-.389h.233l-.078 1.246h-.233l-.078-.623h-.935v1.636h1.714l.234-.779h.233l-.078 1.013h-3.038v-.156l.545-.156v-3.35l-.779-.155zm5.376 3.739h-1.636v-.156l.545-.156V81.16l-.545-.078v-.155c.311-.078.545-.078.779-.078h.623c.467 0 .779.078 1.013.234a.815.815 0 01.389.7c0 .234-.078.39-.233.624-.156.156-.39.39-.701.467l.623.857c.156.234.233.39.389.468l.234.233c.078.078.156.078.234.156l.155.078v.156c-.077 0-.155 0-.155.078h-.156a.705.705 0 01-.545-.234c-.156-.156-.312-.39-.468-.623l-.545-1.013h-.624v1.48l.624.078v.156zm-.624-3.74v1.792h.702c.155-.078.389-.155.467-.311a.707.707 0 00.234-.546c0-.155-.078-.311-.156-.467a.609.609 0 00-.312-.312c-.155-.078-.311-.078-.545-.078h-.234c-.078-.077-.078-.077-.156-.077zm3.195.001v-.156h3.038l-.078 1.013h-.234l-.078-.78h-1.558v1.636h1.013l.156-.389h.234l-.078 1.246h-.234l-.078-.623h-.935v1.636h1.714l.234-.779h.233l-.077 1.013h-3.039v-.156l.546-.156v-3.35l-.779-.155z" fill="#000"/></svg>