<svg width="161" height="82" fill="none" xmlns="http://www.w3.org/2000/svg"><path d="M79.613 45.271c-.545-2.025-2.103-4.129-4.674-4.05-2.727.077-5.064 1.87-4.285 4.44.701 2.337 3.194 3.817 5.687 2.57.156-.077.234-.155.234-.31.078-.079.078-.157.078-.157.545-.934-.312-2.259-1.48-2.726-.858-.39-2.104-.546-2.96-.156-.157-.701-.079-1.558.389-1.948.155-.155.233-.233.233-.39.156-.077.312-.155.468-.155 1.013-.312 2.259-.467 3.272.078 2.259 1.246 2.726 4.207 2.415 6.388-.39 2.727-2.337 5.22-5.531 5.687-.156 0-.312.078-.468.078h-.156c-1.714-.156-3.583-.701-4.752-1.948-.935-1.012-2.103-2.57-1.324-3.817.7-1.168-.312-.701-.701-.467-.78.623-1.013 1.48-1.091 2.337-.935-1.48-2.026-3.116-3.895-3.584-1.792-.467-4.051-.467-5.532.701-.233.156-.311.39-.155.546 0 .155.233.311.467.311 2.26.078 4.285 1.013 6.077 2.104 1.947 1.168 3.817 2.415 5.843 3.427 1.713.857 3.739 1.48 5.764 1.169 1.948-.312 3.974-1.48 5.064-3.038 1.403-2.182 1.636-4.83 1.013-7.09zm-4.129 1.169c0 .078 0 .078 0 0 .078.078 0 .078 0 0 0 .078 0 .078 0 0z" fill="#000"/><path d="M81.405 52.049c1.09 1.48 3.194 2.57 5.141 2.804 2.026.234 3.973-.467 5.687-1.402 2.026-1.09 3.818-2.415 5.687-3.662 1.792-1.168 3.818-2.259 5.999-2.337.234 0 .467-.155.467-.311.078-.156 0-.39-.233-.546-1.558-1.012-3.74-1.012-5.531-.467-1.87.545-2.883 2.26-3.74 3.74-.078-.858-.39-1.715-1.168-2.26-.312-.234-1.48-.701-.701.468.856 1.168-.234 2.804-1.17 3.895-1.09 1.246-2.96 1.87-4.673 2.103h-.624c-3.194-.311-5.297-2.726-5.765-5.453-.389-2.104-.077-5.142 2.182-6.466 1.013-.623 2.26-.468 3.272-.234.156.078.311.078.467.156 0 .156.078.234.234.39.467.389.623 1.246.467 1.947-.857-.312-2.103-.078-2.96.312-1.169.545-1.948 1.87-1.402 2.804 0 .078.078.156.078.156 0 .156.155.234.233.312 2.493 1.168 4.986-.39 5.531-2.727.624-2.649-1.713-4.363-4.44-4.285-2.57.078-3.973 2.26-4.44 4.285-.39 2.26 0 4.908 1.402 6.778zm2.96-5.687c0-.078 0-.078 0 0 0-.078 0-.078 0 0zm-4.051 29.993l2.181 2.493c-.857.7-1.947 2.415-1.947 2.415l-.078.156-.078-.156s-1.169-1.714-2.103-2.337l2.025-2.571zm-8.258 2.805c0 .077.078.155.312.233.156.078.39.078.701.078a7.68 7.68 0 002.415-.39c.467-.155 1.169-.545 1.87-1.09a7.303 7.303 0 001.87-2.181 9.276 9.276 0 00.856-2.26c.078-.623.156-1.013.078-1.013 0 0-.234.39-.467.935-.312.546-.623 1.247-1.169 1.948-.545.701-1.246 1.246-1.87 1.636-.7.39-1.324.623-1.713.78-.78.31-1.558.544-2.026.7-.233.078-.467.234-.623.312-.156.078-.234.156-.234.311zm16.827-.39c0-.078-.077-.156-.233-.312-.156-.078-.39-.156-.623-.311-.546-.156-1.325-.39-2.104-.624-.39-.155-1.013-.39-1.714-.7a7.459 7.459 0 01-1.947-1.559c-.546-.623-.935-1.402-1.247-1.87-.234-.545-.467-.934-.467-.856 0 0 0 .39.156 1.012.155.624.467 1.403.934 2.26a7.142 7.142 0 001.948 2.103c.701.545 1.48.857 1.948 1.013.934.311 1.791.39 2.415.311.311 0 .545-.078.7-.155.079-.156.234-.234.234-.312zm-37.16-3.428s.078 0 .234-.078c.156-.078.312-.078.623-.155.312 0 .623 0 1.013.155.156.078.39.234.545.39.156.156.312.39.39.623.233.468.233 1.169-.078 1.714a2.733 2.733 0 01-1.48 1.324c-.624.312-1.403.39-2.104.39-.39 0-.779 0-1.168-.078a3.673 3.673 0 01-1.169-.468c-.467-.311-.935-.7-1.168-1.246a5.167 5.167 0 01-.468-1.558c-.078-1.013.234-1.948.623-2.727.468-.7 1.013-1.324 1.559-1.714a5.807 5.807 0 011.557-.779c.39-.156.935-.39 1.637-.467.7-.078 1.48 0 2.259.311.779.39 1.48 1.013 2.103 1.714.623.702 1.247 1.48 1.87 2.26.935 1.09 1.948 2.025 3.038 2.57a9.355 9.355 0 003.116 1.091c.156 0 .234.078.312.078h.311c.234 0 .39.078.624.078.39 0 .7.078 1.013.078h.856s-.311.078-.856.156c-.234.078-.624.078-1.013.078h-1.325c-1.012-.078-2.18-.234-3.427-.857-.624-.312-1.169-.701-1.792-1.091a14.73 14.73 0 01-1.558-1.558c-.701-.78-1.247-1.558-1.792-2.26-.312-.389-.545-.7-.857-.934a3.66 3.66 0 00-.935-.701c-.623-.39-1.324-.546-1.947-.468-.624 0-1.169.156-1.636.312-.39.156-.857.467-1.325.857-.467.39-.935.935-1.246 1.636a4.64 4.64 0 00-.39 2.337c.078.779.546 1.636 1.247 2.025a3.8 3.8 0 00.857.312c.311.078.623.078.934.078.624 0 1.325-.078 1.792-.234.546-.234 1.013-.545 1.247-.935a2.02 2.02 0 00.233-1.324 3.798 3.798 0 00-.233-.545c-.156-.156-.234-.312-.39-.39-.311-.156-.623-.233-.857-.311-.233 0-.467 0-.623.078a.97.97 0 01-.156.233z" fill="#000"/><path d="M51.178 75.888a1.03 1.03 0 001.013 1.012 1.03 1.03 0 001.012-1.013 1.03 1.03 0 00-1.012-1.012c-.624 0-1.013.467-1.013 1.013zm55.546-.546a1.03 1.03 0 001.012 1.013c.546 0 1.013-.468 1.013-1.013 0-.545-.467-1.013-1.013-1.013-.623 0-1.09.468-1.012 1.013z" fill="#000"/><path d="M108.126 74.563h-.234c-.156 0-.311-.078-.623 0a1.45 1.45 0 00-.857.312.94.94 0 00-.39.39c-.077.155-.155.389-.233.544-.078.39 0 .935.233 1.325.234.39.702.701 1.247.935.545.156 1.168.233 1.87.156.311 0 .623-.078.934-.156.312-.078.624-.234.857-.39.702-.467 1.091-1.246 1.169-2.103.078-.857-.156-1.636-.467-2.26-.39-.7-.857-1.168-1.325-1.558-.467-.389-1.013-.623-1.402-.856-.468-.078-1.013-.234-1.636-.234s-1.324.156-1.948.545c-.311.234-.623.468-.857.78-.311.31-.545.622-.857 1.012-.545.701-1.09 1.558-1.714 2.337a10.364 10.364 0 01-1.558 1.636c-.545.468-1.09.857-1.713 1.169-1.169.623-2.415.857-3.35.934h-1.325c-.39 0-.7 0-1.013-.077-.545-.078-.856-.078-.856-.078h.856c.234 0 .624-.078 1.013-.078.156 0 .39-.078.623-.078.078 0 .234 0 .312-.078.078 0 .234-.078.312-.078.935-.234 2.025-.545 3.038-1.169 1.013-.623 2.025-1.558 2.882-2.726.624-.78 1.169-1.558 1.792-2.337.623-.701 1.247-1.403 2.026-1.792.779-.39 1.636-.545 2.259-.468.701.078 1.246.234 1.636.468.467.078 1.013.311 1.558.701.545.39 1.169.857 1.636 1.636.467.701.779 1.636.779 2.649 0 .545-.156 1.013-.389 1.558a3.342 3.342 0 01-1.091 1.246c-.39.234-.779.39-1.169.468-.389.078-.779.156-1.168.156-.701 0-1.48-.078-2.104-.312-.623-.234-1.246-.701-1.558-1.324-.311-.546-.311-1.247-.156-1.714.078-.234.234-.468.39-.701.156-.156.312-.312.545-.39.39-.156.701-.234 1.013-.234.312 0 .467.078.623.156l.39.078zM6.695 33.585c-1.091 0-2.104-.311-2.96-.934-.858-.624-1.559-1.403-2.026-2.416-.468-1.012-.701-2.18-.701-3.427 0-1.325.233-2.493.779-3.584.545-1.013 1.246-1.87 2.259-2.415a6.986 6.986 0 013.428-.857c1.168 0 2.259.312 3.116.935.857.623 1.558 1.402 1.947 2.415.468 1.013.701 2.181.701 3.428a7.293 7.293 0 01-.778 3.35c-.468 1.012-1.247 1.87-2.182 2.493-1.09.7-2.26 1.012-3.583 1.012zm.233-12.776c-1.012 0-1.792.234-2.415.78-.623.466-1.09 1.168-1.402 1.947-.312.779-.39 1.714-.39 2.726 0 1.169.156 2.26.468 3.272.311 1.013.857 1.792 1.48 2.338.701.545 1.48.856 2.493.856s1.792-.233 2.415-.779c.623-.545 1.09-1.168 1.402-2.025a7.48 7.48 0 00.468-2.571c0-1.169-.156-2.26-.546-3.272-.311-1.013-.857-1.792-1.558-2.337-.7-.623-1.48-.935-2.415-.935zm8.336 12.543l.078-.624 1.714-.39V21.355l-1.87-.39.078-.622h5.22l-.078.623-1.87.39V32.65H23.6l1.09-2.805.702.078-.39 3.428h-9.738zm12.309-12.465l.078-.623h5.22l-.079.623-1.791.312v11.14l1.947.312-.078.623h-5.22l.079-.623 1.714-.39V21.199l-1.87-.312zm7.479 0l.078-.623h5.063l-.078.623-1.791.312 3.428 9.971 3.66-9.894-1.947-.389.078-.623h4.44l-.077.623-1.325.312-4.518 12.153-1.09.233-4.363-12.309-1.558-.389zm14.958 0l.077-.623h5.22l-.078.623-1.792.312v11.14l1.948.312-.078.623h-5.22l.078-.623 1.714-.39V21.199l-1.87-.312zm7.478 12.465l.078-.624 1.48-.467 4.596-11.997 1.091-.234 4.207 12.31 1.402.312-.078.7h-4.83l.078-.623 1.792-.467-1.324-3.74h-4.44l-1.403 3.74 1.947.312-.077.623h-4.519v.156zm4.363-5.61h3.895l-1.87-5.53-2.025 5.53zm18.307 5.766a3.966 3.966 0 01-1.714-.39c-.467-.234-.857-.623-1.168-1.09a3.622 3.622 0 01-.39-1.637c0-.857.234-1.636.78-2.259.545-.701 1.324-1.324 2.259-1.948-.39-.467-.78-.934-1.091-1.402-.312-.545-.468-1.013-.468-1.558 0-.545.156-1.013.39-1.558a4.172 4.172 0 011.169-1.169 2.808 2.808 0 011.558-.467c.857 0 1.558.234 2.103.701.468.468.78 1.09.78 2.026 0 .623-.235 1.168-.624 1.714-.468.545-1.09 1.09-1.87 1.636v.078l2.571 2.882 1.948-3.194-1.636-.39.078-.545h4.44l-.078.545-1.792.39-2.259 3.817c.78.857 1.402 1.558 2.026 2.104.623.467 1.168.857 1.558.934l.39.156-.079.546c-.233.078-.39.155-.545.155-.156 0-.312.078-.545.078-.468 0-.935-.155-1.403-.467a7.87 7.87 0 01-1.246-1.013l-1.013-1.09c-.39.545-.701.934-1.09 1.324-.39.39-.78.7-1.325.935-.545.078-1.09.156-1.714.156zm.234-6.778a8.611 8.611 0 00-1.48 1.402c-.39.467-.546 1.013-.546 1.636 0 .467.078.935.312 1.325.156.389.468.7.78.934.31.234.778.39 1.246.39.623 0 1.168-.234 1.636-.623.467-.39.934-.857 1.246-1.48L80.47 26.73h-.078zm.935-5.999c-.312 0-.623.078-.857.234-.234.156-.468.39-.545.701-.156.312-.156.545-.156.935 0 .467.155.935.467 1.402.312.468.701.935 1.169 1.402.545-.39 1.013-.779 1.246-1.168.312-.39.39-.857.39-1.324 0-.39-.078-.78-.234-1.091-.156-.312-.312-.623-.623-.78-.234-.155-.546-.31-.857-.31zm14.568 15.971l-.39-.702c.857-.779 1.48-1.558 1.948-2.337.39-.779.623-1.636.623-2.57v-9.894l-1.87-.312.078-.623h5.298l-.078.623-1.792.312v8.18c0 1.402-.156 2.492-.311 3.35-.234.856-.624 1.48-1.091 2.103-.623.623-1.402 1.246-2.415 1.87zm7.635-3.35l.077-.624 1.481-.467 4.596-11.997 1.091-.234 4.206 12.309 1.403.312-.078.7h-4.83l.078-.623 1.791-.467-1.324-3.74h-4.44l-1.403 3.74 1.948.312-.078.623h-4.518v.156zm4.362-5.61h3.895l-1.869-5.53-2.026 5.53zm10.595 5.61l.078-.546 1.792-.39.779-11.062-1.948-.39.078-.622h3.74l.779 2.025 3.038 8.18 3.506-8.647.701-1.558h3.739l-.078.623-1.792.39.546 11.14 1.869.233-.078.624h-5.219l.078-.546 1.792-.39-.624-10.438-4.44 10.828-.935.156-3.895-10.673-.779 10.206 1.947.233-.078.624h-4.596zm19.009-12.465l.078-.623h9.971l-.311 3.35-.701-.078-.312-2.493h-5.297v5.297h3.271l.39-1.324.779-.078-.312 4.051-.701.078-.233-1.948h-3.194v5.454h5.531l.935-2.571.623.078-.312 3.272h-10.127l.078-.624 1.791-.39V21.277l-1.947-.389zm16.048 12.698a4.542 4.542 0 01-2.025-.467c-.624-.312-1.091-.623-1.481-1.09l.234-2.883.779.078.312 2.103c.233.39.545.701 1.012.935.468.234.935.39 1.481.39.389 0 .857-.078 1.168-.234.39-.156.701-.39.935-.78.234-.31.39-.778.39-1.246 0-.39-.156-.779-.39-1.168a5.283 5.283 0 00-.935-.935c-.389-.234-.857-.546-1.48-.935-.701-.467-1.324-.779-1.714-1.169-.467-.311-.779-.7-1.091-1.168-.311-.467-.467-1.013-.467-1.636 0-.701.156-1.325.545-1.87.39-.545.857-.935 1.403-1.168.545-.312 1.168-.39 1.869-.39.546 0 1.091.078 1.636.312.546.156.935.467 1.325.779l-.312 3.116-.779-.078-.234-2.26c-.155-.31-.389-.545-.779-.778a2.197 2.197 0 00-1.168-.312c-.39 0-.701.078-1.013.234a1.53 1.53 0 00-.701.701c-.156.312-.234.701-.234 1.169 0 .467.156.934.39 1.246.233.39.545.701.934.935.39.234.935.623 1.559 1.013.701.39 1.246.779 1.713 1.09.39.312.78.701 1.091 1.169.312.467.468.935.468 1.558 0 .701-.234 1.324-.624 1.948a3.967 3.967 0 01-1.636 1.324c-.623.312-1.402.467-2.181.467zm-2.181 7.557c-2.182 2.57-4.363 5.064-6.856 7.323-1.168 1.169-2.493 2.26-3.739 3.35-.623.545-1.325 1.013-1.948 1.558-.701.545-1.324 1.09-2.025 1.558-5.454 3.973-11.296 7.323-17.529 9.972l-2.337 1.013-2.337.857-1.169.467-1.168.39-2.415.779-2.415.7-1.247.312-1.246.312-2.415.623-2.493.546c-6.622 1.324-13.322 2.025-20.022 2.025-6.7 0-13.477-.623-20.099-1.948-6.622-1.324-13.088-3.272-19.242-5.92-1.558-.624-3.038-1.403-4.596-2.104-1.559-.7-2.96-1.558-4.441-2.337a74.858 74.858 0 01-8.492-5.453c-2.726-1.948-5.297-4.13-7.79-6.388a76.249 76.249 0 01-6.856-7.323c4.441 4.986 9.427 9.504 14.958 13.243 2.727 1.87 5.61 3.662 8.492 5.22 1.48.779 2.96 1.558 4.44 2.26a81.905 81.905 0 004.596 2.025l2.338.934 2.337.858 1.168.389 1.169.39 2.415.779c.779.233 1.636.467 2.415.7.779.234 1.636.468 2.415.624 1.636.39 3.272.779 4.908 1.09 6.544 1.247 13.166 1.87 19.865 1.792 6.622 0 13.322-.623 19.866-1.947l2.415-.468 2.415-.623 1.247-.311 1.168-.312 2.415-.701 2.415-.78 1.169-.389 1.168-.39 2.337-.856 2.338-.935c12.386-5.064 23.605-12.854 32.408-22.904z" fill="#000"/><path d="M126.589 40.752a59.78 59.78 0 01-5.141 3.506c-.857.545-1.792 1.09-2.649 1.636-.935.468-1.792 1.013-2.727 1.48-1.87 1.013-3.739 1.792-5.609 2.65-1.948.778-3.895 1.557-5.843 2.18-7.868 2.65-16.204 3.896-24.54 3.974a83.92 83.92 0 01-12.464-.935 80.847 80.847 0 01-12.153-2.805c-3.974-1.246-7.79-2.882-11.53-4.752-3.662-1.948-7.245-4.051-10.517-6.544 3.428 2.26 7.011 4.363 10.828 6.076a76.577 76.577 0 0011.53 4.441c3.973 1.169 7.947 2.104 12.075 2.649 4.051.545 8.18.857 12.31.857 4.128 0 8.257-.312 12.308-.935a89.193 89.193 0 0011.997-2.727c1.948-.623 3.896-1.324 5.843-2.025 1.948-.78 3.818-1.558 5.687-2.493a91.818 91.818 0 0010.595-6.233zM114.981 6.319a3.667 3.667 0 00-.467-1.169 3.481 3.481 0 00-.623-.857c-.234-.233-.468-.467-.701-.623-.078-.078-.156-.078-.234-.156l-.078-.078-.078-.077c-.078-.078-.156-.078-.234-.156l-.078-.078-.077-.078c-.312-.156-.624-.234-.935-.312-.312-.078-.624-.156-.935-.156-.623-.077-1.169 0-1.792.078-.312.078-.545.078-.857.234-.156 0-.234.078-.389.156-.078 0-.156.078-.234.078-.078 0-.156.078-.156.078-.078 0-.156.078-.156.078-.078 0-.156.078-.156.078l-.077.077-.078.078c-.078 0-.156.078-.156.078-.078 0-.078.078-.156.078l-.078.078-.078.078-.156.156-.155.156-.156.155-.156.156a1.077 1.077 0 00-.234.312c-.156.233-.311.39-.467.623 0 .078-.078.078-.078.156l-.078.078v.078c0 .078-.078.078-.078.155 0 .078-.078.156-.078.156v.156c0 .078 0 .156-.078.156v1.246c0 .078 0 .078.078.156 0 .078 0 .078.078.156v.156c0 .078.078.078.078.156 0 .077.078.078.078.155v.078s0 .078.078.078c0 .078.078.078.078.156s.078.078.078.156c.078.078.155.156.155.234.234.311.546.545.857.7.312.156.624.234.935.312h.935c.078 0 .078 0 .156-.078.078 0 .156-.078.234-.078.078 0 .155-.077.233-.077 0 0 .078 0 .078-.078.546-.078.857-.546.857-1.091 0-.623-.467-1.09-1.09-1.09-.624 0-1.091.467-1.091 1.09 0 .467.311.857.701 1.013h-.39c-.233 0-.467 0-.701-.078-.233-.078-.467-.156-.779-.312-.233-.156-.467-.311-.701-.623-.078-.078-.078-.156-.156-.234l-.078-.078-.077-.078v-.155c0-.078 0-.078-.078-.156 0-.078 0-.078-.078-.156V6.085c0-.078 0-.078.078-.156v-.155c0-.078 0-.078.078-.156 0-.078.077-.078.077-.156v-.078l.078-.078c0-.078.078-.078.078-.156a4.667 4.667 0 012.104-1.714c.078 0 .078-.077.155-.077.078 0 .078-.078.156-.078.156 0 .234-.078.39-.078.234-.078.467-.156.779-.156.545-.078 1.013-.078 1.558-.078.234 0 .545.078.779.156.234.078.545.156.779.234l.078.077.078.078c.078 0 .156.078.156.078l.078.078s.077 0 .077.078l.156.156c.234.156.39.311.624.545.155.234.389.468.545.701.156.234.311.546.389.935.078.312.156.701.078 1.09v.312c0 .078 0 .234-.078.312-.078.234-.078.39-.155.623-.078.234-.156.39-.234.624-.078.233-.234.39-.312.623-.156.156-.233.39-.389.545l-.234.234-.156.156-.156.155-.155.156-.156.156c-.078.078-.234.156-.312.234l-.156.156c-.078 0-.078.078-.155.078-.078 0-.078.077-.156.077s-.078.078-.156.078c-.078.078-.234.156-.312.234-.078.078-.233.156-.311.234a.596.596 0 01-.39.155c-.078 0-.156.078-.156.078-.078 0-.155.078-.155.078-.078 0-.156.078-.156.078-.078 0-.156.078-.156.078-.156.078-.234.078-.39.156-.155 0-.233.078-.389.078-.078 0-.156 0-.234.078-.078 0-.156 0-.234.078a6.069 6.069 0 01-1.713.233h-4.207c-.156 0-.312 0-.468-.078-.311 0-.623-.077-.935-.077-.155 0-.311-.078-.467-.078-.156 0-.312-.078-.467-.078-.312-.078-.624-.078-.857-.156-.39-.078-.857-.234-1.247-.312h.312c.078 0 .156 0 .233-.078.156-.077.312-.077.468-.155l.467-.234c.156-.078.234-.156.39-.234.467-.39.857-.857 1.091-1.324.077-.234.155-.468.155-.701v-.624c0-.233-.078-.39-.155-.623 0-.078 0-.078-.078-.156V8.19c0-.078-.078-.078-.078-.156v-.156c-.078-.156-.234-.312-.312-.467-.156-.156-.234-.312-.389-.39-.312-.234-.624-.467-.935-.623l-.468-.234c-.078 0-.156-.078-.233-.078h-1.87c-.078 0-.156 0-.234.078-.156 0-.311.078-.467.156 0 0-.078 0-.078.078h-.156l-.078.078-.078.078h-.156l-.078.077-.077.078-.078.078v.078l-.078.078-.078.078v.156s0 .078-.078.078c0 0 0 .078-.078.078v1.089c0 .234.078.468.234.624.078.155.234.311.39.467.155.156.233.234.389.234h.234c.078 0 .155 0 .155.078h.234c.312.155.623.077.857-.234.234-.312.156-.701-.156-.935-.311-.234-.7-.156-.935.156a.708.708 0 000 .779h-.078s-.077 0-.077-.078h-.156c-.078-.078-.234-.156-.312-.234-.078-.078-.234-.233-.234-.39-.078-.155-.155-.31-.155-.545v-.779s0-.078.078-.078c0 0 0-.077.077-.077 0 0 0-.078.078-.078l.078-.078.078-.078s.078 0 .078-.078c0 0 .078 0 .078-.078 0 0 .078 0 .078-.078h.156s.078 0 .078-.078c.467-.234 1.09-.233 1.636-.078h.155c.078 0 .156.078.234.078.156.078.312.078.468.156a2.8 2.8 0 01.779.545c.155.078.233.234.311.312.078.156.234.234.312.39v.155s0 .078.078.078v.156c0 .078 0 .078.078.156.078.156.078.311.078.467v.546c0 .155-.078.39-.156.623a2.33 2.33 0 01-.312.623c0 .078-.078.078-.078.156l-.156.156c-.078.078-.156.156-.311.233-.078.078-.234.156-.312.234-.156.078-.234.156-.39.156-.155.078-.233.078-.389.156-.078 0-.156 0-.234.078h-2.103c-.078 0-.234-.078-.312-.078-.545-.156-1.168-.312-1.714-.546l-1.635-.467c-1.091-.312-2.182-.701-3.195-.935-.545-.156-1.012-.234-1.558-.39-.467-.077-1.013-.155-1.48-.233-.935-.078-1.87-.078-2.727.078-.39.078-.779.156-1.168.311-.39.156-.701.312-.935.546-.156.155-.234.233-.312.39-.077.155-.155.31-.155.467v.389c0 .156 0 .234.078.39.078.233.155.39.311.545.156.156.312.234.39.234h.311-.311c-.078 0-.234-.078-.39-.234-.156-.156-.234-.312-.311-.545 0-.078-.078-.234-.078-.39v-.311c0-.156.078-.234.155-.39a.608.608 0 01.312-.312c.234-.233.545-.39.857-.467.312-.156.701-.234 1.09-.312.78-.155 1.715-.155 2.65 0 .467.078.934.156 1.48.234a10.4 10.4 0 011.48.39c.156.078.39.078.545.155.156.078.234.156.39.156.078 0 .078 0 .155.078h.234s.078 0 .078.078c.078 0 .156.078.156.078.078 0 .078.078.156.078s.078.078.155.078c0 0 .078 0 .078.078 0 0 .078 0 .078.078 0 0 .078 0 .078.078 0 0 .078 0 .078.077.078 0 .078.078.156.078 0 0 .078 0 .078.078 0 0 .078 0 .078.078l.078.078.078.078.155.156c.078.078.156.155.234.311.078.078.078.156.156.312.078.078.078.234.156.312 0 .077.078.233.078.311v.312c0 .156 0 .39-.078.545 0 .156-.078.312-.156.468-.078.155-.156.233-.234.311a1.075 1.075 0 01-.311.234l-.078.078h-.156s-.078 0-.078.078h-.156c-.156.078-.234.078-.39.155-.155 0-.233.078-.389.078h-.779c-.156 0-.234-.078-.39-.078-.077 0-.155 0-.155-.077h-.156c-.468-.156-.78-.468-1.013-.857v-1.169l.078-.078c.078-.156.234-.234.312-.311.155-.078.233-.156.39-.156h.389c-.234.078-.312.233-.312.467 0 .312.234.546.545.546a.532.532 0 00.546-.546c0-.233-.156-.467-.468-.545 0 0-.078 0-.078-.078-.078 0-.078 0-.155-.078h-.624c-.156 0-.311.078-.467.156-.156.078-.312.156-.39.312l-.078.077s0 .078-.077.078v1.792s0 .078.078.078c.077.078.155.234.233.312l.156.155.078.078.078.078.078.078s.078 0 .078.078h.155s.078 0 .078.078c0 0 .078 0 .078.078h.156s.078 0 .078.078c0 0 .078 0 .078.078 0 0 .078 0 .078.078h.078c.078 0 .156.077.233.077.156.078.234.078.39.078.311.078.545.078.857 0 .156 0 .311 0 .467-.078.156 0 .312-.078.468-.155h.156s.077 0 .077-.078h.156l.078-.078c.156-.078.234-.234.39-.312.078-.156.233-.234.311-.39.078-.155.156-.389.234-.545.078-.39.078-.857-.078-1.324 0-.078-.078-.234-.156-.312-.078-.078-.156-.233-.156-.311-.078-.078-.155-.234-.233-.312l-.156-.156-.078-.078-.078-.077-.078-.078-.078-.078-.155-.156.7.234c.546.155 1.091.39 1.637.545.545.156 1.09.39 1.714.545.545.156 1.168.39 1.713.546.624.155 1.169.311 1.792.467l.935.234c.156 0 .312.078.468.078.155 0 .311.078.467.078.312.077.623.077.935.155.156 0 .311.078.467.078h4.207c.623-.078 1.169-.155 1.792-.233.078 0 .156 0 .234-.078.077 0 .155 0 .233-.078.156-.078.312-.078.468-.156.155-.078.311-.078.389-.156.078 0 .156-.078.234-.078.078 0 .156-.078.234-.078.078 0 .155-.078.233-.078.078 0 .156-.078.234-.078.156-.077.234-.155.39-.155.155-.078.233-.156.389-.234.156-.078.234-.156.39-.234.078 0 .155-.078.155-.078l.156-.155.156-.156.156-.156c.078-.078.234-.156.311-.234l.156-.156.156-.155.156-.156.156-.156c.078-.078.155-.234.311-.312.156-.233.312-.39.468-.623.156-.234.233-.467.389-.701.078-.234.234-.467.312-.701.545-1.48.545-2.415.389-3.272zM84.754 8.812c.078 0 .156-.078.234-.156.078-.078.156-.234.078-.467 0-.234-.078-.468-.312-.624-.155-.233-.467-.39-.7-.467-.156-.078-.312-.078-.546-.078-.234 0-.467.078-.701.156a1.696 1.696 0 00-.623.39 1.82 1.82 0 00-.546.545c-.155.156-.233.39-.311.545-.078.078-.078.156-.078.234 0 .078-.078.156-.078.233v.546s.078 0 .078-.078l.234-.234.155-.156.156-.155c.156-.078.234-.234.39-.312l.467-.234c.156-.078.312-.078.468-.078h.545c.078 0 .156.078.234.078.078 0 .155.078.233.078.234.078.39.234.623.234zm-9.504 0c-.078 0-.156-.078-.234-.156-.077-.078-.155-.234-.077-.467 0-.234.078-.468.311-.624.156-.233.468-.39.701-.467.156-.078.312-.078.546-.078.233 0 .467.078.7.156.235.078.468.234.624.39.234.155.39.311.545.545.156.156.234.39.312.545.078.078.078.156.078.234 0 .078.078.156.078.233v.546s-.078 0-.078-.078l-.234-.234-.156-.156-.155-.155c-.156-.078-.234-.234-.39-.312l-.467-.234c-.156-.078-.312-.078-.468-.078h-.623c-.078 0-.156.078-.234.078-.078 0-.155.078-.233.078-.234.078-.39.234-.546.234z" fill="#000"/><path d="M80.937 6.786C82.651 4.45 80.158.71 79.924.32c-.233.39-2.726 4.13-1.012 6.466-1.013-1.168-3.662-1.09-2.883-.857 3.506 1.013 3.117 3.662 3.117 3.662v.078c0 .156.155.311.311.311h.078c.078 0 .078.078.078.078v.624l-.701 1.48c.39.467.935 1.947 1.012 2.259h.078c.078-.312.624-1.714 1.013-2.26l-.701-1.48v-.623c0-.078.078-.078.078-.078a.335.335 0 00.312-.311s-.468-2.649 3.116-3.662c.779-.233-1.792-.39-2.883.78z" fill="#000"/><path d="M44.946 6.319c.078-.39.233-.78.467-1.169.156-.311.39-.623.623-.857.234-.233.468-.467.701-.623.078-.078.156-.078.234-.156l.078-.078.078-.077c.078-.078.156-.078.234-.156l.078-.078.077-.078c.312-.156.624-.234.935-.312.312-.078.623-.156.935-.156.623-.077 1.169 0 1.792.078.312.078.545.078.857.234.156 0 .234.078.39.156.077 0 .155.078.233.078.078 0 .156.078.156.078.078 0 .156.078.156.078.078 0 .156.078.156.078l.077.077.078.078c.078 0 .156.078.156.078.078 0 .078.078.156.078l.078.078.078.078.156.156.155.156.156.155.156.156c.078.078.156.156.234.312.155.233.311.39.467.623 0 .078.078.078.078.156l.078.078v.078c0 .078.078.078.078.155 0 .078.078.156.078.156v.156c0 .078 0 .156.078.156v1.246c0 .078 0 .078-.078.156 0 .078 0 .078-.078.156v.156c0 .078-.078.078-.078.156 0 .077-.078.078-.078.155v.078s0 .078-.078.078c0 .078-.078.078-.078.156s-.078.078-.078.156c-.078.078-.156.156-.156.234a2.435 2.435 0 01-.856.7c-.312.156-.624.234-.935.312h-.935c-.078 0-.078 0-.156-.078-.078 0-.156-.078-.234-.078-.078 0-.156-.077-.233-.077 0 0-.078 0-.078-.078-.546-.078-.857-.546-.857-1.091 0-.623.467-1.09 1.09-1.09.624 0 1.091.467 1.091 1.09 0 .467-.312.857-.701 1.013h.39c.233 0 .467 0 .7-.078.234-.078.468-.156.78-.312.233-.156.467-.311.7-.623.079-.078.079-.156.157-.234l.078-.078.077-.078v-.155c0-.078 0-.078.078-.156 0-.078 0-.078.078-.156V6.085c0-.078 0-.078-.078-.156v-.155c0-.078 0-.078-.078-.156 0-.078-.078-.078-.078-.156v-.078l-.077-.078c0-.078-.078-.078-.078-.156a4.663 4.663 0 00-2.104-1.714c-.078 0-.078-.077-.156-.077-.077 0-.077-.078-.155-.078-.156 0-.234-.078-.39-.078-.234-.078-.467-.156-.779-.156-.545-.078-1.013-.078-1.558-.078-.234 0-.545.078-.779.156-.234.078-.545.156-.78.234l-.077.077-.078.078c-.078 0-.156.078-.156.078l-.078.078s-.078 0-.078.078l-.155.156c-.234.156-.39.311-.623.545-.156.234-.39.468-.546.701a2.6 2.6 0 00-.39.935c-.077.312-.155.701-.077 1.09v.312c0 .078 0 .234.078.312.078.234.078.39.155.623.078.234.156.39.234.624.078.233.234.39.312.623.156.156.233.39.39.545l.233.234.156.156.156.155.155.156.156.156c.078.078.234.156.312.234l.156.156c.078 0 .078.078.155.078.078 0 .078.077.156.077s.078.078.156.078c.078.078.234.156.312.234.078.078.233.156.311.234a.595.595 0 00.39.155c.078 0 .156.078.156.078.077 0 .155.078.155.078.078 0 .156.078.156.078.078 0 .156.078.156.078.156.078.234.078.39.156.155 0 .233.078.39.078.077 0 .155 0 .233.078.078 0 .156 0 .233.078a6.11 6.11 0 001.714.233h4.207c.156 0 .312 0 .468-.078.311 0 .623-.077.934-.077.156 0 .312-.078.468-.078.156 0 .312-.078.467-.078.312-.078.624-.078.857-.156.39-.078.857-.234 1.247-.312h-.312c-.078 0-.156 0-.233-.078-.156-.077-.312-.077-.468-.155l-.467-.234c-.156-.078-.234-.156-.39-.234-.467-.39-.857-.857-1.09-1.324-.078-.234-.156-.468-.156-.701v-.624c0-.233.078-.39.155-.623 0-.078 0-.078.078-.156V8.19c0-.078.078-.078.078-.156v-.156c.078-.156.234-.312.312-.467.156-.156.234-.312.39-.39.311-.234.623-.467.934-.623l.468-.234c.078 0 .156-.078.233-.078h1.87c.078 0 .156 0 .234.078.156 0 .311.078.467.156 0 0 .078 0 .078.078h.156l.078.078.078.078h.156l.077.077.078.078.078.078v.078l.078.078.078.078v.156s0 .078.078.078c0 0 0 .078.078.078v1.089a.885.885 0 01-.234.624c-.078.155-.234.311-.39.467-.155.156-.233.234-.389.234h-.234c-.078 0-.155 0-.155.078h-.234c-.312.155-.623.077-.857-.234-.234-.312-.156-.701.156-.935.311-.234.7-.156.935.156a.708.708 0 010 .779h.078s.077 0 .077-.078h.156c.078-.078.234-.156.312-.234.078-.078.233-.233.233-.39.078-.155.156-.31.156-.545v-.779s0-.078-.078-.078c0 0 0-.077-.078-.077 0 0 0-.078-.077-.078l-.078-.078-.078-.078s-.078 0-.078-.078c0 0-.078 0-.078-.078 0 0-.078 0-.078-.078h-.156s-.078 0-.078-.078c-.467-.234-1.09-.233-1.636-.078h-.155c-.078 0-.156.078-.234.078-.156.078-.312.078-.468.156a2.8 2.8 0 00-.779.545c-.155.078-.233.234-.311.312-.078.156-.234.234-.312.39v.155s0 .078-.078.078v.156c0 .078 0 .078-.078.156-.078.156-.078.311-.078.467v.546c0 .155.078.39.156.623.078.233.156.39.312.623 0 .078.078.078.078.156l.156.156c.078.078.155.156.311.233.078.078.234.156.312.234.156.078.234.156.39.156.155.078.233.078.389.156.078 0 .156 0 .234.078h2.103c.078 0 .234-.078.312-.078.545-.156 1.168-.312 1.713-.546l1.636-.467c1.091-.312 2.182-.701 3.195-.935.545-.156 1.012-.234 1.558-.39.467-.077 1.012-.155 1.48-.233.935-.078 1.87-.078 2.727.078.389.078.779.156 1.168.311.39.156.701.312.935.546.156.155.234.233.311.39.078.155.156.31.156.467v.389c0 .156 0 .234-.078.39-.078.233-.155.39-.311.545-.156.156-.312.234-.39.234h-.389.389c.078 0 .234-.078.39-.234.156-.156.233-.312.311-.545 0-.078.078-.234.078-.39v-.311c0-.156-.078-.234-.156-.39a.608.608 0 00-.311-.312 1.857 1.857 0 00-.857-.467c-.312-.156-.701-.234-1.09-.312-.78-.155-1.715-.155-2.65 0a60.57 60.57 0 01-1.48.234 10.4 10.4 0 00-1.48.39c-.156.078-.39.078-.545.155-.156.078-.234.156-.39.156-.078 0-.078 0-.155.078h-.234s-.078 0-.078.078c-.078 0-.156.078-.156.078-.078 0-.078.078-.156.078s-.078.078-.156.078c0 0-.077 0-.077.078 0 0-.078 0-.078.078 0 0-.078 0-.078.078 0 0-.078 0-.078.077-.078 0-.078.078-.156.078 0 0-.078 0-.078.078 0 0-.078 0-.078.078l-.078.078-.078.078-.155.156a1.075 1.075 0 00-.234.311c-.078.078-.078.156-.156.312-.078.078-.078.234-.156.312 0 .077-.078.233-.078.311v.312c0 .156 0 .39.078.545 0 .156.078.312.156.468.078.155.156.233.234.311.078.078.156.156.312.234l.077.078h.156s.078 0 .078.078h.156c.156.078.234.078.39.155.155 0 .233.078.389.078h.779c.156 0 .234-.078.39-.078.077 0 .155 0 .155-.077h.156c.468-.156.78-.468 1.013-.857v-1.169l-.078-.078c-.078-.156-.234-.234-.312-.311-.155-.078-.233-.156-.39-.156H71.2c.234.078.312.233.312.467a.532.532 0 01-.545.546.532.532 0 01-.546-.546c0-.233.156-.467.468-.545 0 0 .078 0 .078-.078.078 0 .078 0 .155-.078h.624c.155 0 .311.078.467.156.156.078.312.156.39.312l.078.077s0 .078.077.078v1.792s0 .078-.078.078c-.077.078-.155.234-.233.312l-.156.155-.078.078-.078.078-.078.078s-.078 0-.078.078h-.156s-.077 0-.077.078c0 0-.078 0-.078.078h-.156s-.078 0-.078.078c0 0-.078 0-.078.078 0 0-.078 0-.078.078H71.2c-.078 0-.156.077-.233.077-.156.078-.234.078-.39.078a1.599 1.599 0 01-.857 0c-.156 0-.311 0-.467-.078-.156 0-.312-.078-.468-.155h-.156s-.077 0-.077-.078h-.156l-.078-.078c-.156-.078-.234-.234-.39-.312-.078-.156-.233-.234-.311-.39-.078-.155-.156-.389-.234-.545a2.601 2.601 0 01.078-1.324c0-.078.078-.234.156-.312.078-.078.156-.233.156-.311.077-.078.155-.234.233-.312l.156-.156.078-.078.078-.077.078-.078.078-.078.156-.156-.702.234c-.545.155-1.09.39-1.636.545-.545.156-1.09.39-1.714.545-.545.156-1.168.39-1.713.546-.624.155-1.169.311-1.792.467l-.935.234c-.156 0-.312.078-.468.078-.155 0-.311.078-.467.078-.312.077-.623.077-.935.155-.156 0-.311.078-.467.078h-4.207c-.623-.078-1.169-.155-1.792-.233-.078 0-.156 0-.233-.078-.078 0-.156 0-.234-.078-.156-.078-.312-.078-.468-.156-.155-.078-.311-.078-.39-.156-.077 0-.155-.078-.233-.078-.078 0-.156-.078-.234-.078-.078 0-.156-.078-.233-.078-.078 0-.156-.078-.234-.078-.156-.077-.234-.155-.39-.155-.155-.078-.233-.156-.39-.234-.155-.078-.233-.156-.389-.234-.078 0-.155-.078-.155-.078l-.156-.155-.156-.156-.156-.156c-.078-.078-.234-.156-.312-.234l-.155-.156-.156-.155-.156-.156-.156-.156c-.078-.078-.155-.234-.311-.312-.156-.233-.312-.39-.468-.623-.156-.234-.233-.467-.39-.701-.077-.234-.233-.467-.31-.701-.546-1.48-.546-2.415-.39-3.272zM42.53 52.282c.234.078.39.156.546.234l-.078.156c-.078 0-.234 0-.39.078-.155.078-.311.156-.545.311l-2.181 1.714-.623 1.325c-.078.155-.156.311-.156.39 0 .077 0 .155.078.233.078.078.155.156.311.234l-.078.155c-.233-.155-.545-.233-.857-.467-.39-.156-.7-.312-.934-.39l.077-.155c.156.078.312.078.39.155.078 0 .156 0 .234-.077a.833.833 0 00.233-.39l.546-1.09-.156-3.35c0-.234 0-.312-.078-.39a.168.168 0 00-.156-.156l.078-.156c.156.078.39.234.623.312.468.234.78.39 1.013.468l-.078.155c-.311-.156-.545-.156-.623 0 0 .078-.078.156-.078.312l.078 2.804 1.792-1.402c.233-.233.39-.39.467-.545.078-.156.078-.234 0-.39-.078-.078-.233-.233-.467-.311l.078-.156c.39.156.7.312.935.39zm4.519 2.104c.234.311.39.779.467 1.246a3.97 3.97 0 01-.311 1.558c-.234.546-.468 1.013-.857 1.325-.39.311-.78.545-1.169.623-.467.078-.857.078-1.324-.156a2.322 2.322 0 01-1.09-.779c-.234-.312-.39-.779-.468-1.246 0-.468.078-1.013.311-1.558.234-.546.468-1.013.857-1.325.39-.311.78-.545 1.169-.623.467-.078.857-.078 1.324.156.468.156.78.39 1.09.779zm-2.181-.701c-.312.155-.624.39-.935.7-.312.312-.545.78-.701 1.247-.234.546-.312 1.013-.312 1.403 0 .467.078.779.234 1.09.155.312.39.546.7.623a.993.993 0 00.936 0c.311-.155.623-.39.935-.7.311-.312.545-.78.7-1.247.234-.546.312-1.013.312-1.402 0-.468-.078-.78-.233-1.091-.156-.312-.39-.545-.701-.623-.234-.156-.624-.156-.935 0zm8.335 2.726c-.078 0-.155.078-.233.156a.595.595 0 00-.156.39l-.701 2.259c-.078.39-.234.623-.39.935a2.16 2.16 0 01-.467.623c-.234.156-.468.312-.701.312-.312.078-.546 0-.857-.078a2.212 2.212 0 01-1.169-.78c-.078-.155-.156-.389-.234-.545v-.623c0-.234.078-.545.234-.857l.78-2.337c.077-.156.077-.312.077-.39 0-.077-.078-.155-.078-.233a.595.595 0 00-.39-.156l.078-.156c.234.078.546.156.935.312.39.156.702.233.935.311l-.078.156c-.155-.078-.311-.078-.39-.078-.077 0-.155.078-.233.156-.078.078-.078.234-.156.39l-.779 2.493c-.155.39-.233.779-.233 1.012 0 .312 0 .546.155.78.156.233.312.389.701.467.546.156.935.078 1.247-.156.312-.234.545-.701.779-1.324l.78-2.338c.077-.155.077-.311.077-.467 0-.078-.078-.234-.156-.312-.078-.078-.234-.155-.39-.233l.079-.156c.155.078.467.156.779.234.311.078.545.156.7.233l-.077.156c-.234-.156-.312-.156-.468-.156zm4.285 6.622a.496.496 0 01-.467 0c-.234-.078-.39-.156-.468-.312a1.556 1.556 0 01-.155-.7v-1.403a.595.595 0 00-.156-.39c-.078-.077-.234-.155-.39-.233l-.701-.156-.467 1.792c-.078.155-.078.311-.078.467 0 .078.078.156.155.234.078.078.234.078.39.156v.156a8.084 8.084 0 00-.935-.234 6.676 6.676 0 01-1.013-.234v-.156c.156 0 .312.078.39.078.078 0 .156-.078.234-.156.078-.078.078-.233.155-.39l.935-3.816c.078-.156.078-.312.078-.468 0-.078-.078-.156-.156-.234-.078-.078-.233-.078-.39-.155v-.156c.235.078.546.156.936.233.233.078.39.078.623.156.234.078.39.078.467.078.39.078.701.234.935.39.234.156.39.39.468.623a1.08 1.08 0 010 .701c-.078.234-.156.39-.312.545-.156.156-.312.312-.623.39a1.752 1.752 0 01-.935.078h.078c.234.078.39.234.467.311a.428.428 0 01.234.39c.078.156.078.312.078.545v1.247c0 .078 0 .156.078.234 0 .077.078.077.156.077h.233c.078 0 .156-.077.234-.155l.078.078c.156.233 0 .389-.156.389zm-1.013-3.272c.234-.078.39-.156.546-.312.155-.155.233-.39.311-.623.078-.39.078-.779-.078-1.013a1.378 1.378 0 00-.856-.545c-.156-.078-.312-.078-.39 0-.078 0-.156.078-.234.156-.078.078-.078.234-.156.39l-.467 1.87.545.155c.312-.078.546 0 .78-.078zm14.179.779v-1.012c.467.077 1.169.077 2.181.155 1.013.078 1.792.156 2.181.156-.077.39-.077.701-.155 1.013v.623h-.156c0-.39 0-.701-.078-.935-.078-.233-.156-.39-.312-.467a1.556 1.556 0 00-.7-.156h-.39l-.312 4.44v.468c0 .078.078.156.234.234.078.078.233.078.467.078v.155c-.311 0-.623-.078-1.168-.078a7.708 7.708 0 00-1.169-.078v-.155h.546c.077 0 .155-.078.233-.156.078-.078.078-.234.078-.468l.312-4.44h-.39c-.311 0-.545 0-.701.078a.939.939 0 00-.39.39c-.077.155-.155.467-.233.856h-.156c.078-.233.078-.39.078-.7zm9.193 4.051v1.013c-.39 0-.935-.078-1.792-.078-1.013 0-1.792-.078-2.26-.078v-.156c.156 0 .312 0 .39-.078a.168.168 0 00.156-.155c0-.078.078-.234.078-.468l.078-3.895v-.468a.168.168 0 00-.156-.155c-.078 0-.234-.078-.39-.078v-.156c.546 0 1.247.078 2.26.078h1.636c-.078.311-.078.623-.078.935v.467h-.156c0-.311-.078-.623-.156-.779-.078-.156-.156-.312-.311-.39a1.207 1.207 0 00-.624-.155H77.51a.168.168 0 00-.155.156c0 .077-.078.233-.078.39l-.078 1.869h.545c.234 0 .468-.078.546-.234.077-.156.155-.312.155-.467 0-.156.078-.234.078-.312h.156c0 .234-.078.468-.078.78v1.479h-.156v-.39c0-.233-.078-.389-.233-.467-.078-.078-.312-.155-.468-.155h-.545l-.078 1.87v.467c0 .078.078.156.156.156s.234.077.39.077h.545c.311 0 .545 0 .779-.078a.938.938 0 00.39-.39c.077-.155.155-.466.233-.856h.156c.155.312.078.468.078.701zm5.531.624c.078.078.078.077.156.077h.233v.156h-.7c-.157 0-.546 0-1.091.078v-.156h.467c.078 0 .156-.078.156-.078s0-.078-.078-.155l-1.402-2.026-.857 1.325c-.156.311-.312.545-.312.7 0 .156.078.234.156.312.078.078.312.078.545.078v.156H80.86v-.156c.156 0 .312-.078.468-.234.156-.155.311-.311.467-.545l1.169-1.792-1.558-2.337c-.078-.078-.156-.156-.156-.233-.078-.078-.078-.078-.156-.078h-.234v-.156h.702c.39 0 .7 0 1.09-.078v.156c-.39 0-.545.078-.545.156 0 .077 0 .077.078.155l1.246 1.87.78-1.169c.233-.311.31-.623.31-.779 0-.078-.077-.155-.155-.233-.078-.078-.234-.078-.467-.078v-.156h1.635v.156c-.156 0-.312.078-.468.233-.156.156-.311.312-.39.546l-1.09 1.636 1.714 2.493s0 .078.078.156zm.935-4.285c0-.312-.078-.623-.156-1.013.467 0 1.168-.078 2.181-.156 1.013-.078 1.792-.156 2.181-.156v1.013c0 .234.078.468.078.623h-.155c-.078-.39-.156-.7-.234-.857a.939.939 0 00-.39-.39c-.156-.077-.39-.077-.7-.077h-.39l.311 4.44c0 .234.078.39.078.468.078.078.156.156.234.156.078 0 .311.078.545 0v.156c-.311 0-.7 0-1.168.078-.546 0-.935.077-1.169.077v-.155c.234 0 .39-.078.468-.078l.233-.234c0-.078.078-.234 0-.468l-.311-4.44h-.39c-.312 0-.545.078-.701.156-.156.078-.234.234-.312.467-.078.234-.078.468-.078.935h-.155c.078-.078 0-.312 0-.545zm23.293-4.752c-.078.078-.078.156-.156.233 0 .078 0 .234.078.39l1.013 3.74c.078.155.078.31.156.389.078.078.155.156.233.156.078 0 .234 0 .39-.078l.078.155a6.704 6.704 0 01-1.013.234c-.389.078-.701.234-.935.312l-.078-.156c.156-.078.312-.078.39-.156.078-.078.078-.156.156-.233 0-.078 0-.234-.078-.39l-.468-1.792-2.493.701.468 1.792c.078.156.078.312.156.39.077.078.155.155.233.155.078 0 .234 0 .39-.077l.078.155a8.132 8.132 0 01-.935.234c-.468.156-.779.234-.935.312l-.078-.156c.156-.078.312-.078.39-.156.078-.078.078-.156.155-.234 0-.078 0-.233-.077-.39l-1.013-3.739c-.078-.155-.078-.311-.156-.389-.078-.078-.156-.156-.234-.156-.078 0-.233 0-.389.078l-.078-.156a6.674 6.674 0 011.013-.233c.389-.078.701-.234.934-.312l.078.156c-.155.078-.311.078-.389.155-.078.078-.078.156-.156.234 0 .078 0 .234.078.39l.467 1.792 2.493-.702-.467-1.791c-.078-.156-.078-.312-.156-.39-.078-.078-.156-.156-.234-.156-.078 0-.233 0-.389.078l-.078-.156c.234-.078.545-.155.935-.233.467-.156.779-.234.935-.312l.078.156a.596.596 0 00-.39.156zm6.544 2.337c.078.311.234.623.389.934-.311.079-.934.312-1.713.546-.935.312-1.636.623-2.182.779l-.078-.156c.156-.078.312-.156.39-.156.078-.078.078-.156.078-.233 0-.078 0-.234-.078-.39l-1.247-3.661c-.077-.156-.155-.312-.155-.39-.078-.078-.156-.078-.234-.078-.078 0-.234 0-.39.078l-.078-.156c.468-.155 1.247-.39 2.182-.7.701-.235 1.246-.468 1.558-.546l.234.935c.078.155.155.311.155.467l-.155.078c-.156-.312-.312-.545-.39-.701a.429.429 0 00-.389-.234c-.156 0-.39 0-.624.078l-.623.234c-.156.078-.312.155-.389.155-.078.078-.078.156-.078.234 0 .078 0 .234.078.39l.623 1.792.467-.156c.234-.078.39-.234.39-.39v-.545c0-.156-.078-.234-.078-.312l.156-.078.233.702.156.39c.078.233.234.622.39 1.012l-.156.078-.156-.312c-.078-.234-.234-.312-.389-.39-.156-.077-.312-.077-.546 0l-.467.156.623 1.792c.078.156.156.312.156.39.078.078.156.078.234.078.077 0 .233 0 .389-.078l.545-.156c.312-.078.546-.234.702-.39a.71.71 0 00.233-.545c0-.234 0-.467-.078-.857l.156-.078s.078.156.156.39zm5.765-1.247c-.078.156-.234.234-.39.312-.233.078-.389.078-.545 0a1.452 1.452 0 01-.545-.468l-.468-.623c-.156-.234-.311-.39-.389-.545-.078-.078-.234-.156-.39-.234-.156 0-.311 0-.467.078l-.701.312.701 1.636c.078.155.156.311.234.39.077.077.155.077.233.077.078 0 .234 0 .39-.078l.078.156c-.234.078-.546.234-.935.39-.39.155-.701.311-.935.389l-.078-.156c.156-.078.312-.156.39-.234.077-.078.077-.155.077-.233 0-.078-.077-.234-.155-.39l-1.481-3.583c-.077-.156-.155-.312-.233-.39-.078-.078-.156-.078-.234-.078-.078 0-.234 0-.389.078l-.078-.156c.233-.078.545-.156.857-.39.155-.077.389-.155.623-.233.234-.078.389-.156.467-.234.39-.155.701-.233 1.013-.233.312 0 .545.078.779.233.234.156.39.312.467.546.078.155.078.39.078.623 0 .234-.078.467-.233.701-.156.234-.39.467-.701.623h.077c.234-.078.468-.078.624-.078.155 0 .311.078.467.156.156.078.234.234.39.39l.467.7c.078.157.156.234.234.312.078.078.156.078.156.156h.155a.168.168 0 00.156-.156c0-.078.078-.155.078-.311h.156c.156.233.078.39 0 .545zm-2.805-2.025a.841.841 0 00.234-.546c0-.233-.078-.467-.156-.7a1.626 1.626 0 00-.623-.78c-.312-.156-.623-.078-1.013.078-.156.078-.233.156-.311.156-.078.078-.078.156-.078.234 0 .078.078.233.155.39l.78 1.79.467-.233c.234-.078.467-.234.545-.39zm7.09-1.169c.155.234.311.546.467.857-.312.156-.857.39-1.636.78l-2.025 1.012-.078-.156c.155-.078.311-.156.311-.234.078-.078.078-.155.078-.233 0-.078-.078-.234-.156-.39l-1.791-3.505c-.078-.156-.156-.312-.234-.39-.078-.078-.156-.078-.234-.078-.078 0-.234.078-.389.156l-.078-.156c.467-.234 1.168-.545 2.025-1.013.701-.311 1.169-.623 1.48-.779.156.312.234.623.39.857.078.156.156.312.234.39l-.156.078a2.151 2.151 0 00-.468-.624c-.155-.155-.233-.155-.389-.155s-.39.078-.623.155l-.546.312c-.156.078-.311.156-.311.234-.078.078-.078.155-.078.233 0 .078.078.234.156.39l.857 1.636.467-.234c.234-.156.389-.233.389-.467 0-.156.001-.312-.077-.468-.078-.155-.078-.233-.078-.311l.155-.078c.078.233.234.467.312.701l.156.312c.156.233.312.545.545 1.012l-.156.078s-.077-.156-.233-.311c-.156-.156-.234-.312-.39-.312-.156-.078-.311 0-.545.078l-.468.234.857 1.713c.078.156.156.312.234.39.078.078.156.078.234.078.078 0 .234-.078.389-.156l.546-.234a2.16 2.16 0 00.623-.467c.078-.156.156-.312.156-.545 0-.234-.078-.468-.234-.857l.156-.078c-.078.156 0 .311.156.545zm-61.233 7.012c-1.09 0-1.09 1.714 0 1.714 1.013 0 1.09-1.714 0-1.714zm33.187-.546c-1.09 0-1.09 1.714 0 1.714 1.013 0 1.013-1.714 0-1.714zM.229 40.908l20.02-.233 20.022-.156c13.322-.078 26.644-.078 39.965-.156l39.965.156 20.021.156 20.022.233-20.022.234-20.021.156-39.965.156c-13.322-.078-26.643 0-39.965-.156l-20.021-.156c-6.7-.078-13.322-.078-20.021-.234zm0-2.025l20.02-.234 20.022-.156c13.322-.077 26.644-.077 39.965-.155l39.965.155 20.021.156 20.022.234-20.022.234-20.021.156-39.965.155c-13.322-.078-26.643 0-39.965-.155l-20.021-.156-20.021-.234z" fill="#000"/></svg>