<svg width="50" height="39" fill="none" xmlns="http://www.w3.org/2000/svg"><path d="M49.756 21.078L39.41 10.732A2.482 2.482 0 0037.642 10H23.334v1.667H27.5v12.5h1.667v-12.5h8.475a.833.833 0 01.59.244l1.423 1.422h-3.822A1.667 1.667 0 0034.167 15v7.5a1.667 1.667 0 001.666 1.667h12.5v6.666a.834.834 0 01-.833.834h-1.733a5.826 5.826 0 00-11.534 0h-11.8a5.826 5.826 0 00-11.533 0H9.167a.833.833 0 01-.834-.834v-7.5H6.667v7.5a2.5 2.5 0 002.5 2.5H10.9a5.815 5.815 0 001.692 3.334H0v1.666h40a5.839 5.839 0 005.767-5H47.5a2.5 2.5 0 002.5-2.5v-9.166a.833.833 0 00-.244-.59zM12.5 32.5a4.167 4.167 0 118.334 0 4.167 4.167 0 01-8.334 0zm8.24 4.167a5.815 5.815 0 001.693-3.334h11.8a5.815 5.815 0 001.693 3.334H20.74zm19.26 0a4.167 4.167 0 110-8.334 4.167 4.167 0 010 8.334zM35.833 22.5V15h5.489l7.011 7.012v.488h-12.5z" fill="#95CCB5"/><path d="M17.5 31.667h-1.666v1.666h1.667v-1.666zm23.333 0h-1.667v1.666h1.667v-1.666zM4.167 29.166H0v1.667h4.167v-1.666zm.001-3.333h-2.5V27.5h2.5v-1.667zM4.167 22.5H2.5v1.667h1.667V22.5zm6.666-.833A10.833 10.833 0 100 10.833a10.846 10.846 0 0010.833 10.834zm0-20a9.167 9.167 0 11-9.166 9.166 9.177 9.177 0 019.166-9.166z" fill="#95CCB5"/><path d="M10.833 18.333a.834.834 0 00.59-.244c.536-.537 5.244-5.347 5.244-8.922A5.833 5.833 0 005 9.167c0 3.575 4.707 8.385 5.244 8.922a.833.833 0 00.59.244zm0-13.333A4.172 4.172 0 0115 9.167c0 2.138-2.623 5.442-4.167 7.125-1.544-1.683-4.166-4.987-4.166-7.125A4.172 4.172 0 0110.833 5z" fill="#95CCB5"/><path d="M13.332 9.167a2.5 2.5 0 10-5 0 2.5 2.5 0 005 0zm-3.333 0a.833.833 0 111.666 0 .833.833 0 01-1.666 0zM35 25.833h-3.334V27.5h3.333v-1.667z" fill="#95CCB5"/></svg>