<svg width="13" height="10" fill="none" xmlns="http://www.w3.org/2000/svg"><path d="M2.516 2.105a6.64 6.64 0 013.91-1.23c1.44 0 2.734.41 3.883 1.23a6.746 6.746 0 012.515 3.145c-.51 1.294-1.349 2.352-2.515 3.172-1.149.802-2.443 1.203-3.883 1.203a6.745 6.745 0 01-3.91-1.203C1.349 7.602.51 6.544 0 5.25a6.746 6.746 0 012.516-3.145zm1.832 5.223a2.885 2.885 0 002.078.848c.802 0 1.485-.283 2.05-.848a2.885 2.885 0 00.848-2.078 2.79 2.79 0 00-.847-2.05c-.566-.584-1.25-.876-2.051-.876-.802 0-1.495.292-2.078.875A2.794 2.794 0 003.5 5.25c0 .802.283 1.495.848 2.078zm.82-3.308c.346-.347.756-.52 1.23-.52.493 0 .912.173 1.258.52.347.328.52.738.52 1.23s-.173.911-.52 1.258A1.762 1.762 0 016.398 7c-.474 0-.884-.164-1.23-.492a1.762 1.762 0 01-.492-1.258c0-.492.164-.902.492-1.23z" fill="#999"/></svg>