<svg width="21" height="17" fill="none" xmlns="http://www.w3.org/2000/svg"><path fill-rule="evenodd" clip-rule="evenodd" d="M12.758.393A6.629 6.629 0 0115.014 0c.775 0 1.541.134 2.257.393a6.01 6.01 0 011.912 1.12 5.178 5.178 0 011.279 1.674 4.61 4.61 0 01.449 1.976 4.61 4.61 0 01-.45 1.975 5.175 5.175 0 01-1.278 1.675l-8.142 7.13a.893.893 0 01-.586.212.892.892 0 01-.586-.213L1.727 8.813C.62 7.845 0 6.532 0 5.163c0-1.37.621-2.682 1.727-3.65C2.833.543 4.332 0 5.896 0c1.564 0 3.063.544 4.169 1.512l.39.342.39-.341a6.01 6.01 0 011.913-1.12zm2.256 1.059c-.556 0-1.107.096-1.621.282a4.31 4.31 0 00-1.375.805l-.977.855a.892.892 0 01-.586.212.892.892 0 01-.586-.212l-.976-.855c-.795-.696-1.873-1.087-2.997-1.087-1.124 0-2.202.391-2.997 1.087-.795.696-1.241 1.64-1.241 2.624 0 .984.446 1.928 1.241 2.624l7.556 6.615 7.556-6.615a3.72 3.72 0 00.92-1.204c.212-.45.322-.933.322-1.42 0-.488-.11-.97-.323-1.42a3.72 3.72 0 00-.919-1.204 4.322 4.322 0 00-1.375-.805 4.765 4.765 0 00-1.622-.282z" fill="#444"/></svg>