<?xml version="1.0" encoding="UTF-8"?>
<!DOCTYPE svg PUBLIC "-//W3C//DTD SVG 1.1//EN" "http://www.w3.org/Graphics/SVG/1.1/DTD/svg11.dtd">
<svg xmlns="http://www.w3.org/2000/svg" version="1.1" width="20px" height="20px" style="shape-rendering:geometricPrecision; text-rendering:geometricPrecision; image-rendering:optimizeQuality; fill-rule:evenodd; clip-rule:evenodd" xmlns:xlink="http://www.w3.org/1999/xlink">
<g><path style="opacity:0.494" fill="#000000" d="M 7.5,-0.5 C 8.83333,-0.5 10.1667,-0.5 11.5,-0.5C 15.1667,1.16667 17.8333,3.83333 19.5,7.5C 19.5,8.83333 19.5,10.1667 19.5,11.5C 17.8333,15.1667 15.1667,17.8333 11.5,19.5C 10.1667,19.5 8.83333,19.5 7.5,19.5C 3.83333,17.8333 1.16667,15.1667 -0.5,11.5C -0.5,10.1667 -0.5,8.83333 -0.5,7.5C 1.16667,3.83333 3.83333,1.16667 7.5,-0.5 Z M 2.5,5.5 C 4.04814,5.82124 4.71481,6.82124 4.5,8.5C 3.44802,8.64945 2.44802,8.48278 1.5,8C 2.25244,7.32924 2.58577,6.4959 2.5,5.5 Z M 6.5,5.5 C 8.46455,5.94835 8.79789,6.94835 7.5,8.5C 6.61432,7.67504 6.28099,6.67504 6.5,5.5 Z M 10.5,5.5 C 12.4646,5.94835 12.7979,6.94835 11.5,8.5C 10.6143,7.67504 10.281,6.67504 10.5,5.5 Z M 14.5,5.5 C 17.962,7.1927 17.962,8.1927 14.5,8.5C 14.5,7.5 14.5,6.5 14.5,5.5 Z M 1.5,11.5 C 2.20895,10.596 3.20895,10.2627 4.5,10.5C 4.30591,14.0048 3.30591,14.3382 1.5,11.5 Z M 6.5,10.5 C 8.46455,10.9483 8.79789,11.9483 7.5,13.5C 6.61432,12.675 6.28099,11.675 6.5,10.5 Z M 10.5,10.5 C 12.4646,10.9483 12.7979,11.9483 11.5,13.5C 10.6143,12.675 10.281,11.675 10.5,10.5 Z M 14.5,10.5 C 18.0993,10.2619 18.4327,11.2619 15.5,13.5C 14.6143,12.675 14.281,11.675 14.5,10.5 Z"/></g>
</svg>
