<svg width="14" height="10" fill="none" xmlns="http://www.w3.org/2000/svg"><path d="M4.495 4.086H8.69a6.27 6.27 0 01-.098 2.632c-.219.829-.601 1.524-1.147 2.084a3.975 3.975 0 01-1.836 1.06 4.307 4.307 0 01-2.294-.036 4.018 4.018 0 01-1.606-.914A4.78 4.78 0 01.496 7.267C.015 6.243-.116 5.158.102 4.013.168 3.574.3 3.16.496 2.77 1.02 1.55 1.86.722 3.02.284c1.005-.39 2.01-.378 3.015.036a4.46 4.46 0 011.442.987c-.043.073-.12.17-.23.293a.844.844 0 00-.196.22c-.087.072-.23.218-.426.438a6.017 6.017 0 00-.393.475 2.254 2.254 0 00-2.295-.695c-.524.122-.972.39-1.343.805a3.655 3.655 0 00-.656 1.206 3.255 3.255 0 000 1.938 3.028 3.028 0 001.049 1.536c.306.243.634.402.983.475.328.073.688.073 1.082 0 .371-.073.7-.22.983-.439.503-.366.798-.877.885-1.535H4.495V4.086zm9.505.11v1.243h-1.54V7.12h-1.115V5.44h-1.54V4.196h1.54V2.477h1.114v1.719H14z" fill="#fff"/></svg>