<svg width="19" height="18" fill="none" xmlns="http://www.w3.org/2000/svg"><path fill-rule="evenodd" clip-rule="evenodd" d="M11.543 1.06a5.333 5.333 0 017.376 4.928 5.333 5.333 0 01-1.563 3.772L9.99 17.127a.75.75 0 01-1.06 0L1.561 9.76a5.334 5.334 0 117.544-7.544l.353.353.353-.353a5.333 5.333 0 011.73-1.156zm2.041 1.093a3.834 3.834 0 00-2.71 1.124l-.884.883a.75.75 0 01-1.06 0l-.884-.883A3.834 3.834 0 002.623 8.7l6.836 6.836L16.296 8.7a3.835 3.835 0 000-5.423 3.833 3.833 0 00-2.712-1.124z" fill="#ff8e8e"/></svg>