<svg width="12" height="12" fill="none" xmlns="http://www.w3.org/2000/svg"><path d="M11.283 3.528c-.027-.638-.124-1.076-.263-1.456a2.951 2.951 0 00-.653-1.064 2.77 2.77 0 00-1-.692c-.359-.147-.77-.25-1.37-.278C7.394.008 7.202 0 5.668 0 4.135 0 3.943.007 3.34.035c-.6.028-1.013.131-1.37.28-.38.151-.72.386-1.002.693-.287.3-.51.663-.65 1.062-.14.382-.237.818-.263 1.456C.026 4.168.02 4.372.02 6c0 1.63.006 1.833.033 2.473.026.638.123 1.076.262 1.456.144.403.366.764.653 1.064a2.77 2.77 0 001 .692c.36.148.77.25 1.37.279.602.028.794.035 2.328.035 1.533 0 1.725-.007 2.327-.035.6-.028 1.013-.131 1.37-.28a2.985 2.985 0 001.653-1.755c.139-.382.236-.818.262-1.456.027-.64.033-.844.033-2.473 0-1.63-.002-1.833-.028-2.473zm-1.017 4.9c-.025.585-.117.902-.194 1.113-.19.523-.58.938-1.073 1.14-.198.081-.498.18-1.048.206-.595.028-.774.035-2.281.035-1.507 0-1.688-.007-2.281-.036-.552-.025-.85-.124-1.048-.206a1.731 1.731 0 01-.65-.447 1.881 1.881 0 01-.42-.69c-.078-.21-.17-.53-.195-1.113-.026-.633-.033-.823-.033-2.424s.007-1.793.033-2.424c.025-.586.117-.903.194-1.114a1.85 1.85 0 01.424-.689c.183-.199.404-.351.649-.447.198-.083.498-.181 1.048-.207.595-.028.774-.035 2.281-.035 1.51 0 1.688.007 2.281.035.552.026.85.124 1.048.207.245.096.468.248.65.447.187.195.33.43.42.69.078.21.17.53.195 1.113.026.633.033.823.033 2.424s-.007 1.788-.033 2.421z" fill="#fff"/><path d="M5.669 2.918c-1.602 0-2.901 1.381-2.901 3.083 0 1.702 1.3 3.083 2.9 3.083C7.272 9.084 8.57 7.703 8.57 6c0-1.702-1.3-3.083-2.901-3.083zm0 5.083c-1.04 0-1.882-.896-1.882-2s.843-2 1.882-2c1.04 0 1.882.896 1.882 2s-.843 2-1.882 2zm3.694-5.204c0 .397-.304.72-.678.72-.374 0-.677-.323-.677-.72 0-.398.303-.72.677-.72.374 0 .678.322.678.72z" fill="#fff"/></svg>