<svg width="24" height="19" fill="none" xmlns="http://www.w3.org/2000/svg"><path d="M23.364 10.397L18.506 5.54a1.165 1.165 0 00-.83-.344h-6.72v.782h1.957v5.87h.783v-5.87h3.98a.39.39 0 01.277.115l.668.668h-1.795a.783.783 0 00-.782.782v3.522a.782.782 0 00.782.783h5.87v3.13a.391.391 0 01-.392.392h-.814a2.735 2.735 0 00-5.415 0h-5.541a2.735 2.735 0 00-5.416 0h-.814a.392.392 0 01-.391-.392v-3.522H3.13v3.522a1.174 1.174 0 001.174 1.174h.814a2.73 2.73 0 00.795 1.565H0v.783h18.783a2.741 2.741 0 002.707-2.348h.814a1.174 1.174 0 001.174-1.174v-4.304a.391.391 0 00-.114-.277zM5.87 15.761a1.956 1.956 0 113.912 0 1.956 1.956 0 01-3.912 0zm3.87 1.956c.43-.42.708-.97.794-1.565h5.54a2.73 2.73 0 00.795 1.565H9.74zm9.043 0a1.956 1.956 0 110-3.913 1.956 1.956 0 010 3.913zm-1.957-6.652V7.543h2.577l3.293 3.293v.23h-5.87z" fill="#EB9635"/><path d="M8.218 15.37h-.782v.782h.782v-.782zm10.955 0h-.782v.782h.782v-.782zM1.957 14.196H0v.782h1.957v-.782zm0-1.566H.783v.783h1.174v-.783zm-.001-1.565h-.782v.783h.782v-.783zm3.131-.391A5.087 5.087 0 105.087.5a5.087 5.087 0 000 10.173zm0-9.391a4.304 4.304 0 110 8.608 4.304 4.304 0 010-8.608z" fill="#EB9635"/><path d="M5.087 9.109a.391.391 0 00.276-.115c.252-.252 2.463-2.511 2.463-4.19a2.74 2.74 0 10-5.478 0c0 1.679 2.21 3.938 2.462 4.19a.391.391 0 00.277.115zm0-6.261a1.959 1.959 0 011.956 1.956c0 1.004-1.231 2.556-1.956 3.346-.725-.79-1.957-2.342-1.957-3.346a1.959 1.959 0 011.957-1.956z" fill="#EB9635"/><path d="M6.26 4.804a1.174 1.174 0 10-2.348 0 1.174 1.174 0 002.348 0zm-1.565 0a.391.391 0 11.782 0 .391.391 0 01-.782 0zm11.739 7.826H14.87v.783h1.565v-.783z" fill="#EB9635"/></svg>