<svg width="15" height="19" fill="none" xmlns="http://www.w3.org/2000/svg"><path d="M14.743 6.572l-3.754-1.454a3.7 3.7 0 10-6.978 0L.257 6.572A.404.404 0 000 6.948v8.707a.404.404 0 00.258.376l7.096 2.751a.405.405 0 00.146.027.4.4 0 00.144-.03l.002.003 7.097-2.75a.404.404 0 00.257-.377V6.948a.404.404 0 00-.257-.376zm-1.264.376l-1.31.508L10 6.62c.247-.227.462-.487.64-.773l2.84 1.101zm-4.275.232l1.846.71-1.042.404-1.912-.747c.386-.062.76-.186 1.108-.367zm1.256 1.805l1.357-.526v1.683l-.227-.148a.404.404 0 00-.514.061l-.616.653V8.985zM7.5 1.009a2.892 2.892 0 110 5.783 2.892 2.892 0 010-5.783zM4.592 6.178l-.54-.211.31-.12c.07.114.147.225.23.332v-.001zm-1.654.22l5.955 2.328-1.393.54-5.98-2.318 1.418-.55zm-2.13 8.98v-7.84l6.288 2.438v7.84L.808 15.378zm7.096 2.438v-7.84l1.749-.679v2.428a.404.404 0 00.698.277l1.08-1.147.57.369a.404.404 0 00.622-.338v-2.74l1.57-.608v7.84l-6.29 2.438z" fill="#95CCB5"/><path d="M6.78 5.088a.404.404 0 00.531-.007L9.27 3.32a.404.404 0 10-.54-.6L7.033 4.244l-.773-.653a.404.404 0 00-.521.617l1.041.88z" fill="#95CCB5"/></svg>