<svg width="120" height="120" fill="none" xmlns="http://www.w3.org/2000/svg"><path d="M51.667 9.156V29.18a4.916 4.916 0 01-4.917 4.916c-9.69 0-14.96 9.938-15.69 29.552h15.69a4.918 4.918 0 014.917 4.917v42.28a4.916 4.916 0 01-4.917 4.915H4.916A4.915 4.915 0 010 110.845v-42.28c0-9.402.947-18.03 2.813-25.648 1.914-7.81 4.852-14.64 8.73-20.299 3.99-5.815 8.982-10.379 14.837-13.558 5.895-3.198 12.75-4.82 20.372-4.82 2.714 0 4.915 2.2 4.915 4.916zm63.415 24.94A4.919 4.919 0 00120 29.18V9.156a4.917 4.917 0 00-4.918-4.916c-7.619 0-14.475 1.623-20.367 4.82-5.856 3.18-10.85 7.743-14.841 13.559-3.877 5.658-6.815 12.488-8.73 20.3-1.865 7.62-2.812 16.248-2.812 25.647v42.28a4.917 4.917 0 004.918 4.915h41.832a4.918 4.918 0 004.916-4.915v-42.28a4.918 4.918 0 00-4.916-4.918H99.616c.719-19.614 5.913-29.551 15.466-29.551z" fill="#FF8E8E" opacity=".1"/></svg>