<svg width="20" height="20" fill="none" xmlns="http://www.w3.org/2000/svg"><g clip-path="url(#clip0)" fill="#999"><path d="M3.933 8.933l6.25-6.25a.625.625 0 011.067.442v3.146c4.314.295 7.883 3.623 8.425 7.97l.32 2.556a.623.623 0 01-.62.703.626.626 0 01-.53-.294l-.629-1.007a7.827 7.827 0 00-6.675-3.699h-.29v3.125a.625.625 0 01-1.068.442l-6.25-6.25a.627.627 0 010-.884zM10 14.116v-2.24c0-.346.28-.626.625-.626h.916a9.061 9.061 0 016.894 3.146 7.883 7.883 0 00-7.81-6.896.625.625 0 01-.625-.625V4.634L5.26 9.375 10 14.116z"/><path d="M.183 8.934l6.25-6.251a.625.625 0 01.883.884L1.51 9.375l5.807 5.808a.626.626 0 01-.883.885l-6.25-6.25a.625.625 0 010-.884z"/></g><defs><clipPath id="clip0"><path fill="#fff" transform="matrix(-1 0 0 1 20 0)" d="M0 0h20v20H0z"/></clipPath></defs></svg>