<svg width="12" height="11" fill="none" xmlns="http://www.w3.org/2000/svg"><path d="M11.728 1.542a4.418 4.418 0 01-.58.221c.234-.278.413-.605.522-.962a.209.209 0 00-.064-.22.186.186 0 00-.22-.016c-.42.261-.873.449-1.35.559a2.524 2.524 0 00-1.802-.77c-1.42 0-2.576 1.21-2.576 2.698 0 .118.007.234.02.35-1.762-.163-3.4-1.07-4.526-2.517A.19.19 0 00.987.811a.193.193 0 00-.152.1 2.8 2.8 0 00.264 3.107 2.134 2.134 0 01-.345-.162.186.186 0 00-.19.002.204.204 0 00-.097.171v.036c0 .97.498 1.845 1.26 2.32a2.124 2.124 0 01-.195-.029.188.188 0 00-.182.065.21.21 0 00-.04.196c.283.923 1.01 1.602 1.888 1.809a4.405 4.405 0 01-2.982.695.193.193 0 00-.205.133.208.208 0 00.078.239 6.719 6.719 0 003.757 1.153c2.622 0 4.263-1.295 5.178-2.382a7.76 7.76 0 001.79-5.145c.45-.356.838-.785 1.153-1.28a.21.21 0 00-.012-.243.188.188 0 00-.227-.054z" fill="#fff"/></svg>