<svg width="194" height="194" fill="none" xmlns="http://www.w3.org/2000/svg"><path d="M0 194v-2h2v2zm0-32v-2h2v2zm0-32v-2h2v2zm0-32v-2h2v2zm0-32v-2h2v2zm0-32v-2h2v2zM0 2V0h2v2zm32 192v-2h2v2zm0-32v-2h2v2zm0-32v-2h2v2zm0-32v-2h2v2zm0-32v-2h2v2zm0-32v-2h2v2zm0-32V0h2v2zm32 192v-2h2v2zm0-32v-2h2v2zm0-32v-2h2v2zm0-32v-2h2v2zm0-32v-2h2v2zm0-32v-2h2v2zm0-32V0h2v2zm32 192v-2h2v2zm0-32v-2h2v2zm0-32v-2h2v2zm0-32v-2h2v2zm0-32v-2h2v2zm0-32v-2h2v2zm0-32V0h2v2zm32 192v-2h2v2zm0-32v-2h2v2zm0-32v-2h2v2zm0-32v-2h2v2zm0-32v-2h2v2zm0-32v-2h2v2zm0-32V0h2v2zm32 192v-2h2v2zm0-32v-2h2v2zm0-32v-2h2v2zm0-32v-2h2v2zm0-32v-2h2v2zm0-32v-2h2v2zm0-32V0h2v2zm32 192v-2h2v2zm0-32v-2h2v2zm0-32v-2h2v2zm0-32v-2h2v2zm0-32v-2h2v2zm0-32v-2h2v2zm0-32V0h2v2z" opacity=".5" fill="#444"/></svg>