<svg width="290" height="290" fill="none" xmlns="http://www.w3.org/2000/svg"><path d="M0 0h2v2H0zm32 0h2v2h-2zm32 0h2v2h-2zm32 0h2v2h-2zm32 0h2v2h-2zm32 0h2v2h-2zm32 0h2v2h-2zm32 0h2v2h-2zm32 0h2v2h-2zm32 0h2v2h-2zM0 32h2v2H0zm32 0h2v2h-2zm32 0h2v2h-2zm32 0h2v2h-2zm32 0h2v2h-2zm32 0h2v2h-2zm32 0h2v2h-2zm32 0h2v2h-2zm32 0h2v2h-2zm32 0h2v2h-2zM0 64h2v2H0zm32 0h2v2h-2zm32 0h2v2h-2zm32 0h2v2h-2zm32 0h2v2h-2zm32 0h2v2h-2zm32 0h2v2h-2zm32 0h2v2h-2zm32 0h2v2h-2zm32 0h2v2h-2zM0 96h2v2H0zm32 0h2v2h-2zm32 0h2v2h-2zm32 0h2v2h-2zm32 0h2v2h-2zm32 0h2v2h-2zm32 0h2v2h-2zm32 0h2v2h-2zm32 0h2v2h-2zm32 0h2v2h-2zM0 128h2v2H0zm32 0h2v2h-2zm32 0h2v2h-2zm32 0h2v2h-2zm32 0h2v2h-2zm32 0h2v2h-2zm32 0h2v2h-2zm32 0h2v2h-2zm32 0h2v2h-2zm32 0h2v2h-2zM0 160h2v2H0zm32 0h2v2h-2zm32 0h2v2h-2zm32 0h2v2h-2zm32 0h2v2h-2zm32 0h2v2h-2zm32 0h2v2h-2zm32 0h2v2h-2zm32 0h2v2h-2zm32 0h2v2h-2zM0 192h2v2H0zm32 0h2v2h-2zm32 0h2v2h-2zm32 0h2v2h-2zm32 0h2v2h-2zm32 0h2v2h-2zm32 0h2v2h-2zm32 0h2v2h-2zm32 0h2v2h-2zm32 0h2v2h-2zM0 224h2v2H0zm32 0h2v2h-2zm32 0h2v2h-2zm32 0h2v2h-2zm32 0h2v2h-2zm32 0h2v2h-2zm32 0h2v2h-2zm32 0h2v2h-2zm32 0h2v2h-2zm32 0h2v2h-2zM0 256h2v2H0zm32 0h2v2h-2zm32 0h2v2h-2zm32 0h2v2h-2zm32 0h2v2h-2zm32 0h2v2h-2zm32 0h2v2h-2zm32 0h2v2h-2zm32 0h2v2h-2zm32 0h2v2h-2zM0 288h2v2H0zm32 0h2v2h-2zm32 0h2v2h-2zm32 0h2v2h-2zm32 0h2v2h-2zm32 0h2v2h-2zm32 0h2v2h-2zm32 0h2v2h-2zm32 0h2v2h-2zm32 0h2v2h-2z" opacity=".5" fill="#444"/></svg>